<svg width="205" height="46" viewBox="0 0 205 46" fill="none" xmlns="http://www.w3.org/2000/svg">
<path d="M148.992 18.7094C148.877 18.756 148.858 18.8522 148.935 18.9983C149.035 19.187 149.131 19.211 149.223 19.07C149.496 19.019 149.848 18.9865 150.28 18.9725C152.993 18.8864 155.107 18.8558 157.346 18.7611C161.191 18.5994 165.043 18.4109 168.892 18.3507C169.567 18.3398 170.204 18.3217 170.803 18.2962C174.821 18.1249 178.839 17.9527 182.86 17.8705C183.369 17.8596 183.845 17.8437 184.288 17.8227C188.541 17.6224 192.797 17.4729 197.054 17.374C198.053 17.3511 199.528 17.1894 200.435 17.2822C203.239 17.5663 205.131 19.8028 204.993 22.5979C204.99 22.6687 204.92 23.2276 204.784 24.2748C204.219 28.6469 203.653 33.0188 203.085 37.3904C202.991 38.1145 202.932 38.7831 202.679 39.4116C202.032 41.0161 200.897 42.0349 199.274 42.4679C198.863 42.5769 198.232 42.6522 197.381 42.6936C183.426 43.368 169.781 43.9324 155.497 44.6622C148.48 45.0219 141.451 45.2496 134.439 45.6705C133.67 45.7164 132.902 45.7543 132.133 45.7843C131.032 45.8264 129.343 45.9469 127.998 45.9067C125.663 45.8369 123.652 43.7267 123.454 41.4596C123.42 41.0591 123.466 40.4256 123.592 39.5589C123.877 37.6011 124.174 35.6443 124.481 33.6884C124.588 33.0035 124.704 32.1196 124.878 31.3391C124.905 31.2198 124.9 31.1031 124.863 30.989C124.852 30.9583 124.834 30.9338 124.806 30.9153C124.491 30.7029 124.133 30.5441 123.879 30.282C123.484 29.8752 123.222 29.4648 123.091 29.0509C122.181 26.1627 121.269 23.2751 120.354 20.3882C120.171 19.8098 120.076 19.3621 120.069 19.0452C120.038 17.6648 120.94 16.34 122.333 15.9392C122.749 15.8196 123.152 15.634 123.551 15.5336C123.834 15.4628 124.071 15.4063 124.371 15.2916C125.213 14.9721 126.094 14.995 127.013 15.3604C127.094 15.393 127.153 15.3697 127.19 15.2906C127.274 15.1108 127.309 14.8869 127.397 14.708C128.303 12.8513 128.921 11.1305 129.152 9.32635C129.252 8.53526 129.118 7.86279 128.861 7.00857C128.611 6.17507 128.362 5.26409 128.115 4.27563C127.666 2.48492 128.678 0.836745 130.395 0.403416C130.65 0.339007 130.907 0.330398 131.166 0.377589C132.511 0.623429 133.278 1.3906 134.136 2.52414C135.426 4.22685 136.079 6.12087 136.524 8.19568C136.529 8.221 136.541 8.24457 136.558 8.26423C136.575 8.28389 136.596 8.29903 136.62 8.30825C136.645 8.31747 136.671 8.3205 136.697 8.31704C136.723 8.31359 136.747 8.30376 136.768 8.28847C136.977 8.13669 137.183 8.01265 137.384 7.91636C138.726 7.27418 139.99 6.8265 141.175 6.57333C143.036 6.17635 144.695 6.93491 145.431 8.67779C145.675 9.25269 145.74 9.9376 145.75 10.5747C145.751 10.6198 145.764 10.6639 145.787 10.7023C145.811 10.7407 145.845 10.772 145.885 10.7928C147.223 11.4834 148.06 12.9862 147.683 14.5158C147.651 14.644 147.705 14.7696 147.843 14.8927C148.936 15.8617 149.233 17.3243 148.992 18.7094ZM130.778 9.51193C130.68 10.5865 130.436 11.6633 130.043 12.7423C129.944 12.8379 129.855 12.88 129.804 13.0178C129.549 13.7135 129.262 14.3965 128.942 15.0668C128.228 16.5676 128.79 18.1708 129.247 19.4833C129.408 19.9488 129.539 20.3464 129.641 20.6761C130.006 21.8661 130.325 22.837 130.634 23.9256C130.679 24.0863 130.751 24.2936 130.851 24.5474C131.034 25.0171 131.14 25.6197 131.312 25.9717C131.611 26.583 132.108 27.1445 132.853 27.111C133.564 27.0798 134.296 26.9799 135.049 26.8116C135.294 26.7561 135.75 26.7714 135.889 26.6958C135.918 26.6799 135.95 26.6713 135.983 26.67C136.487 26.6458 136.986 26.5817 137.482 26.4777C137.513 26.4714 137.539 26.4564 137.559 26.4328C137.651 26.3266 137.775 26.385 137.862 26.3716C139.145 26.1649 140.488 25.8853 141.892 25.5327C143.85 25.04 145.719 24.3915 147.4 23.3258C147.859 23.036 148.331 22.55 148.466 22.0354C148.535 21.7762 148.459 21.5026 148.439 21.2252C148.437 21.2035 148.426 21.1908 148.404 21.1869C148.385 21.1837 148.374 21.1745 148.369 21.1592C148.113 20.3308 147.686 20.0505 146.934 19.709C146.923 19.7043 146.914 19.6973 146.906 19.6886C146.898 19.6799 146.893 19.6696 146.889 19.6585C146.886 19.6474 146.885 19.6356 146.887 19.624C146.888 19.6125 146.892 19.6013 146.898 19.5914C147.129 19.2173 147.465 18.8204 147.505 18.3842C147.542 17.9709 147.514 17.5468 147.419 17.1119C147.184 16.0425 146.46 15.8062 145.428 15.6053C145.385 15.597 145.376 15.5747 145.4 15.5384C145.92 14.776 146.458 14.1724 146.124 13.2177C145.762 12.1836 144.854 12.0555 143.89 11.867C143.873 11.8639 143.858 11.8569 143.844 11.8468C143.831 11.8366 143.82 11.8235 143.812 11.8084C143.805 11.7933 143.801 11.7767 143.8 11.7598C143.8 11.743 143.804 11.7263 143.811 11.7111C144.429 10.4331 144.335 9.00016 143.046 8.18516C142.906 8.09651 142.749 8.04773 142.573 8.0388C141.664 7.99288 140.795 8.15582 139.965 8.52761C139.875 8.56779 139.783 8.60318 139.689 8.63379C139.233 8.7811 138.781 9.00494 138.336 9.18956C137.332 9.60471 136.389 10.1796 135.433 10.7009C135.416 10.71 135.397 10.7148 135.378 10.7149C135.359 10.7149 135.34 10.7102 135.323 10.7012C135.306 10.6922 135.292 10.6792 135.281 10.6633C135.271 10.6474 135.264 10.6291 135.262 10.6101C135.22 10.1547 135.17 9.69527 135.111 9.23165C134.798 6.74838 133.789 4.05466 131.921 2.35387C131.564 2.02864 131.272 1.94446 130.774 1.93394C130.2 1.92246 129.709 2.4811 129.641 3.02156C129.564 3.63186 129.632 4.22589 129.843 4.80366C130.001 5.23795 130.043 5.66554 130.176 6.06826C130.481 6.98657 130.718 7.88766 130.713 8.8251C130.712 9.05213 130.733 9.28107 130.778 9.51193ZM122.415 17.6715C122.168 17.8813 121.985 18.1083 121.865 18.3526L121.738 18.454C121.713 18.475 121.702 18.5015 121.707 18.5334C121.72 18.6144 121.695 18.6804 121.634 18.7314C121.611 18.7518 121.598 18.7776 121.597 18.8089C121.588 19.0538 121.616 19.2945 121.68 19.5311C121.73 19.7157 121.86 19.9482 121.923 20.2017C122.088 20.8617 122.312 21.6292 122.597 22.5041C122.84 23.2509 123.088 23.9954 123.344 24.7377C123.705 25.7928 124.008 26.8843 124.344 27.9576C124.674 29.0146 125.057 29.6861 126.243 29.6067C126.436 29.5933 126.807 29.5101 126.975 29.4441C127.45 29.2566 127.933 29.0898 128.423 28.9438C129.358 28.6645 129.974 28.3995 130.051 27.3903C130.081 27.0115 129.917 26.5878 129.79 26.2166C129.689 25.9245 129.603 25.635 129.531 25.348C129.414 24.8889 129.275 24.4364 129.114 23.9906C128.994 23.6578 128.91 23.3172 128.799 22.9786C128.753 22.8389 128.806 22.683 128.682 22.5606C128.656 22.5351 128.638 22.5051 128.627 22.4707L127.807 19.9051C127.798 19.8771 127.795 19.8484 127.799 19.819C127.806 19.7533 127.788 19.6979 127.744 19.6526C127.723 19.6309 127.708 19.6057 127.699 19.577L127.439 18.7352C127.43 18.7053 127.426 18.675 127.427 18.6444C127.432 18.5697 127.405 18.5082 127.349 18.4597C127.323 18.438 127.308 18.4109 127.303 18.3784C127.287 18.2828 127.247 18.1249 127.18 17.9049C126.969 17.2015 126.531 16.7711 125.869 16.6135C125.502 16.5255 125.006 16.7455 124.721 16.8039C124.675 16.8128 124.645 16.832 124.63 16.8613C124.617 16.8874 124.596 16.9034 124.567 16.9091C123.8 17.066 123.082 17.3201 122.415 17.6715ZM194.778 33.6425C194.784 33.6423 194.791 33.6399 194.796 33.6358C194.801 33.6317 194.805 33.626 194.806 33.6195L195.706 29.9855C195.707 29.9789 195.711 29.9729 195.716 29.9685C195.721 29.9642 195.728 29.9617 195.734 29.9615C195.741 29.9613 195.748 29.9633 195.753 29.9673C195.759 29.9713 195.763 29.9771 195.765 29.9836L196.861 33.5574C196.863 33.5643 196.867 33.5702 196.873 33.5743C196.879 33.5783 196.886 33.5801 196.894 33.5794L197.583 33.5229C197.589 33.5225 197.594 33.5209 197.598 33.518C197.602 33.5152 197.606 33.5113 197.608 33.5067L199.496 29.8325C199.498 29.8261 199.504 29.821 199.51 29.8179C199.516 29.8148 199.523 29.814 199.53 29.8156C199.537 29.8171 199.543 29.821 199.547 29.8265C199.552 29.832 199.554 29.8388 199.554 29.8459L199.631 33.4359C199.631 33.44 199.632 33.444 199.634 33.4478C199.636 33.4515 199.638 33.4548 199.641 33.4576C199.644 33.4604 199.648 33.4625 199.652 33.4639C199.656 33.4652 199.66 33.4658 199.664 33.4655L201.39 33.3852C201.395 33.3849 201.398 33.3839 201.402 33.3821C201.406 33.3804 201.409 33.3779 201.412 33.3749C201.414 33.3719 201.416 33.3683 201.418 33.3645C201.419 33.3607 201.419 33.3567 201.419 33.3527L201.104 26.7992C201.104 26.7912 201.1 26.7838 201.095 26.7784C201.089 26.773 201.081 26.7702 201.073 26.7705L199.358 26.8135C199.352 26.8135 199.347 26.8151 199.342 26.8179C199.337 26.8208 199.334 26.8249 199.331 26.8298L197.601 30.2926C197.599 30.2983 197.595 30.3031 197.589 30.3063C197.584 30.3094 197.577 30.3109 197.571 30.3103C197.565 30.3098 197.559 30.3074 197.554 30.3033C197.549 30.2993 197.546 30.2939 197.544 30.2878L196.597 26.9493C196.595 26.9424 196.591 26.9364 196.585 26.9322C196.58 26.928 196.573 26.9259 196.566 26.9264L194.86 27.0211C194.854 27.0214 194.848 27.0237 194.843 27.0277C194.838 27.0316 194.834 27.037 194.832 27.0431L193.036 33.6674C193.035 33.672 193.034 33.6768 193.035 33.6814C193.036 33.6861 193.039 33.6904 193.041 33.6942C193.044 33.6979 193.048 33.7008 193.053 33.7028C193.057 33.7048 193.062 33.7058 193.066 33.7056L194.778 33.6425ZM190.451 32.3339C190.443 32.3341 190.434 32.3324 190.426 32.3291C190.418 32.3258 190.411 32.3209 190.406 32.3146C190.4 32.3084 190.395 32.301 190.393 32.293C190.39 32.2849 190.389 32.2764 190.39 32.2679L190.486 31.2903C190.488 31.2758 190.494 31.2623 190.505 31.2523C190.516 31.2422 190.529 31.2364 190.544 31.2358L192.38 31.1812C192.394 31.1809 192.408 31.1752 192.419 31.1654C192.429 31.1555 192.436 31.1421 192.438 31.1277L192.592 29.7378C192.593 29.7291 192.592 29.7204 192.589 29.7122C192.587 29.7039 192.582 29.6964 192.576 29.69C192.57 29.6837 192.563 29.6786 192.555 29.6753C192.547 29.672 192.538 29.6705 192.53 29.6708L190.723 29.7397C190.714 29.74 190.706 29.7385 190.698 29.7352C190.69 29.7319 190.683 29.727 190.677 29.7208C190.671 29.7145 190.666 29.7071 190.664 29.699C190.661 29.6908 190.66 29.6822 190.661 29.6737L190.75 28.7353C190.751 28.7208 190.757 28.7073 190.768 28.6973C190.779 28.6872 190.792 28.6814 190.807 28.6807L192.755 28.5975C192.769 28.5969 192.783 28.5912 192.793 28.5814C192.804 28.5715 192.81 28.5583 192.812 28.5439L192.954 27.1741C192.955 27.1656 192.954 27.157 192.951 27.1488C192.949 27.1407 192.944 27.1333 192.938 27.127C192.932 27.1208 192.925 27.1159 192.917 27.1126C192.909 27.1093 192.901 27.1078 192.892 27.1081L189.18 27.244C189.165 27.2443 189.151 27.25 189.141 27.2598C189.13 27.2697 189.123 27.2831 189.121 27.2975L188.445 33.8539C188.444 33.8625 188.445 33.8712 188.448 33.8794C188.451 33.8876 188.456 33.8951 188.462 33.9014C188.468 33.9076 188.475 33.9125 188.483 33.9157C188.491 33.9189 188.5 33.9204 188.508 33.9199L192.226 33.7649C192.24 33.7643 192.254 33.7586 192.264 33.7488C192.275 33.739 192.281 33.7257 192.283 33.7114L192.425 32.3482C192.426 32.3396 192.426 32.3309 192.423 32.3227C192.42 32.3144 192.416 32.3069 192.41 32.3005C192.404 32.2941 192.397 32.2891 192.389 32.2858C192.381 32.2825 192.372 32.281 192.363 32.2813L190.451 32.3339ZM185.002 30.1873C184.999 30.1945 184.994 30.2004 184.987 30.2044C184.98 30.2085 184.973 30.2104 184.965 30.21C184.957 30.2096 184.949 30.2069 184.943 30.2021C184.937 30.1974 184.932 30.1909 184.93 30.1835L184.016 27.4429C184.013 27.4348 184.008 27.4278 184.001 27.4229C183.994 27.4181 183.986 27.4157 183.977 27.4162L182.068 27.4812C182.061 27.4814 182.055 27.4831 182.05 27.4861C182.044 27.4892 182.04 27.4935 182.036 27.4988C182.033 27.504 182.03 27.51 182.03 27.5163C182.029 27.5226 182.03 27.5289 182.032 27.5348L183.795 32.1732C183.797 32.1786 183.798 32.1845 183.798 32.1903C183.797 32.196 183.795 32.2017 183.792 32.2067L182.697 34.0615C182.693 34.0676 182.692 34.0745 182.692 34.0816C182.692 34.0887 182.693 34.0956 182.697 34.1017C182.701 34.1078 182.706 34.1128 182.712 34.1161C182.718 34.1195 182.725 34.1211 182.732 34.1208L184.542 34.0318C184.549 34.0315 184.556 34.0295 184.561 34.026C184.567 34.0225 184.572 34.0176 184.575 34.0117L188.223 27.3071C188.227 27.301 188.228 27.2942 188.228 27.2873C188.228 27.2803 188.226 27.2735 188.223 27.2676C188.219 27.2617 188.214 27.2568 188.208 27.2535C188.202 27.2502 188.195 27.2485 188.188 27.2487L186.365 27.3281C186.357 27.3283 186.35 27.3304 186.344 27.3343C186.338 27.3382 186.333 27.3437 186.33 27.3501L185.002 30.1873ZM180.484 32.7749L180.997 27.6696C181.004 27.595 180.97 27.5593 180.896 27.5625L175.993 27.7615C175.941 27.764 175.912 27.7914 175.907 27.8437C175.786 29.0634 175.713 30.3146 175.464 31.5084C175.294 32.3272 174.834 32.8664 174.086 33.1259C174.054 33.1368 174.036 33.1591 174.032 33.1929L173.767 35.8952C173.766 35.9072 173.768 35.9193 173.772 35.9306C173.776 35.942 173.782 35.9523 173.79 35.961C173.799 35.9696 173.809 35.9763 173.82 35.9807C173.831 35.985 173.843 35.9869 173.855 35.9861L175.301 35.9058C175.34 35.9038 175.362 35.8831 175.366 35.8436L175.503 34.5254C175.506 34.4962 175.519 34.4691 175.541 34.449C175.562 34.429 175.59 34.4174 175.619 34.4164L179.458 34.2662C179.491 34.2649 179.505 34.2805 179.502 34.3131L179.372 35.6905C179.371 35.6988 179.372 35.707 179.375 35.7148C179.378 35.7226 179.382 35.7297 179.388 35.7357C179.393 35.7416 179.4 35.7463 179.408 35.7494C179.415 35.7525 179.423 35.754 179.431 35.7537L180.925 35.6915C180.954 35.6902 180.97 35.6749 180.973 35.6456L181.259 32.882C181.263 32.8463 181.247 32.8285 181.212 32.8285H180.531C180.496 32.8285 180.48 32.8106 180.484 32.7749ZM171.615 31.8384C171.623 31.8382 171.631 31.8397 171.638 31.8427C171.645 31.8458 171.651 31.8503 171.657 31.856C171.662 31.8617 171.666 31.8684 171.668 31.8758C171.671 31.8832 171.671 31.891 171.671 31.8987L171.405 34.4422C171.404 34.4499 171.405 34.4577 171.407 34.4651C171.41 34.4724 171.414 34.4792 171.419 34.4849C171.424 34.4906 171.43 34.4951 171.438 34.4981C171.445 34.5012 171.452 34.5026 171.46 34.5025L173.15 34.4451C173.164 34.4447 173.176 34.4395 173.186 34.4305C173.196 34.4216 173.202 34.4094 173.203 34.3963L173.877 27.8227C173.878 27.8149 173.877 27.807 173.875 27.7996C173.872 27.7922 173.868 27.7854 173.863 27.7796C173.858 27.7739 173.851 27.7694 173.844 27.7664C173.837 27.7635 173.829 27.7621 173.821 27.7624L172.143 27.8409C172.13 27.8415 172.118 27.8467 172.108 27.8557C172.099 27.8646 172.093 27.8767 172.092 27.8896L171.831 30.2754C171.83 30.2883 171.824 30.3004 171.815 30.3093C171.805 30.3183 171.793 30.3235 171.78 30.3241L169.465 30.4016C169.457 30.4019 169.449 30.4006 169.442 30.3976C169.435 30.3946 169.428 30.3901 169.423 30.3844C169.417 30.3787 169.413 30.3719 169.411 30.3645C169.408 30.357 169.408 30.3491 169.408 30.3414L169.642 27.9997C169.642 27.9919 169.641 27.9842 169.639 27.9769C169.636 27.9695 169.632 27.9629 169.627 27.9572C169.622 27.9516 169.615 27.9472 169.608 27.9443C169.601 27.9414 169.593 27.94 169.585 27.9404L167.908 28.0092C167.895 28.0098 167.883 28.0151 167.874 28.024C167.864 28.033 167.858 28.045 167.857 28.058L167.187 34.6172C167.186 34.625 167.187 34.6327 167.19 34.64C167.193 34.6474 167.197 34.654 167.202 34.6597C167.207 34.6653 167.214 34.6697 167.221 34.6726C167.228 34.6755 167.236 34.6769 167.244 34.6766L168.916 34.6106C168.929 34.6099 168.941 34.6047 168.951 34.5957C168.96 34.5868 168.966 34.5747 168.967 34.5618L169.237 31.9675C169.239 31.9544 169.245 31.9422 169.254 31.9333C169.264 31.9243 169.277 31.9191 169.29 31.9187L171.615 31.8384ZM164.222 32.2555C164.223 32.2453 164.227 32.2358 164.235 32.2288C164.242 32.2217 164.252 32.2176 164.262 32.2172L166.151 32.1455C166.161 32.1451 166.171 32.1411 166.178 32.1342C166.186 32.1274 166.19 32.1181 166.191 32.1081L166.332 30.6848C166.333 30.6788 166.332 30.6729 166.33 30.6672C166.328 30.6616 166.325 30.6565 166.321 30.6521C166.317 30.6478 166.312 30.6444 166.306 30.6421C166.301 30.6398 166.295 30.6387 166.289 30.6388L164.444 30.7068C164.438 30.7069 164.432 30.7058 164.426 30.7035C164.421 30.7012 164.416 30.6978 164.412 30.6935C164.408 30.6891 164.405 30.684 164.403 30.6784C164.401 30.6727 164.4 30.6668 164.401 30.6608L164.497 29.6871C164.498 29.6771 164.503 29.6678 164.51 29.661C164.518 29.6541 164.527 29.6501 164.537 29.6497L166.517 29.5761C166.527 29.5757 166.536 29.5717 166.544 29.5649C166.551 29.558 166.556 29.5488 166.557 29.5388L166.709 28.1221C166.71 28.116 166.709 28.1099 166.707 28.104C166.705 28.0982 166.702 28.0929 166.698 28.0885C166.694 28.084 166.688 28.0805 166.683 28.0782C166.677 28.0759 166.671 28.0749 166.665 28.0752L162.905 28.2139C162.895 28.2143 162.885 28.2183 162.878 28.2251C162.87 28.232 162.866 28.2412 162.864 28.2512L162.192 34.842C162.191 34.848 162.192 34.8541 162.194 34.8598C162.196 34.8655 162.199 34.8707 162.203 34.875C162.208 34.8794 162.213 34.8828 162.218 34.885C162.224 34.8873 162.23 34.8883 162.236 34.888L165.984 34.7464C165.994 34.746 166.003 34.742 166.011 34.7352C166.018 34.7283 166.023 34.7191 166.024 34.7091L166.174 33.2924C166.175 33.2865 166.174 33.2805 166.172 33.2749C166.17 33.2692 166.167 33.2641 166.163 33.2598C166.159 33.2554 166.154 33.252 166.148 33.2497C166.143 33.2474 166.137 33.2463 166.131 33.2465L164.183 33.3048C164.177 33.305 164.171 33.3039 164.165 33.3016C164.16 33.2993 164.155 33.2959 164.151 33.2915C164.147 33.2872 164.144 33.282 164.142 33.2764C164.14 33.2708 164.139 33.2648 164.14 33.2589L164.222 32.2555ZM155.379 31.5619L156.474 35.1491C156.486 35.1874 156.511 35.2049 156.551 35.2017L157.149 35.1539C157.197 35.1501 157.231 35.1268 157.253 35.0841L159.127 31.4357C159.129 31.4305 159.133 31.4262 159.138 31.4237C159.143 31.4211 159.149 31.4204 159.154 31.4217C159.16 31.4229 159.165 31.4261 159.168 31.4306C159.172 31.435 159.173 31.4406 159.173 31.4462L159.263 35.0362C159.264 35.0662 159.279 35.0805 159.309 35.0793L160.973 35.0104C160.992 35.0094 161.01 35.0009 161.023 34.9868C161.036 34.9726 161.043 34.954 161.042 34.9348L160.726 28.4492C160.725 28.4078 160.703 28.3874 160.661 28.388L159.069 28.4292C159.037 28.4298 159.006 28.4391 158.979 28.4561C158.952 28.4732 158.931 28.4972 158.917 28.5258L157.239 31.892C157.208 31.9545 157.182 31.9522 157.163 31.8853L156.244 28.6463C156.235 28.6157 156.216 28.5889 156.19 28.5704C156.164 28.552 156.132 28.543 156.1 28.5449L154.511 28.6329C154.479 28.6348 154.459 28.6511 154.45 28.6817L152.676 35.2515C152.674 35.2603 152.673 35.2695 152.675 35.2785C152.677 35.2875 152.681 35.2959 152.687 35.303C152.692 35.3102 152.699 35.3159 152.708 35.3198C152.716 35.3236 152.725 35.3254 152.734 35.3251L154.316 35.2668C154.348 35.2654 154.379 35.2537 154.403 35.2335C154.428 35.2133 154.445 35.1857 154.452 35.1548L155.344 31.5629C155.355 31.5189 155.366 31.5186 155.379 31.5619ZM151.723 30.085C151.246 29.339 150.444 28.8443 149.492 28.7095C148.541 28.5748 147.519 28.8111 146.65 29.3665C146.22 29.6414 145.841 29.9865 145.534 30.3819C145.227 30.7773 144.999 31.2153 144.862 31.6709C144.725 32.1265 144.682 32.5908 144.736 33.0372C144.789 33.4837 144.938 33.9036 145.175 34.2729C145.652 35.0188 146.454 35.5136 147.405 35.6483C148.357 35.7831 149.379 35.5468 150.247 34.9914C150.677 34.7164 151.057 34.3714 151.364 33.976C151.67 33.5806 151.899 33.1426 152.036 32.687C152.173 32.2314 152.216 31.7671 152.162 31.3206C152.108 30.8742 151.959 30.4543 151.723 30.085ZM140.442 31.7447C140.439 31.7483 140.435 31.7509 140.431 31.752C140.426 31.7531 140.422 31.7527 140.417 31.7509C140.413 31.749 140.41 31.7458 140.407 31.7417C140.405 31.7377 140.404 31.733 140.405 31.7284L140.654 29.1753C140.657 29.1402 140.641 29.1233 140.606 29.1246L138.949 29.1782C138.903 29.1794 138.878 29.2033 138.874 29.2499L138.207 35.8034C138.206 35.8116 138.207 35.8198 138.21 35.8276C138.212 35.8353 138.217 35.8425 138.222 35.8484C138.228 35.8544 138.235 35.8591 138.243 35.8623C138.25 35.8654 138.259 35.8668 138.267 35.8665L139.884 35.8063C139.944 35.8044 139.977 35.7737 139.983 35.7144C140.079 34.8829 140.163 34.0321 140.237 33.1623C140.241 33.1106 140.241 33.0698 140.237 33.0399C140.236 33.0322 140.237 33.0244 140.241 33.0177C140.245 33.011 140.251 33.0058 140.258 33.0029C140.265 33 140.273 32.9997 140.28 33.0019C140.288 33.004 140.294 33.0087 140.299 33.015L142.149 35.6312C142.185 35.6822 142.234 35.7065 142.296 35.7039L144.431 35.6217C144.438 35.6215 144.444 35.6195 144.449 35.6159C144.455 35.6124 144.459 35.6074 144.462 35.6015C144.464 35.5956 144.466 35.589 144.465 35.5824C144.464 35.5759 144.462 35.5696 144.458 35.5643L141.989 32.2698C141.966 32.2392 141.967 32.2099 141.993 32.1818L144.857 29.05C144.865 29.0409 144.87 29.0296 144.872 29.0176C144.874 29.0055 144.872 28.9932 144.867 28.9823C144.861 28.9713 144.853 28.962 144.843 28.9557C144.832 28.9494 144.82 28.9462 144.808 28.9467L142.778 29.049C142.746 29.0509 142.72 29.064 142.699 29.0882L140.442 31.7447ZM135.191 34.4958C135.186 34.4959 135.181 34.4951 135.177 34.4933C135.173 34.4915 135.169 34.4888 135.165 34.4853C135.162 34.4819 135.16 34.4778 135.158 34.4733C135.156 34.4689 135.156 34.4641 135.156 34.4594L135.247 33.434C135.248 33.4257 135.252 33.4181 135.258 33.4124C135.264 33.4068 135.271 33.4036 135.28 33.4034L137.169 33.3402C137.177 33.3398 137.184 33.3366 137.19 33.3312C137.196 33.3258 137.2 33.3184 137.2 33.3106L137.352 31.8671C137.352 31.8623 137.352 31.8574 137.35 31.8529C137.349 31.8483 137.346 31.8441 137.343 31.8405C137.34 31.837 137.336 31.8342 137.331 31.8323C137.327 31.8305 137.322 31.8296 137.317 31.8298L135.459 31.892C135.454 31.8921 135.449 31.8913 135.445 31.8895C135.44 31.8877 135.436 31.885 135.433 31.8815C135.43 31.8781 135.427 31.874 135.426 31.8695C135.424 31.8651 135.424 31.8603 135.424 31.8556L135.509 30.8742C135.51 30.866 135.514 30.8583 135.52 30.8526C135.526 30.847 135.534 30.8438 135.542 30.8436L137.545 30.7709C137.553 30.7705 137.56 30.7673 137.566 30.7618C137.572 30.7564 137.576 30.7491 137.576 30.7412L137.724 29.2949C137.724 29.2901 137.724 29.2854 137.722 29.2809C137.72 29.2765 137.718 29.2724 137.715 29.2689C137.711 29.2655 137.707 29.2628 137.703 29.261C137.699 29.2592 137.694 29.2584 137.689 29.2585L133.918 29.4039C133.91 29.4043 133.902 29.4075 133.896 29.4129C133.89 29.4184 133.887 29.4257 133.886 29.4336L133.21 36.0406C133.209 36.0453 133.21 36.0501 133.211 36.0546C133.213 36.059 133.215 36.0631 133.219 36.0665C133.222 36.07 133.226 36.0727 133.23 36.0745C133.235 36.0763 133.239 36.0771 133.244 36.077L137.011 35.9325C137.019 35.9321 137.027 35.9289 137.032 35.9235C137.038 35.9181 137.042 35.9108 137.043 35.9029L137.188 34.4738C137.189 34.469 137.188 34.4641 137.187 34.4595C137.185 34.455 137.183 34.4507 137.179 34.4472C137.176 34.4437 137.172 34.4409 137.168 34.439C137.163 34.4372 137.158 34.4363 137.154 34.4365L135.191 34.4958ZM129.193 34.0385C130.727 33.9763 132.055 33.9295 132.574 32.2497C133.011 30.8388 132.382 29.4326 130.717 29.5139C129.779 29.5592 128.849 29.5917 127.928 29.6115C127.895 29.6123 127.863 29.6252 127.839 29.6479C127.814 29.6706 127.799 29.7016 127.795 29.7349L127.15 36.1736C127.141 36.2514 127.176 36.289 127.254 36.2865L128.814 36.2406C128.839 36.24 128.863 36.2305 128.881 36.2138C128.9 36.197 128.911 36.1742 128.914 36.1497L129.137 34.0911C129.14 34.0573 129.159 34.0398 129.193 34.0385Z" fill="url(#paint0_linear_170_41)"/>
<path d="M130.043 12.7423C129.772 13.505 129.469 14.2592 129.135 15.0053C128.594 16.2134 128.67 17.1557 129.081 18.4614C129.845 20.8892 130.61 23.3163 131.376 25.7428C131.544 26.2766 132.225 27.0734 132.876 26.9921C135.53 26.6612 138.191 26.2565 141.294 25.5372C142.839 25.1794 147.959 23.7867 148.334 21.9826C148.384 21.7434 148.37 21.5001 148.292 21.2527C148.018 20.3793 147.499 20.1718 146.742 19.7901C146.73 19.7838 146.719 19.775 146.71 19.7643C146.701 19.7535 146.695 19.741 146.691 19.7275C146.687 19.7141 146.686 19.7 146.688 19.6863C146.69 19.6725 146.695 19.6593 146.703 19.6476C146.946 19.2668 147.295 18.8402 147.361 18.3944C147.473 17.6301 147.356 16.5942 146.638 16.1436C146.313 15.9399 145.722 15.8308 145.302 15.6892C145.209 15.6574 145.191 15.6016 145.247 15.5218C145.729 14.8408 146.337 14.1606 146.002 13.2662C145.618 12.2446 144.676 12.1767 143.755 11.972C143.678 11.9548 143.651 11.9082 143.672 11.8323C143.789 11.4067 144.002 10.9896 144.04 10.5716C144.121 9.68482 143.853 8.86408 143.059 8.38675C141.504 7.45122 136.837 10.034 135.38 10.9035C135.272 10.9685 135.203 10.9398 135.173 10.8174C135.077 10.4176 135.052 9.84648 135.016 9.55472C134.752 7.41391 134.129 5.42423 132.917 3.68422C132.46 3.02897 131.31 1.56445 130.304 2.24266C129.504 2.78217 129.721 3.72344 129.929 4.51931C130.152 5.37003 130.384 6.21787 130.627 7.06285C130.853 7.85393 130.814 8.69501 130.778 9.51193C130.733 9.28107 130.712 9.05213 130.713 8.8251C130.718 7.88766 130.481 6.98657 130.176 6.06826C130.043 5.66554 130.001 5.23795 129.843 4.80366C129.632 4.22589 129.564 3.63186 129.641 3.02156C129.709 2.4811 130.2 1.92246 130.774 1.93394C131.272 1.94446 131.564 2.02864 131.921 2.35387C133.789 4.05466 134.798 6.74838 135.111 9.23165C135.17 9.69527 135.22 10.1547 135.262 10.6101C135.264 10.6291 135.271 10.6474 135.281 10.6633C135.292 10.6792 135.306 10.6922 135.323 10.7012C135.34 10.7102 135.359 10.7149 135.378 10.7149C135.397 10.7148 135.416 10.71 135.433 10.7009C136.389 10.1796 137.332 9.60471 138.336 9.18956C138.781 9.00494 139.233 8.7811 139.689 8.63379C139.783 8.60318 139.875 8.56779 139.965 8.52761C140.795 8.15582 141.664 7.99288 142.573 8.0388C142.749 8.04773 142.906 8.09651 143.046 8.18516C144.335 9.00016 144.429 10.4331 143.811 11.7111C143.804 11.7263 143.8 11.743 143.8 11.7598C143.801 11.7767 143.805 11.7933 143.812 11.8084C143.82 11.8235 143.831 11.8366 143.844 11.8468C143.858 11.8569 143.873 11.8639 143.89 11.867C144.854 12.0555 145.762 12.1836 146.124 13.2177C146.458 14.1724 145.92 14.776 145.4 15.5384C145.376 15.5747 145.385 15.597 145.428 15.6053C146.46 15.8062 147.184 16.0425 147.419 17.1119C147.514 17.5468 147.542 17.9709 147.505 18.3842C147.465 18.8204 147.129 19.2173 146.898 19.5914C146.892 19.6013 146.888 19.6125 146.887 19.624C146.885 19.6356 146.886 19.6474 146.889 19.6585C146.893 19.6696 146.898 19.6799 146.906 19.6886C146.914 19.6973 146.923 19.7043 146.934 19.709C147.686 20.0505 148.113 20.3308 148.369 21.1592C148.374 21.1745 148.385 21.1837 148.404 21.1869C148.426 21.1908 148.437 21.2035 148.439 21.2252C148.459 21.5026 148.535 21.7762 148.466 22.0354C148.331 22.55 147.859 23.036 147.4 23.3258C145.719 24.3915 143.85 25.04 141.892 25.5327C140.488 25.8853 139.145 26.1649 137.862 26.3716C137.775 26.385 137.651 26.3266 137.559 26.4328C137.539 26.4564 137.513 26.4714 137.482 26.4777C136.986 26.5817 136.487 26.6458 135.983 26.67C135.95 26.6713 135.918 26.6799 135.889 26.6958C135.75 26.7714 135.294 26.7561 135.049 26.8116C134.296 26.9799 133.564 27.0798 132.853 27.111C132.108 27.1445 131.611 26.583 131.312 25.9717C131.14 25.6197 131.034 25.0171 130.851 24.5474C130.751 24.2936 130.679 24.0863 130.634 23.9256C130.325 22.837 130.006 21.8661 129.641 20.6761C129.539 20.3464 129.408 19.9488 129.247 19.4833C128.79 18.1708 128.228 16.5676 128.942 15.0668C129.262 14.3965 129.549 13.7135 129.804 13.0178C129.855 12.88 129.944 12.8379 130.043 12.7423Z" fill="url(#paint1_linear_170_41)"/>
<path d="M177.258 31.346C177.404 30.3655 177.49 29.6624 177.501 29.1306C177.502 29.0999 177.517 29.084 177.548 29.0827L179.022 29.0206C179.053 29.0193 179.067 29.0343 179.064 29.0655L178.677 32.8698C178.673 32.9119 178.65 32.9339 178.607 32.9358L176.492 33.0066C176.446 33.0079 176.438 32.991 176.467 32.9559C176.914 32.4247 177.178 31.888 177.258 31.346Z" fill="url(#paint2_linear_170_41)"/>
<path d="M149.431 33.5424C150.304 32.9129 150.571 31.7926 150.029 31.0402C149.486 30.2878 148.338 30.1881 147.466 30.8176C146.593 31.4471 146.325 32.5674 146.868 33.3198C147.41 34.0722 148.558 34.1719 149.431 33.5424Z" fill="url(#paint3_linear_170_41)"/>
<path d="M129.51 30.998C129.826 30.9674 130.688 30.8899 130.8 31.3414C131.081 32.4577 130.121 32.583 129.329 32.5792C129.303 32.5792 129.291 32.5665 129.294 32.541L129.455 31.0525C129.458 31.0194 129.477 31.0012 129.51 30.998Z" fill="url(#paint4_linear_170_41)"/>
<path d="M130.044 12.741C130.437 11.6619 130.681 10.5852 130.779 9.5106C130.815 8.69369 130.854 7.85286 130.628 7.06177C130.386 6.21679 130.153 5.36895 129.93 4.51823C129.722 3.72236 129.505 2.78109 130.305 2.24159C131.311 1.56337 132.461 3.02789 132.918 3.68315C134.13 5.42316 134.753 7.41283 135.017 9.55365C135.053 9.8454 135.078 10.4165 135.174 10.8163C135.204 10.9388 135.273 10.9675 135.381 10.9024C136.838 10.0329 141.505 7.45014 143.06 8.38567C143.854 8.863 144.122 9.68374 144.041 10.5705C144.003 10.9885 143.79 11.4056 143.673 11.8313C143.652 11.9071 143.679 11.9537 143.756 11.9709C144.677 12.1756 145.619 12.2435 146.003 13.2652C146.338 14.1596 145.73 14.8397 145.248 15.5208C145.192 15.6005 145.21 15.6563 145.303 15.6882C145.724 15.8297 146.314 15.9388 146.639 16.1425C147.357 16.5931 147.474 17.6291 147.362 18.3934C147.296 18.8391 146.947 19.2658 146.704 19.6465C146.697 19.6582 146.692 19.6714 146.689 19.6852C146.687 19.699 146.688 19.713 146.692 19.7265C146.696 19.7399 146.702 19.7524 146.711 19.7632C146.72 19.774 146.731 19.7828 146.743 19.789C147.5 20.1707 148.019 20.3783 148.293 21.2516C148.371 21.499 148.385 21.7423 148.335 21.9815C147.96 23.7856 142.84 25.1783 141.296 25.5361C138.192 26.2554 135.531 26.6601 132.877 26.9911C132.226 27.0724 131.545 26.2755 131.377 25.7418C130.611 23.3153 129.846 20.8881 129.082 18.4603C128.671 17.1546 128.595 16.2124 129.137 15.0042C129.47 14.2581 129.773 13.5037 130.044 12.741Z" fill="white"/>
<path d="M190.452 32.3352L192.364 32.2826C192.372 32.2822 192.381 32.2838 192.389 32.2871C192.397 32.2904 192.404 32.2954 192.41 32.3018C192.416 32.3081 192.421 32.3157 192.423 32.3239C192.426 32.3322 192.427 32.3409 192.426 32.3495L192.283 33.7127C192.282 33.727 192.275 33.7402 192.265 33.7501C192.254 33.7599 192.24 33.7656 192.226 33.7662L188.509 33.9212C188.5 33.9216 188.491 33.9202 188.483 33.917C188.475 33.9138 188.468 33.9089 188.462 33.9027C188.456 33.8964 188.451 33.8889 188.449 33.8807C188.446 33.8725 188.445 33.8638 188.446 33.8552L189.122 27.2988C189.124 27.2843 189.13 27.2709 189.141 27.2611C189.152 27.2513 189.166 27.2456 189.18 27.2452L192.893 27.1094C192.901 27.1091 192.91 27.1106 192.918 27.1139C192.926 27.1171 192.933 27.1221 192.939 27.1283C192.945 27.1346 192.949 27.142 192.952 27.1501C192.955 27.1582 192.956 27.1669 192.955 27.1754L192.812 28.5452C192.811 28.5595 192.804 28.5728 192.794 28.5826C192.783 28.5925 192.769 28.5982 192.755 28.5988L190.807 28.682C190.793 28.6827 190.779 28.6885 190.768 28.6985C190.758 28.7086 190.751 28.7221 190.75 28.7365L190.661 29.6749C190.66 29.6835 190.661 29.6921 190.664 29.7002C190.667 29.7084 190.671 29.7158 190.677 29.722C190.683 29.7283 190.69 29.7332 190.698 29.7365C190.706 29.7397 190.715 29.7413 190.723 29.741L192.53 29.6721C192.539 29.6717 192.547 29.6733 192.555 29.6766C192.564 29.6799 192.571 29.6849 192.577 29.6913C192.583 29.6976 192.587 29.7052 192.59 29.7134C192.592 29.7217 192.593 29.7304 192.592 29.739L192.438 31.1289C192.437 31.1434 192.43 31.1568 192.419 31.1667C192.408 31.1765 192.395 31.1821 192.38 31.1825L190.544 31.237C190.53 31.2377 190.516 31.2435 190.505 31.2536C190.495 31.2636 190.488 31.2771 190.487 31.2916L190.39 32.2692C190.39 32.2776 190.39 32.2862 190.393 32.2942C190.396 32.3023 190.4 32.3097 190.406 32.3159C190.412 32.3221 190.419 32.3271 190.427 32.3304C190.435 32.3337 190.443 32.3354 190.452 32.3352Z" fill="white"/>
<path d="M121.865 18.3514C121.719 18.7219 121.689 19.0436 121.775 19.3166C122.7 22.2335 123.627 25.1494 124.556 28.0644C124.957 29.3242 125.525 29.7222 126.854 29.3185C127.893 29.0035 128.588 28.7819 128.939 28.6537C129.789 28.3428 130.059 27.5718 129.817 26.7444C129.012 23.9904 128.108 21.2584 127.237 18.5236C127.049 17.9318 126.944 17.6164 126.925 17.5775C126.696 17.1346 125.99 16.6238 125.484 16.7462C124.991 16.8655 123.968 17.1735 122.415 17.6703C123.083 17.3189 123.8 17.0648 124.567 16.9079C124.596 16.9022 124.617 16.8862 124.631 16.8601C124.645 16.8307 124.676 16.8116 124.722 16.8027C125.007 16.7443 125.502 16.5243 125.869 16.6123C126.532 16.7698 126.969 17.2003 127.181 17.9037C127.247 18.1237 127.288 18.2815 127.303 18.3772C127.308 18.4097 127.324 18.4368 127.349 18.4585C127.406 18.507 127.432 18.5685 127.428 18.6431C127.426 18.6737 127.43 18.704 127.439 18.734L127.699 19.5758C127.708 19.6045 127.723 19.6297 127.744 19.6514C127.788 19.6966 127.807 19.7521 127.8 19.8178C127.796 19.8471 127.798 19.8758 127.807 19.9039L128.627 22.4694C128.638 22.5039 128.657 22.5338 128.683 22.5593C128.806 22.6818 128.753 22.8377 128.799 22.9774C128.91 23.316 128.995 23.6565 129.114 23.9894C129.275 24.4352 129.414 24.8876 129.531 25.3468C129.603 25.6338 129.69 25.9233 129.79 26.2154C129.918 26.5865 130.081 27.0103 130.052 27.3891C129.975 28.3983 129.358 28.6632 128.423 28.9426C127.934 29.0886 127.451 29.2554 126.975 29.4429C126.808 29.5089 126.437 29.5921 126.243 29.6055C125.057 29.6849 124.675 29.0134 124.345 27.9563C124.009 26.8831 123.706 25.7916 123.344 24.7365C123.089 23.9942 122.84 23.2497 122.598 22.5029C122.313 21.628 122.088 20.8605 121.924 20.2004C121.86 19.9469 121.73 19.7145 121.681 19.5299C121.616 19.2933 121.588 19.0525 121.597 18.8077C121.599 18.7764 121.611 18.7506 121.635 18.7302C121.696 18.6792 121.72 18.6132 121.707 18.5322C121.703 18.5003 121.713 18.4738 121.739 18.4528L121.865 18.3514Z" fill="white"/>
<path d="M121.866 18.3521C121.986 18.1078 122.17 17.8808 122.416 17.671C123.969 17.1742 124.992 16.8662 125.485 16.747C125.991 16.6245 126.697 17.1353 126.926 17.5782C126.945 17.6171 127.05 17.9325 127.238 18.5243C128.109 21.2591 129.013 23.9911 129.818 26.7451C130.06 27.5725 129.791 28.3435 128.94 28.6544C128.589 28.7826 127.894 29.0042 126.855 29.3192C125.526 29.7229 124.958 29.325 124.557 28.0652C123.628 25.1502 122.701 22.2342 121.776 19.3173C121.69 19.0443 121.72 18.7226 121.866 18.3521Z" fill="white"/>
<path d="M148.99 18.7109C148.992 18.857 149.069 18.9772 149.221 19.0716C149.129 19.2125 149.033 19.1886 148.933 18.9998C148.856 18.8538 148.875 18.7575 148.99 18.7109Z" fill="#EC4871"/>
<path d="M194.776 33.6435L193.065 33.7067C193.06 33.7068 193.055 33.7059 193.051 33.7039C193.047 33.7019 193.043 33.6989 193.04 33.6952C193.037 33.6915 193.035 33.6871 193.034 33.6825C193.033 33.6778 193.033 33.673 193.034 33.6684L194.831 27.0441C194.832 27.038 194.836 27.0326 194.841 27.0287C194.846 27.0248 194.852 27.0225 194.858 27.0221L196.564 26.9274C196.571 26.927 196.578 26.929 196.584 26.9332C196.59 26.9374 196.594 26.9435 196.596 26.9504L197.543 30.2888C197.544 30.2949 197.548 30.3003 197.552 30.3044C197.557 30.3084 197.563 30.3109 197.57 30.3114C197.576 30.3119 197.582 30.3105 197.588 30.3073C197.593 30.3041 197.597 30.2993 197.6 30.2936L199.329 26.8308C199.332 26.8259 199.336 26.8219 199.341 26.819C199.345 26.8161 199.351 26.8146 199.356 26.8145L201.071 26.7715C201.079 26.7712 201.087 26.7741 201.093 26.7794C201.099 26.7848 201.102 26.7922 201.103 26.8002L201.418 33.3537C201.418 33.3577 201.417 33.3617 201.416 33.3656C201.415 33.3694 201.413 33.3729 201.41 33.3759C201.407 33.3789 201.404 33.3814 201.4 33.3832C201.397 33.3849 201.393 33.386 201.389 33.3862L199.662 33.4666C199.658 33.4668 199.654 33.4663 199.65 33.4649C199.646 33.4635 199.643 33.4614 199.64 33.4586C199.637 33.4559 199.634 33.4525 199.633 33.4488C199.631 33.4451 199.63 33.441 199.63 33.4369L199.552 29.8469C199.552 29.8399 199.55 29.8331 199.546 29.8275C199.541 29.822 199.535 29.8182 199.529 29.8166C199.522 29.815 199.515 29.8159 199.508 29.8189C199.502 29.822 199.497 29.8271 199.494 29.8335L197.607 33.5077C197.604 33.5123 197.601 33.5162 197.596 33.5191C197.592 33.5219 197.587 33.5236 197.582 33.524L196.892 33.5804C196.885 33.5811 196.878 33.5793 196.872 33.5753C196.866 33.5713 196.862 33.5653 196.86 33.5584L195.763 29.9846C195.761 29.9781 195.757 29.9724 195.752 29.9684C195.746 29.9644 195.74 29.9623 195.733 29.9625C195.726 29.9627 195.72 29.9652 195.714 29.9696C195.709 29.9739 195.705 29.9799 195.704 29.9865L194.805 33.6206C194.803 33.627 194.799 33.6327 194.794 33.6368C194.789 33.641 194.783 33.6433 194.776 33.6435Z" fill="white"/>
<path d="M185.004 30.1847L186.332 27.3475C186.335 27.341 186.34 27.3355 186.346 27.3317C186.352 27.3278 186.359 27.3257 186.366 27.3255L188.19 27.2461C188.196 27.2459 188.203 27.2475 188.209 27.2509C188.216 27.2542 188.221 27.259 188.224 27.265C188.228 27.2709 188.23 27.2777 188.23 27.2846C188.23 27.2916 188.228 27.2984 188.225 27.3045L184.577 34.0091C184.573 34.0149 184.569 34.0199 184.563 34.0234C184.557 34.0269 184.551 34.0289 184.544 34.0292L182.734 34.1181C182.727 34.1185 182.72 34.1169 182.714 34.1135C182.708 34.1101 182.702 34.1051 182.699 34.0991C182.695 34.093 182.693 34.086 182.693 34.0789C182.693 34.0719 182.695 34.0649 182.699 34.0588L183.794 32.204C183.797 32.199 183.799 32.1934 183.799 32.1876C183.8 32.1818 183.799 32.176 183.797 32.1706L182.034 27.5321C182.032 27.5263 182.031 27.5199 182.031 27.5137C182.032 27.5074 182.034 27.5014 182.038 27.4961C182.041 27.4909 182.046 27.4865 182.051 27.4835C182.057 27.4804 182.063 27.4787 182.069 27.4786L183.979 27.4135C183.987 27.4131 183.996 27.4155 184.003 27.4203C184.01 27.4251 184.015 27.4322 184.018 27.4403L184.931 30.1809C184.934 30.1883 184.939 30.1948 184.945 30.1995C184.951 30.2042 184.959 30.207 184.966 30.2074C184.974 30.2078 184.982 30.2059 184.989 30.2018C184.995 30.1978 185.001 30.1918 185.004 30.1847Z" fill="white"/>
<path d="M180.53 32.8286H181.21C181.246 32.8286 181.262 32.8465 181.258 32.8822L180.972 35.6458C180.969 35.6751 180.952 35.6904 180.923 35.6917L179.43 35.7538C179.422 35.7542 179.414 35.7527 179.406 35.7496C179.399 35.7465 179.392 35.7418 179.386 35.7359C179.381 35.7299 179.376 35.7228 179.374 35.715C179.371 35.7072 179.37 35.6989 179.371 35.6907L179.501 34.3132C179.504 34.2807 179.489 34.2651 179.457 34.2664L175.618 34.4166C175.589 34.4176 175.561 34.4292 175.539 34.4492C175.518 34.4693 175.504 34.4964 175.501 34.5256L175.364 35.8438C175.361 35.8833 175.339 35.904 175.299 35.9059L173.853 35.9863C173.841 35.9871 173.829 35.9852 173.818 35.9809C173.807 35.9765 173.797 35.9698 173.789 35.9612C173.781 35.9525 173.774 35.9422 173.77 35.9308C173.766 35.9195 173.765 35.9074 173.766 35.8954L174.031 33.1931C174.035 33.1593 174.053 33.137 174.085 33.1261C174.833 32.8666 175.292 32.3274 175.463 31.5086C175.712 30.3148 175.784 29.0636 175.906 27.8439C175.911 27.7916 175.94 27.7642 175.992 27.7617L180.894 27.5627C180.969 27.5595 181.003 27.5952 180.996 27.6698L180.482 32.7751C180.478 32.8108 180.494 32.8286 180.53 32.8286ZM177.5 29.1305C177.488 29.6624 177.402 30.3655 177.257 31.3459C177.176 31.888 176.912 32.4246 176.465 32.9559C176.436 32.9909 176.444 33.0078 176.49 33.0066L178.605 32.9358C178.648 32.9339 178.671 32.9119 178.675 32.8698L179.063 29.0655C179.066 29.0342 179.052 29.0192 179.02 29.0205L177.546 29.0827C177.516 29.084 177.5 29.0999 177.5 29.1305Z" fill="white"/>
<path d="M171.614 31.8397L169.288 31.92C169.275 31.9204 169.263 31.9256 169.253 31.9346C169.243 31.9435 169.237 31.9557 169.236 31.9688L168.966 34.5631C168.965 34.576 168.959 34.5881 168.949 34.597C168.94 34.606 168.927 34.6112 168.914 34.6118L167.242 34.6778C167.234 34.6781 167.227 34.6768 167.22 34.6739C167.212 34.671 167.206 34.6666 167.201 34.6609C167.195 34.6553 167.191 34.6487 167.189 34.6413C167.186 34.634 167.185 34.6263 167.186 34.6185L167.855 28.0593C167.857 28.0463 167.863 28.0343 167.872 28.0253C167.882 28.0164 167.894 28.0111 167.907 28.0105L169.584 27.9416C169.592 27.9413 169.599 27.9427 169.607 27.9456C169.614 27.9485 169.62 27.9529 169.626 27.9585C169.631 27.9641 169.635 27.9708 169.637 27.9781C169.64 27.9855 169.641 27.9932 169.64 28.0009L169.407 30.3426C169.406 30.3504 169.407 30.3583 169.409 30.3657C169.412 30.3732 169.416 30.38 169.421 30.3857C169.427 30.3914 169.433 30.3959 169.44 30.3989C169.448 30.4019 169.456 30.4032 169.463 30.4029L171.778 30.3254C171.791 30.3248 171.804 30.3196 171.813 30.3106C171.823 30.3017 171.829 30.2896 171.83 30.2766L172.09 27.8909C172.091 27.878 172.097 27.8659 172.107 27.857C172.116 27.848 172.129 27.8428 172.142 27.8422L173.82 27.7637C173.827 27.7634 173.835 27.7648 173.842 27.7677C173.85 27.7707 173.856 27.7752 173.862 27.7809C173.867 27.7866 173.871 27.7934 173.874 27.8009C173.876 27.8083 173.877 27.8162 173.876 27.824L173.202 34.3976C173.2 34.4107 173.194 34.4229 173.185 34.4318C173.175 34.4408 173.162 34.446 173.149 34.4463L171.459 34.5037C171.451 34.5039 171.443 34.5024 171.436 34.4994C171.429 34.4964 171.423 34.4919 171.417 34.4862C171.412 34.4805 171.408 34.4737 171.406 34.4663C171.403 34.459 171.402 34.4512 171.403 34.4435L171.669 31.8999C171.67 31.8922 171.669 31.8844 171.667 31.8771C171.664 31.8697 171.66 31.863 171.655 31.8573C171.65 31.8516 171.643 31.847 171.636 31.844C171.629 31.841 171.621 31.8395 171.614 31.8397Z" fill="white"/>
<path d="M164.221 32.2584L164.139 33.2619C164.139 33.2678 164.139 33.2738 164.141 33.2794C164.143 33.285 164.146 33.2902 164.15 33.2945C164.154 33.2988 164.159 33.3023 164.165 33.3045C164.17 33.3068 164.176 33.3079 164.182 33.3078L166.131 33.2494C166.137 33.2493 166.143 33.2504 166.148 33.2527C166.154 33.255 166.159 33.2584 166.163 33.2627C166.167 33.2671 166.17 33.2722 166.172 33.2778C166.174 33.2835 166.174 33.2894 166.174 33.2953L166.024 34.712C166.022 34.722 166.018 34.7313 166.01 34.7381C166.003 34.745 165.993 34.7489 165.983 34.7493L162.236 34.8909C162.23 34.8912 162.224 34.8902 162.218 34.888C162.212 34.8858 162.207 34.8824 162.203 34.878C162.199 34.8736 162.196 34.8684 162.194 34.8627C162.192 34.8571 162.191 34.851 162.192 34.845L162.864 28.2542C162.865 28.2442 162.87 28.2349 162.877 28.2281C162.885 28.2213 162.894 28.2173 162.904 28.2169L166.665 28.0782C166.671 28.0779 166.677 28.0789 166.682 28.0812C166.688 28.0834 166.693 28.0869 166.697 28.0914C166.702 28.0959 166.705 28.1012 166.707 28.107C166.709 28.1128 166.709 28.119 166.709 28.1251L166.556 29.5417C166.555 29.5517 166.551 29.561 166.543 29.5678C166.536 29.5747 166.526 29.5787 166.516 29.579L164.537 29.6527C164.527 29.6531 164.517 29.6571 164.51 29.6639C164.503 29.6708 164.498 29.68 164.497 29.69L164.4 30.6638C164.4 30.6697 164.4 30.6757 164.402 30.6813C164.404 30.6869 164.407 30.6921 164.412 30.6964C164.416 30.7008 164.421 30.7042 164.426 30.7065C164.432 30.7088 164.437 30.7099 164.443 30.7097L166.289 30.6418C166.295 30.6416 166.3 30.6427 166.306 30.645C166.311 30.6473 166.316 30.6508 166.32 30.6551C166.325 30.6594 166.328 30.6646 166.33 30.6702C166.331 30.6758 166.332 30.6818 166.332 30.6877L166.191 32.1111C166.19 32.1211 166.185 32.1304 166.178 32.1372C166.17 32.144 166.161 32.148 166.151 32.1484L164.262 32.2202C164.251 32.2206 164.242 32.2247 164.234 32.2317C164.227 32.2388 164.222 32.2483 164.221 32.2584Z" fill="white"/>
<path d="M155.342 31.5636L154.45 35.1555C154.443 35.1864 154.426 35.214 154.401 35.2342C154.377 35.2543 154.346 35.266 154.314 35.2674L152.732 35.3258C152.723 35.3261 152.714 35.3243 152.706 35.3204C152.697 35.3166 152.69 35.3109 152.684 35.3037C152.679 35.2965 152.675 35.2881 152.673 35.2792C152.671 35.2702 152.672 35.2609 152.674 35.2521L154.448 28.6824C154.457 28.6517 154.477 28.6355 154.509 28.6336L156.098 28.5456C156.13 28.5437 156.162 28.5527 156.188 28.5711C156.214 28.5896 156.233 28.6163 156.242 28.647L157.161 31.8859C157.18 31.9529 157.206 31.9551 157.237 31.8926L158.915 28.5264C158.929 28.4979 158.95 28.4738 158.977 28.4568C159.004 28.4397 159.035 28.4304 159.067 28.4298L160.659 28.3887C160.701 28.388 160.723 28.4085 160.724 28.4499L161.04 34.9355C161.041 34.9546 161.034 34.9733 161.021 34.9874C161.008 35.0016 160.99 35.0101 160.971 35.0111L159.307 35.0799C159.277 35.0812 159.262 35.0669 159.261 35.0369L159.171 31.4469C159.171 31.4412 159.17 31.4357 159.166 31.4312C159.163 31.4267 159.158 31.4236 159.152 31.4223C159.147 31.4211 159.141 31.4218 159.136 31.4243C159.131 31.4269 159.127 31.4312 159.125 31.4363L157.251 35.0847C157.229 35.1274 157.195 35.1507 157.147 35.1545L156.549 35.2024C156.509 35.2056 156.484 35.188 156.472 35.1498L155.377 31.5626C155.364 31.5192 155.353 31.5196 155.342 31.5636Z" fill="white"/>
<path d="M151.723 30.0863C151.959 30.4556 152.108 30.8755 152.162 31.3219C152.216 31.7684 152.173 32.2327 152.036 32.6883C151.899 33.1439 151.67 33.5819 151.363 33.9773C151.057 34.3727 150.677 34.7177 150.247 34.9927C149.379 35.5481 148.357 35.7844 147.405 35.6496C146.454 35.5149 145.651 35.0201 145.174 34.2742C144.938 33.9049 144.789 33.485 144.735 33.0385C144.682 32.5921 144.725 32.1278 144.862 31.6722C144.999 31.2166 145.227 30.7786 145.534 30.3832C145.841 29.9878 146.22 29.6427 146.65 29.3677C147.518 28.8124 148.541 28.5761 149.492 28.7108C150.443 28.8456 151.246 29.3403 151.723 30.0863ZM150.028 31.0414C149.899 30.8625 149.73 30.7148 149.532 30.6068C149.333 30.4988 149.108 30.4325 148.87 30.4119C148.632 30.3912 148.386 30.4165 148.145 30.4863C147.904 30.5561 147.673 30.6691 147.465 30.8188C147.258 30.9685 147.077 31.1519 146.935 31.3587C146.793 31.5655 146.691 31.7915 146.635 32.0238C146.58 32.2562 146.572 32.4903 146.612 32.7129C146.651 32.9355 146.738 33.1421 146.867 33.321C146.996 33.4999 147.165 33.6476 147.364 33.7556C147.562 33.8636 147.787 33.9298 148.025 33.9505C148.263 33.9712 148.51 33.9459 148.751 33.8761C148.992 33.8062 149.223 33.6933 149.43 33.5436C149.638 33.3939 149.818 33.2104 149.96 33.0037C150.103 32.7969 150.204 32.5709 150.26 32.3386C150.316 32.1062 150.324 31.8721 150.284 31.6495C150.244 31.4269 150.157 31.2203 150.028 31.0414Z" fill="white"/>
<path d="M140.443 31.7453L142.699 29.0889C142.72 29.0646 142.747 29.0516 142.779 29.0497L144.809 28.9473C144.821 28.9469 144.833 28.95 144.843 28.9563C144.854 28.9627 144.862 28.9719 144.867 28.9829C144.872 28.9939 144.874 29.0062 144.872 29.0182C144.871 29.0302 144.865 29.0415 144.857 29.0506L141.993 32.1824C141.968 32.2105 141.967 32.2398 141.99 32.2704L144.459 35.5649C144.462 35.5702 144.465 35.5765 144.465 35.5831C144.466 35.5896 144.465 35.5962 144.462 35.6021C144.459 35.608 144.455 35.613 144.45 35.6165C144.444 35.6201 144.438 35.6221 144.432 35.6223L142.297 35.7046C142.234 35.7071 142.185 35.6829 142.149 35.6318L140.299 33.0156C140.295 33.0093 140.288 33.0047 140.281 33.0025C140.274 33.0003 140.266 33.0007 140.258 33.0036C140.251 33.0064 140.245 33.0116 140.241 33.0183C140.238 33.025 140.236 33.0328 140.237 33.0405C140.242 33.0705 140.242 33.1113 140.237 33.1629C140.164 34.0328 140.079 34.8835 139.984 35.7151C139.977 35.7744 139.944 35.805 139.884 35.8069L138.268 35.8672C138.259 35.8675 138.251 35.866 138.243 35.8629C138.236 35.8598 138.229 35.8551 138.223 35.8491C138.217 35.8431 138.213 35.836 138.21 35.8282C138.207 35.8204 138.206 35.8122 138.207 35.804L138.874 29.2505C138.879 29.204 138.904 29.1801 138.95 29.1788L140.606 29.1252C140.641 29.124 140.657 29.1408 140.654 29.1759L140.406 31.729C140.405 31.7336 140.406 31.7383 140.408 31.7424C140.41 31.7465 140.414 31.7497 140.418 31.7515C140.422 31.7534 140.427 31.7538 140.431 31.7526C140.436 31.7515 140.44 31.7489 140.443 31.7453Z" fill="white"/>
<path d="M135.192 34.4951L137.155 34.4358C137.16 34.4356 137.165 34.4365 137.169 34.4383C137.174 34.4402 137.178 34.443 137.181 34.4465C137.184 34.4501 137.187 34.4543 137.188 34.4589C137.19 34.4634 137.19 34.4683 137.189 34.4731L137.044 35.9022C137.043 35.9101 137.039 35.9174 137.034 35.9228C137.028 35.9283 137.02 35.9315 137.012 35.9319L133.245 36.0763C133.241 36.0764 133.236 36.0756 133.232 36.0738C133.227 36.072 133.223 36.0693 133.22 36.0659C133.217 36.0624 133.214 36.0583 133.213 36.0539C133.211 36.0494 133.211 36.0447 133.211 36.0399L133.887 29.4329C133.888 29.425 133.892 29.4177 133.898 29.4123C133.903 29.4068 133.911 29.4036 133.919 29.4032L137.691 29.2578C137.695 29.2577 137.7 29.2585 137.705 29.2603C137.709 29.2621 137.713 29.2648 137.716 29.2683C137.719 29.2717 137.722 29.2758 137.723 29.2803C137.725 29.2847 137.726 29.2895 137.725 29.2942L137.578 30.7405C137.577 30.7484 137.573 30.7557 137.567 30.7611C137.562 30.7666 137.554 30.7698 137.546 30.7702L135.543 30.8429C135.535 30.8431 135.527 30.8463 135.521 30.852C135.515 30.8576 135.511 30.8653 135.511 30.8735L135.426 31.8549C135.425 31.8596 135.426 31.8644 135.427 31.8689C135.429 31.8733 135.431 31.8774 135.435 31.8808C135.438 31.8843 135.442 31.887 135.446 31.8888C135.451 31.8906 135.455 31.8914 135.46 31.8913L137.319 31.8291C137.323 31.8289 137.328 31.8298 137.333 31.8317C137.337 31.8335 137.341 31.8363 137.344 31.8399C137.348 31.8434 137.35 31.8476 137.352 31.8522C137.353 31.8568 137.354 31.8616 137.353 31.8664L137.202 33.3099C137.201 33.3178 137.197 33.3251 137.192 33.3305C137.186 33.3359 137.178 33.3391 137.17 33.3395L135.281 33.4027C135.273 33.4029 135.265 33.4061 135.259 33.4118C135.253 33.4174 135.249 33.4251 135.249 33.4333L135.158 34.4587C135.157 34.4634 135.158 34.4682 135.159 34.4727C135.161 34.4771 135.163 34.4812 135.167 34.4846C135.17 34.4881 135.174 34.4908 135.178 34.4926C135.183 34.4944 135.187 34.4952 135.192 34.4951Z" fill="white"/>
<path d="M129.138 34.0903L128.916 36.1489C128.913 36.1735 128.901 36.1962 128.883 36.213C128.865 36.2297 128.841 36.2392 128.816 36.2398L127.256 36.2857C127.178 36.2882 127.143 36.2506 127.152 36.1728L127.797 29.7341C127.801 29.7008 127.816 29.6699 127.841 29.6471C127.865 29.6244 127.897 29.6115 127.93 29.6107C128.851 29.5909 129.781 29.5584 130.719 29.5131C132.384 29.4318 133.013 30.838 132.576 32.2489C132.057 33.9287 130.729 33.9756 129.195 34.0377C129.161 34.039 129.142 34.0565 129.138 34.0903ZM130.802 31.3411C130.689 30.8896 129.827 30.9671 129.511 30.9977C129.478 31.0009 129.46 31.0191 129.456 31.0523L129.295 32.5407C129.293 32.5662 129.305 32.579 129.331 32.579C130.123 32.5828 131.082 32.4575 130.802 31.3411Z" fill="white"/>
<g clip-path="url(#clip0_170_41)">
<path d="M78.2173 12.8202C81.2087 12.8202 83.6338 10.398 83.6338 7.41008C83.6338 4.42217 81.2087 2 78.2173 2C75.2259 2 72.8008 4.42217 72.8008 7.41008C72.8008 10.398 75.2259 12.8202 78.2173 12.8202Z" fill="#0383E2"/>
<path d="M96.7662 20.8039C100.194 17.0294 104.59 15.0464 109.752 15.8074C111.221 16.0244 112.557 16.5215 113.762 17.2989C116.854 19.2904 117.392 23.6174 116.776 26.8869C115.855 31.7715 114.965 36.6612 114.106 41.5562C113.787 43.373 113.317 44.6307 111.615 45.278C110.416 45.734 108.525 45.5477 107.137 45.5357C106.042 45.5266 105.278 45.4374 104.845 45.2678C103.61 44.7884 102.714 43.5493 102.58 42.2138C102.548 41.9008 102.589 41.4115 102.702 40.746C103.249 37.5449 103.812 34.3473 104.39 31.1529C104.731 29.2631 105.339 25.5598 102.62 24.9259C101.543 24.675 100.482 24.7225 99.4353 25.0683C97.119 25.8327 96.3418 28.3564 95.9481 30.5156C95.2987 34.0794 94.6693 37.6467 94.0597 41.2172C93.8538 42.425 93.6251 43.2492 93.3741 43.69C92.5647 45.1136 91.2903 45.5492 89.6476 45.5424C88.6795 45.5392 87.7116 45.5363 86.7443 45.5339C85.7931 45.5307 85.1057 45.4465 84.6827 45.2815C83.1047 44.6646 82.1424 43.0138 82.4208 41.3088C82.7318 39.3979 83.0544 37.4884 83.3878 35.5799C84.277 30.4885 85.1809 25.3999 86.0996 20.3141C86.417 18.5599 86.8344 17.3565 88.4668 16.7193C88.9237 16.5396 89.6506 16.4441 90.6471 16.4328C92.1947 16.4159 93.5642 16.2566 94.6857 16.8701C96.0838 17.6345 96.8271 19.1192 96.5811 20.7158C96.5448 20.9508 96.6065 20.9802 96.7662 20.8039Z" fill="white"/>
<path d="M18.8522 30.2445C18.6452 30.2761 18.5473 30.3761 18.5587 30.5444C18.5601 30.5663 18.5555 30.5881 18.5453 30.6074C18.5352 30.6268 18.5199 30.643 18.5011 30.6542C18.4823 30.6654 18.4608 30.6712 18.4389 30.671C18.417 30.6708 18.3956 30.6645 18.3771 30.6529C18.3714 30.6495 18.3522 30.6399 18.3194 30.6241C18.299 30.6151 18.2787 30.6111 18.2583 30.6122C17.9608 30.636 17.6757 30.7077 17.4031 30.8275C17.359 30.8467 17.3131 30.8535 17.2656 30.8478C17.0247 30.8241 16.7933 30.8733 16.5716 30.9953C16.5607 31.0008 16.5457 31.0129 16.5277 31.0305C16.5098 31.0482 16.4894 31.071 16.4681 31.097C16.4364 31.1354 16.3957 31.1591 16.3459 31.1682C16.2894 31.1795 16.2345 31.1744 16.1813 31.1529C16.1191 31.1269 16.0626 31.1264 16.0117 31.1512C15.9811 31.1659 15.9517 31.1637 15.9234 31.1444C15.8827 31.1139 15.8374 31.1072 15.7877 31.1241C15.2616 31.307 14.7198 31.3851 14.1621 31.3579C14.0178 31.3512 13.8838 31.4325 13.7277 31.3615C13.7007 31.3489 13.6721 31.3404 13.6428 31.336C13.4822 31.3135 13.3278 31.3234 13.1796 31.3664C13.1389 31.3778 13.1072 31.4015 13.0845 31.4378C13.0257 31.5302 12.9499 31.5574 12.8572 31.5191C12.8085 31.4986 12.7808 31.4852 12.774 31.4785C12.7616 31.4659 12.7531 31.453 12.7486 31.4393C12.7339 31.3851 12.6988 31.3547 12.6434 31.3477L10.8837 31.119C10.8362 31.1122 10.7904 31.119 10.7463 31.1394C10.5189 31.2422 10.2966 31.2354 10.0794 31.119C10.0358 31.0955 9.98776 31.0817 9.93857 31.0783C9.43798 31.0495 8.95439 31.0207 8.4589 30.936C8.24508 30.8998 8.03185 30.9224 7.81917 31.0038C7.79995 31.0105 7.79088 31.0241 7.79203 31.0444C7.79203 31.0614 7.79147 31.0778 7.79033 31.0936C7.79033 31.1072 7.78579 31.1088 7.77676 31.0987C7.70097 31.0083 7.66081 30.9077 7.65628 30.797C7.65402 30.754 7.63478 30.7445 7.59857 30.7682C7.5771 30.7817 7.56861 30.8055 7.57312 30.8394C7.5799 30.8823 7.56183 30.9009 7.51883 30.8953L7.43567 30.8868L7.74452 29.0614C7.74751 29.0442 7.7456 29.0265 7.73905 29.0104C7.73247 28.9942 7.7215 28.9802 7.70735 28.97C7.69319 28.9597 7.67646 28.9537 7.65903 28.9525C7.64159 28.9512 7.62419 28.9549 7.60877 28.9631C6.81124 29.3648 5.92716 29.7631 5.06516 29.8428C0.671963 30.2512 -1.90728 24.6767 1.72402 21.7971C2.04417 21.5429 2.56114 21.2559 3.27495 20.9361C5.99786 19.7158 8.72133 18.4995 11.4454 17.2871C12.5834 16.7809 13.4398 16.4922 14.0144 16.421C17.0179 16.0447 19.8211 18.365 20.1333 21.3192C20.1933 21.8898 20.1288 22.7237 19.9399 23.8208C19.57 25.9609 19.2074 28.1021 18.8522 30.2445Z" fill="#029DF4"/>
<path d="M31.5048 34.3865C31.5794 34.4465 31.6356 34.4316 31.6727 34.3423C33.8787 29.1922 36.0795 24.0415 38.2753 18.8902C38.7436 17.7919 39.4904 17.054 40.5153 16.6766C40.9599 16.5117 41.6493 16.4292 42.5835 16.4292C43.4865 16.4292 44.3891 16.4314 45.2918 16.436C45.9549 16.4394 46.487 16.5145 46.8886 16.6614C48.4397 17.2286 49.2765 18.4224 49.4 20.2427C49.6264 23.6076 49.8756 26.9691 50.1482 30.3273C50.25 31.5838 50.3269 32.8418 50.379 34.1016C50.3813 34.1537 50.3977 34.1859 50.4284 34.1984C50.4524 34.2078 50.4793 34.2075 50.5033 34.1973C50.5273 34.1873 50.5466 34.1683 50.5574 34.144C52.6444 29.3419 54.722 24.5285 56.79 19.7037C57.2571 18.6133 57.6569 17.8913 57.9895 17.5376C59.2148 16.2309 60.9657 16.3936 62.8901 16.4275C63.6447 16.441 64.2288 16.5303 64.643 16.6953C66.1854 17.3105 67.2255 19.0037 66.9456 20.6766C66.8833 21.0472 66.6615 21.6161 66.2804 22.3833C62.9149 29.1425 59.55 35.9017 56.1857 42.661C55.713 43.6099 55.3017 44.2446 54.9522 44.5643C54.0835 45.3608 53.189 45.5372 51.9301 45.5337C50.1619 45.5281 48.3938 45.5293 46.6256 45.5372C45.3749 45.5422 44.0414 44.5948 43.4879 43.4253C43.3025 43.0322 43.1703 42.4525 43.091 41.6864C42.9383 40.1999 42.8298 38.5558 42.7023 37.2238C42.4388 34.4745 42.1904 31.7245 41.9576 28.973C41.9462 28.8442 41.8909 28.7945 41.7912 28.8239C41.7759 28.828 41.7616 28.8357 41.7496 28.8463C41.7376 28.8569 41.728 28.87 41.7215 28.8849C41.5893 29.2272 41.4519 29.5662 41.3094 29.9018C39.5775 33.9875 37.8567 38.0779 36.1474 42.1729C35.6756 43.3028 35.2702 44.0457 34.9309 44.4014C33.9855 45.3898 32.9489 45.5372 31.4946 45.5337C30.0917 45.5305 28.6903 45.531 27.2898 45.5354C26.4232 45.5378 25.7739 45.462 25.3418 45.3085C23.6772 44.715 23.1002 43.461 22.8355 41.7218C22.5199 39.6518 22.2054 37.5824 21.8921 35.5135C21.8344 35.1362 21.8355 34.7594 21.8954 34.383C22.4712 30.7945 23.0686 27.2103 23.6873 23.6307C24.1048 21.2093 23.6392 18.9229 22.2908 16.7715C22.1901 16.6111 22.2343 16.5173 22.4232 16.4902C23.6127 16.3241 24.9871 16.4343 26.197 16.4343C27.016 16.4331 27.6184 16.4998 28.0042 16.6342C29.0919 17.0105 29.9794 17.8647 30.3424 18.9698C30.434 19.2478 30.5048 19.7376 30.5545 20.4393C30.7232 22.8517 30.8786 25.2646 31.0213 27.6781C31.1348 29.6103 31.3758 32.0983 31.4691 34.3154C31.4697 34.3292 31.4732 34.3426 31.4794 34.3549C31.4855 34.3672 31.4943 34.378 31.5048 34.3865Z" fill="white"/>
<path d="M67.112 41.1949L70.8976 19.5463C71.0479 18.6877 71.4963 17.9096 72.1641 17.3488C72.8322 16.7879 73.6766 16.4804 74.5491 16.4802L78.6488 16.4785C79.1911 16.4783 79.7267 16.5968 80.2181 16.8258C80.7095 17.0548 81.1447 17.3886 81.4928 17.8038C81.8412 18.2189 82.0939 18.7053 82.2334 19.2287C82.3729 19.752 82.3957 20.2995 82.3007 20.8327L78.4335 42.4898C78.2803 43.3469 77.8298 44.1226 77.1612 44.6807C76.4922 45.239 75.6481 45.5441 74.7767 45.5424L70.7583 45.5356C70.2181 45.5348 69.6843 45.416 69.1946 45.1876C68.705 44.9588 68.2715 44.6263 67.924 44.213C67.5768 43.7994 67.3241 43.315 67.1837 42.7937C67.0433 42.2725 67.019 41.7267 67.112 41.1949Z" fill="white"/>
<path d="M18.852 30.2441C18.2298 33.8611 17.6053 37.4779 16.9786 41.0947C16.3813 44.5371 12.5498 46.3573 9.38346 45.1031C7.58476 44.3914 6.17129 42.5949 5.95747 40.6237C5.90204 40.113 5.962 39.3277 6.13736 38.2677C6.54346 35.8045 6.97616 33.344 7.43544 30.8865L7.5186 30.895C7.5616 30.9006 7.57967 30.882 7.57289 30.8391C7.56838 30.8052 7.57687 30.7814 7.59834 30.7679C7.63455 30.7441 7.65379 30.7537 7.65605 30.7967C7.66058 30.9074 7.70074 31.008 7.77653 31.0984C7.78556 31.1085 7.7901 31.1068 7.7901 31.0933C7.79124 31.0775 7.7918 31.0611 7.7918 31.0441C7.79065 31.0238 7.79972 31.0102 7.81894 31.0034C8.03162 30.9221 8.24485 30.8995 8.45867 30.9357C8.95416 31.0204 9.43775 31.0492 9.93834 31.078C9.98753 31.0814 10.0356 31.0952 10.0792 31.1187C10.2964 31.2351 10.5187 31.2419 10.746 31.139C10.7902 31.1187 10.836 31.1119 10.8835 31.1187L12.6431 31.3474C12.6986 31.3544 12.7336 31.3848 12.7484 31.4389C12.7529 31.4527 12.7613 31.4656 12.7738 31.4781C12.7806 31.4849 12.8083 31.4983 12.8569 31.5188C12.9497 31.5571 13.0255 31.5299 13.0843 31.4375C13.107 31.4012 13.1386 31.3775 13.1794 31.3661C13.3275 31.3231 13.4819 31.3132 13.6426 31.3357C13.6719 31.3401 13.7004 31.3486 13.7274 31.3611C13.8835 31.4322 14.0176 31.3509 14.1618 31.3576C14.7195 31.3848 15.2614 31.3067 15.7874 31.1238C15.8372 31.1068 15.8825 31.1136 15.9232 31.1441C15.9515 31.1634 15.9809 31.1656 16.0114 31.1509C16.0623 31.1261 16.1189 31.1266 16.1811 31.1526C16.2343 31.1741 16.2892 31.1791 16.3457 31.1679C16.3955 31.1588 16.4362 31.1351 16.4679 31.0967C16.4891 31.0707 16.5096 31.0479 16.5275 31.0302C16.5455 31.0126 16.5605 31.0005 16.5714 30.995C16.7931 30.873 17.0244 30.8238 17.2654 30.8475C17.3129 30.8532 17.3587 30.8464 17.4028 30.8272C17.6755 30.7074 17.9606 30.6357 18.2581 30.6119C18.2784 30.6108 18.2988 30.6148 18.3192 30.6238C18.352 30.6396 18.3712 30.6492 18.3768 30.6526C18.3954 30.6642 18.4168 30.6705 18.4387 30.6707C18.4606 30.6709 18.4821 30.6651 18.5009 30.6539C18.5197 30.6427 18.535 30.6265 18.5451 30.6071C18.5553 30.5877 18.5599 30.566 18.5584 30.5441C18.5471 30.3758 18.6449 30.2758 18.852 30.2441Z" fill="#029DF4"/>
</g>
<defs>
<linearGradient id="paint0_linear_170_41" x1="123.604" y1="4.86509" x2="204.918" y2="41.5938" gradientUnits="userSpaceOnUse">
<stop stop-color="#A7192D"/>
<stop offset="1" stop-color="#D66565"/>
</linearGradient>
<linearGradient id="paint1_linear_170_41" x1="123.604" y1="4.86509" x2="204.918" y2="41.5938" gradientUnits="userSpaceOnUse">
<stop stop-color="#A7192D"/>
<stop offset="1" stop-color="#D66565"/>
</linearGradient>
<linearGradient id="paint2_linear_170_41" x1="123.604" y1="4.86509" x2="204.918" y2="41.5938" gradientUnits="userSpaceOnUse">
<stop stop-color="#A7192D"/>
<stop offset="1" stop-color="#D66565"/>
</linearGradient>
<linearGradient id="paint3_linear_170_41" x1="123.604" y1="4.86509" x2="204.918" y2="41.5938" gradientUnits="userSpaceOnUse">
<stop stop-color="#A7192D"/>
<stop offset="1" stop-color="#D66565"/>
</linearGradient>
<linearGradient id="paint4_linear_170_41" x1="123.604" y1="4.86509" x2="204.918" y2="41.5938" gradientUnits="userSpaceOnUse">
<stop stop-color="#A7192D"/>
<stop offset="1" stop-color="#D66565"/>
</linearGradient>
<clipPath id="clip0_170_41">
<rect width="117" height="43.5825" fill="white" transform="translate(0 2)"/>
</clipPath>
</defs>
</svg>
