<svg width="316" height="117" viewBox="0 0 316 117" fill="none" xmlns="http://www.w3.org/2000/svg">
<g clip-path="url(#clip0_170_2)">
<path d="M201 45.6012C201.573 45.6745 201.763 45.9845 201.57 46.5312C192.39 73.0012 156.5 73.9912 143.04 50.3712C127.51 23.1212 156.33 -8.2688 184.91 4.1812C192.177 7.3412 197.153 13.0212 199.84 21.2212C199.953 21.5545 199.837 21.7445 199.49 21.7912L187.47 23.3812C187.274 23.4052 187.075 23.3717 186.897 23.2847C186.72 23.1977 186.571 23.061 186.47 22.8912C180.24 12.4612 168.24 10.4312 159.31 18.2712C148.32 27.9112 150.14 45.5612 162.73 52.7812C172.33 58.2812 183.08 54.0912 188.12 44.5112C188.202 44.3582 188.329 44.2341 188.483 44.1554C188.636 44.0767 188.81 44.0473 188.98 44.0712L201 45.6012Z" fill="white"/>
<path d="M103.441 114.693C76.9609 92.1025 39.7809 92.1825 13.9009 115.743C13.6343 115.983 13.4143 115.946 13.2409 115.633L9.01095 108.083C8.97815 108.025 8.95832 107.96 8.95278 107.894C8.94723 107.827 8.9561 107.76 8.97879 107.697C9.00148 107.633 9.03748 107.575 9.0844 107.526C9.13132 107.477 9.18809 107.439 9.25095 107.413C19.7643 103.306 29.3009 97.5725 37.8609 90.2125C65.2109 66.6925 59.1109 26.3625 29.9909 7.67253C29.8598 7.58727 29.7652 7.4564 29.7263 7.30618C29.6873 7.15595 29.7068 6.99747 29.7809 6.86253L32.3509 2.17253C32.5576 1.7992 32.8509 1.7092 33.2309 1.90253C50.5776 10.5559 67.9176 10.5159 85.2509 1.78253C85.6109 1.60253 85.8843 1.6892 86.0709 2.04253L88.4109 6.46253C88.5228 6.67075 88.553 6.91317 88.4957 7.14246C88.4383 7.37175 88.2976 7.57144 88.1009 7.70253C69.1609 20.2025 59.2909 41.2825 63.9709 63.7125C68.2709 84.3025 90.2209 99.5525 109.161 107.523C109.494 107.663 109.568 107.889 109.381 108.203L105.121 115.473C104.974 115.726 104.771 115.789 104.511 115.663C103.911 115.363 103.811 115.013 103.441 114.693Z" fill="#FF00FF"/>
<path d="M221.68 52.7118L218.91 64.4218C218.88 64.5425 218.811 64.6497 218.713 64.726C218.615 64.8022 218.494 64.8431 218.37 64.8418H205.63C205.547 64.8411 205.465 64.8217 205.391 64.785C205.316 64.7484 205.251 64.6953 205.2 64.6299C205.149 64.5645 205.114 64.4885 205.096 64.4074C205.079 64.3263 205.08 64.2424 205.1 64.1618L219.59 4.5118C219.619 4.39277 219.686 4.28681 219.782 4.21072C219.878 4.13464 219.997 4.09278 220.12 4.0918H250.03C250.152 4.09278 250.271 4.13464 250.367 4.21072C250.463 4.28681 250.531 4.39277 250.56 4.5118L264.99 64.1618C265.009 64.2432 265.01 64.328 264.992 64.4098C264.974 64.4916 264.938 64.5683 264.886 64.6339C264.834 64.6995 264.767 64.7523 264.692 64.7883C264.616 64.8244 264.533 64.8427 264.45 64.8418H251.7C251.577 64.8408 251.458 64.799 251.362 64.7229C251.266 64.6468 251.199 64.5408 251.17 64.4218L248.38 52.7918C248.351 52.6728 248.283 52.5668 248.187 52.4907C248.091 52.4146 247.972 52.3728 247.85 52.3718L222.22 52.2918C222.095 52.2905 221.974 52.3314 221.876 52.4076C221.778 52.4839 221.709 52.5911 221.68 52.7118ZM231 16.1218C230.854 16.1224 230.712 16.172 230.598 16.2627C230.484 16.3534 230.403 16.4798 230.37 16.6218L225.04 39.2918C225.017 39.3871 225.016 39.4862 225.037 39.5818C225.058 39.6774 225.101 39.767 225.161 39.844C225.222 39.9209 225.299 39.9831 225.387 40.026C225.475 40.0689 225.572 40.0914 225.67 40.0918H244.36C244.457 40.0914 244.554 40.0689 244.642 40.026C244.73 39.9831 244.807 39.9209 244.868 39.844C244.928 39.767 244.971 39.6774 244.992 39.5818C245.013 39.4862 245.012 39.3871 244.99 39.2918L239.65 16.5718C239.616 16.4282 239.534 16.3004 239.417 16.2095C239.301 16.1187 239.157 16.0701 239.01 16.0718L231 16.1218Z" fill="white"/>
<path d="M295.5 16.7018V64.2318C295.5 64.3936 295.436 64.5487 295.321 64.6631C295.207 64.7775 295.052 64.8418 294.89 64.8418H282.61C282.448 64.8418 282.293 64.7775 282.179 64.6631C282.064 64.5487 282 64.3936 282 64.2318V16.6818C282 16.6017 281.984 16.5224 281.954 16.4484C281.923 16.3744 281.878 16.3071 281.821 16.2505C281.765 16.1938 281.697 16.1489 281.623 16.1182C281.549 16.0876 281.47 16.0718 281.39 16.0718L263.61 16.1318C263.448 16.1318 263.293 16.0675 263.179 15.9531C263.064 15.8387 263 15.6836 263 15.5218V4.7018C263 4.62169 263.016 4.54237 263.046 4.46836C263.077 4.39435 263.122 4.32711 263.179 4.27046C263.235 4.21382 263.303 4.16889 263.377 4.13823C263.451 4.10758 263.53 4.0918 263.61 4.0918H313.89C313.97 4.0918 314.049 4.10758 314.123 4.13823C314.197 4.16889 314.265 4.21382 314.321 4.27046C314.378 4.32711 314.423 4.39435 314.454 4.46836C314.484 4.54237 314.5 4.62169 314.5 4.7018V15.4818C314.5 15.6436 314.436 15.7987 314.321 15.9131C314.207 16.0275 314.052 16.0918 313.89 16.0918H296.11C295.948 16.0918 295.793 16.1561 295.679 16.2705C295.564 16.3849 295.5 16.54 295.5 16.7018Z" fill="white"/>
<path d="M29.5743 38.2356L6.50042 27.427C6.21534 27.2935 5.87599 27.4163 5.74245 27.7014L4.79224 29.7299C4.65871 30.015 4.78155 30.3543 5.06663 30.4879L28.1405 41.2965C28.4256 41.43 28.765 41.3072 28.8985 41.0221L29.8487 38.9936C29.9823 38.7085 29.8594 38.3692 29.5743 38.2356Z" fill="white"/>
<path d="M108.303 27.5258L86.0644 38.276C85.7611 38.4227 85.6341 38.7874 85.7807 39.0907L86.7208 41.0354C86.8674 41.3387 87.2322 41.4657 87.5355 41.3191L109.774 30.5689C110.077 30.4223 110.204 30.0575 110.057 29.7542L109.117 27.8095C108.971 27.5062 108.606 27.3792 108.303 27.5258Z" fill="white"/>
<path d="M112.14 51.8418H89.6C89.1306 51.8418 88.75 52.2224 88.75 52.6918V54.4918C88.75 54.9612 89.1306 55.3418 89.6 55.3418H112.14C112.609 55.3418 112.99 54.9612 112.99 54.4918V52.6918C112.99 52.2224 112.609 51.8418 112.14 51.8418Z" fill="white"/>
<path d="M26.3806 52.1016H2.32063C2.08315 52.1016 1.89062 52.2941 1.89062 52.5316V54.9116C1.89062 55.149 2.08315 55.3416 2.32063 55.3416H26.3806C26.6181 55.3416 26.8106 55.149 26.8106 54.9116V52.5316C26.8106 52.2941 26.6181 52.1016 26.3806 52.1016Z" fill="white"/>
<path d="M28.1109 66.1015L4.28883 78.2919C4.01842 78.4303 3.91138 78.7617 4.04976 79.0321L5.0884 81.0618C5.22678 81.3322 5.55816 81.4392 5.82857 81.3008L29.6507 69.1105C29.9211 68.9721 30.0281 68.6407 29.8898 68.3703L28.8511 66.3406C28.7127 66.0702 28.3813 65.9632 28.1109 66.1015Z" fill="white"/>
<path d="M110.452 78.2114L87.5231 67.4707C87.203 67.3208 86.822 67.4587 86.6721 67.7788L85.7813 69.6805C85.6313 70.0006 85.7692 70.3816 86.0893 70.5315L109.018 81.2723C109.338 81.4222 109.719 81.2843 109.869 80.9642L110.76 79.0625C110.91 78.7424 110.772 78.3614 110.452 78.2114Z" fill="white"/>
<path d="M170.219 105.071C170.506 105.111 170.599 105.268 170.499 105.541C165.249 119.711 145.709 119.121 139.919 105.441C131.729 86.081 161.819 72.371 169.539 92.361C169.686 92.7476 169.553 92.9643 169.139 93.011L163.529 93.651C163.116 93.6976 162.799 93.5443 162.579 93.191C156.449 83.481 144.329 91.201 145.519 100.841C146.669 110.111 158.749 113.721 163.529 104.671C163.696 104.365 163.956 104.235 164.309 104.281L170.219 105.071Z" fill="white"/>
<path d="M219.419 116.093H216.959C210.646 115.38 206.589 112.12 204.789 106.313C204.669 105.92 204.812 105.7 205.219 105.653L210.829 104.973C211.176 104.933 211.426 105.073 211.579 105.393C215.759 114.173 228.299 108.183 222.949 103.653C220.409 101.513 213.559 101.063 209.669 98.0428C196.599 87.9128 223.829 72.8428 230.799 91.2428C230.839 91.3461 230.855 91.4572 230.845 91.5677C230.835 91.6783 230.8 91.7853 230.742 91.8807C230.684 91.9761 230.605 92.0574 230.511 92.1184C230.417 92.1794 230.31 92.2185 230.199 92.2328L224.779 92.9328C224.616 92.953 224.451 92.9237 224.305 92.8488C224.158 92.7739 224.038 92.6569 223.959 92.5128C221.919 88.7728 218.959 87.8061 215.079 89.6128C213.879 90.1728 213.366 91.2628 213.539 92.8828C213.571 93.1857 213.71 93.4659 213.929 93.6728C218.199 97.6528 229.429 96.2628 230.949 104.893C232.119 111.543 225.379 115.573 219.419 116.093Z" fill="white"/>
<path d="M314.241 99.2619C314.241 103.707 312.475 107.97 309.332 111.113C306.189 114.256 301.926 116.022 297.481 116.022C293.036 116.022 288.773 114.256 285.63 111.113C282.486 107.97 280.721 103.707 280.721 99.2619C280.721 97.0609 281.154 94.8816 281.996 92.8482C282.839 90.8148 284.073 88.9672 285.63 87.4108C287.186 85.8545 289.034 84.6199 291.067 83.7776C293.1 82.9354 295.28 82.502 297.481 82.502C299.682 82.502 301.861 82.9354 303.894 83.7776C305.928 84.6199 307.776 85.8545 309.332 87.4108C310.888 88.9672 312.123 90.8148 312.965 92.8482C313.807 94.8816 314.241 97.0609 314.241 99.2619ZM297.509 109.792C298.826 109.79 300.13 109.515 301.346 108.984C302.562 108.453 303.666 107.675 304.596 106.696C305.526 105.716 306.262 104.554 306.764 103.276C307.266 101.997 307.523 100.627 307.521 99.2444C307.518 97.8616 307.256 96.4927 306.75 95.216C306.244 93.9393 305.503 92.7799 304.57 91.8036C303.637 90.8275 302.53 90.0537 301.312 89.5267C300.094 88.9996 298.789 88.7295 297.472 88.7319C296.155 88.7342 294.851 89.0089 293.635 89.5402C292.419 90.0715 291.315 90.8491 290.385 91.8285C289.456 92.8079 288.719 93.97 288.217 95.2485C287.715 96.5269 287.458 97.8965 287.461 99.2794C287.463 100.662 287.725 102.031 288.231 103.308C288.738 104.585 289.478 105.744 290.411 106.72C291.344 107.697 292.452 108.47 293.669 108.997C294.887 109.524 296.192 109.794 297.509 109.792Z" fill="white"/>
<path d="M172.27 114.112L179.52 84.1718C179.542 84.0775 179.596 83.9936 179.672 83.9337C179.748 83.8738 179.843 83.8414 179.94 83.8418H194.82C194.917 83.8414 195.011 83.8738 195.087 83.9337C195.163 83.9936 195.217 84.0775 195.24 84.1718L202.51 114.162C202.525 114.226 202.525 114.293 202.511 114.357C202.496 114.422 202.467 114.482 202.425 114.533C202.384 114.584 202.331 114.625 202.271 114.653C202.211 114.68 202.146 114.694 202.08 114.692L195.9 114.552C195.804 114.55 195.712 114.517 195.638 114.457C195.564 114.397 195.512 114.315 195.49 114.222L194.16 108.672C194.137 108.578 194.083 108.494 194.007 108.434C193.931 108.374 193.837 108.342 193.74 108.342H181C180.903 108.342 180.808 108.374 180.732 108.434C180.656 108.494 180.602 108.578 180.58 108.672L179.25 114.342C179.227 114.436 179.173 114.52 179.097 114.58C179.021 114.64 178.927 114.672 178.83 114.672L172.68 114.642C172.615 114.641 172.552 114.625 172.495 114.596C172.437 114.567 172.387 114.526 172.348 114.475C172.308 114.424 172.281 114.365 172.267 114.302C172.254 114.24 172.255 114.175 172.27 114.112ZM185.53 90.1018C185.424 90.1029 185.322 90.1387 185.239 90.2038C185.155 90.2689 185.096 90.3596 185.07 90.4618L182.37 101.502C182.353 101.572 182.353 101.645 182.368 101.715C182.383 101.785 182.414 101.851 182.458 101.907C182.502 101.964 182.559 102.01 182.623 102.042C182.687 102.074 182.758 102.091 182.83 102.092H191.95C192.022 102.092 192.094 102.076 192.16 102.045C192.225 102.014 192.283 101.968 192.328 101.911C192.373 101.854 192.405 101.788 192.421 101.717C192.437 101.646 192.436 101.573 192.42 101.502L189.8 90.4518C189.775 90.346 189.715 90.2518 189.629 90.1846C189.544 90.1174 189.438 90.0812 189.33 90.0818L185.53 90.1018Z" fill="white"/>
<path d="M242.04 83.8516H236.22C235.966 83.8516 235.76 84.0575 235.76 84.3116V114.172C235.76 114.426 235.966 114.632 236.22 114.632H242.04C242.294 114.632 242.5 114.426 242.5 114.172V84.3116C242.5 84.0575 242.294 83.8516 242.04 83.8516Z" fill="white"/>
<path d="M255.81 95.9218L255.72 114.172C255.72 114.266 255.683 114.356 255.618 114.423C255.553 114.49 255.464 114.529 255.37 114.532L249.37 114.742C249.322 114.743 249.274 114.735 249.229 114.718C249.184 114.7 249.143 114.674 249.109 114.64C249.074 114.607 249.047 114.566 249.028 114.522C249.01 114.478 249 114.43 249 114.382V84.2018C249 84.1063 249.038 84.0148 249.105 83.9473C249.173 83.8797 249.265 83.8418 249.36 83.8418H256.2C256.262 83.8411 256.323 83.8564 256.377 83.8861C256.432 83.9159 256.477 83.9592 256.51 84.0118L268.13 102.982C268.17 103.051 268.232 103.104 268.306 103.133C268.38 103.163 268.462 103.167 268.538 103.145C268.615 103.124 268.682 103.077 268.729 103.013C268.777 102.949 268.802 102.872 268.8 102.792L268.73 84.2018C268.73 84.1063 268.768 84.0148 268.835 83.9473C268.903 83.8797 268.995 83.8418 269.09 83.8418H275.14C275.235 83.8418 275.327 83.8797 275.395 83.9473C275.462 84.0148 275.5 84.1063 275.5 84.2018V114.252C275.5 114.348 275.462 114.439 275.395 114.507C275.327 114.574 275.235 114.612 275.14 114.612L268.29 114.662C268.228 114.663 268.167 114.647 268.113 114.618C268.058 114.588 268.013 114.545 267.98 114.492L256.48 95.7418C256.44 95.6741 256.379 95.6213 256.306 95.5915C256.233 95.5618 256.153 95.5567 256.077 95.5772C256.001 95.5976 255.933 95.6423 255.885 95.7046C255.837 95.7668 255.811 95.8431 255.81 95.9218Z" fill="white"/>
</g>
<defs>
<clipPath id="clip0_170_2">
<rect width="316" height="116" fill="white" transform="translate(0 0.0917969)"/>
</clipPath>
</defs>
</svg>
