<svg width="75" height="28" viewBox="0 0 75 28" fill="none" xmlns="http://www.w3.org/2000/svg">
<mask id="mask0_204_14" style="mask-type:luminance" maskUnits="userSpaceOnUse" x="0" y="0" width="75" height="28">
<path d="M74.9 0H0V28H74.9V0Z" fill="white"/>
</mask>
<g mask="url(#mask0_204_14)">
<path d="M10.4213 6.87128C9.45798 5.87679 8.04258 5.25193 6.34188 5.25193C1.89818 5.25193 0 8.37627 0 12.5413C0 16.7063 1.89818 19.868 6.34188 19.868C8.04258 19.868 9.45798 19.2431 10.4213 18.22V19.868H14.1014V0H10.4213V6.87128ZM7.05068 16.1826C4.70045 16.1826 3.68005 15.4741 3.68005 12.5479C3.68005 9.62157 4.70045 8.9439 7.05068 8.9439C9.40093 8.9439 10.4213 9.65237 10.4213 12.5413C10.4213 15.4302 9.40093 16.1826 7.05068 16.1826Z" fill="white"/>
<path d="M28.0895 12.1408C28.0895 11.2352 27.9114 10.3385 27.5654 9.50204C27.2195 8.66554 26.7124 7.90562 26.0732 7.26575C25.4341 6.62594 24.6753 6.11874 23.8405 5.77319C23.0056 5.42763 22.111 5.25051 21.2078 5.25196H17.0383V8.94393H21.7081C22.0615 8.94365 22.4115 9.01323 22.738 9.14868C23.0646 9.28413 23.3612 9.48279 23.6111 9.73339C23.861 9.98392 24.0591 10.2814 24.1942 10.6088C24.3293 10.9362 24.3988 11.2871 24.3985 11.6414C23.6897 10.8736 22.5858 10.22 20.4617 10.22C17.0077 10.22 15.3926 12.4357 15.3926 15.0474C15.3926 17.659 17.0077 19.8746 20.4617 19.8746C22.5858 19.8746 23.6897 19.1926 24.3985 18.4533V19.8746H29.9196V16.1826H28.0895V12.1408ZM21.7366 16.5237C19.8099 16.5237 19.0748 16.1826 19.0748 15.0474C19.0748 13.912 19.8099 13.571 21.7366 13.571C23.6634 13.571 24.3985 13.912 24.3985 15.0474C24.3985 16.1826 23.6611 16.5237 21.7366 16.5237Z" fill="white"/>
<path d="M40.7785 18.2266V19.8746H44.4607V0H40.7785V6.87128C39.8151 5.87679 38.3997 5.25192 36.7012 5.25192C32.2553 5.25192 30.3594 8.37627 30.3594 12.5479C30.3594 16.7195 32.2553 19.8746 36.7012 19.8746C38.402 19.8746 39.8151 19.2497 40.7785 18.2266ZM34.0394 12.5413C34.0394 9.64579 35.0598 8.93732 37.4101 8.93732C39.7603 8.93732 40.7785 9.65237 40.7785 12.5413C40.7785 15.4302 39.7603 16.176 37.4101 16.176C35.0598 16.176 34.0394 15.4741 34.0394 12.5413Z" fill="url(#paint0_linear_204_14)"/>
<path d="M55.7863 6.87128C54.823 5.87679 53.4076 5.25192 51.7091 5.25192C47.2632 5.25192 45.3672 8.37627 45.3672 12.5479C45.3672 16.7195 47.2632 19.8746 51.7091 19.8746C53.4076 19.8746 54.823 19.2497 55.7863 18.2266V19.8746H59.4685V0H55.7863V6.87128ZM52.4179 16.1826C50.0677 16.1826 49.0473 15.4741 49.0473 12.5479C49.0473 9.62157 50.0677 8.9439 52.4179 8.9439C54.7681 8.9439 55.7863 9.65237 55.7863 12.5413C55.7863 15.4302 54.7681 16.1826 52.4179 16.1826Z" fill="url(#paint1_linear_204_14)"/>
<path d="M71.2203 5.25195V11.7822C71.2203 14.0528 70.1997 14.7635 67.9922 14.7635C65.7846 14.7635 64.7642 14.0528 64.7642 11.7822V5.25195H61.082V11.9252C61.082 15.813 62.8376 18.4533 67.2835 18.4533C68.982 18.4533 70.3712 17.8306 71.2203 16.8933C71.2203 17.9098 70.8178 18.8847 70.1003 19.6035C69.3837 20.3223 68.4114 20.7261 67.3976 20.7261H63.0087V24.4225H67.4678C68.4445 24.4227 69.4116 24.23 70.3138 23.8552C71.2161 23.4803 72.0358 22.9308 72.7267 22.2381C73.4169 21.5453 73.9643 20.7229 74.3367 19.8179C74.7098 18.9129 74.9016 17.943 74.9002 16.9637V5.25195H71.2203Z" fill="white"/>
<path d="M33.4961 21.1484V25.0054C37.522 26.9751 41.9427 27.9988 46.4223 27.9988C50.9019 27.9988 55.3227 26.9751 59.3486 25.0054V21.1484C55.393 23.3466 50.9449 24.4999 46.4223 24.4999C41.8998 24.4999 37.4517 23.3466 33.4961 21.1484Z" fill="url(#paint2_linear_204_14)"/>
</g>
<defs>
<linearGradient id="paint0_linear_204_14" x1="30.3594" y1="9.93622" x2="44.4607" y2="9.93622" gradientUnits="userSpaceOnUse">
<stop stop-color="#9D33C9"/>
<stop offset="0.45" stop-color="#9331CC"/>
<stop offset="1" stop-color="#8D2FCE"/>
</linearGradient>
<linearGradient id="paint1_linear_204_14" x1="45.3672" y1="9.93622" x2="59.4685" y2="9.93622" gradientUnits="userSpaceOnUse">
<stop stop-color="#892DD0"/>
<stop offset="0.52" stop-color="#7B2AD5"/>
<stop offset="1" stop-color="#7529D7"/>
</linearGradient>
<linearGradient id="paint2_linear_204_14" x1="33.4961" y1="24.5742" x2="59.3486" y2="24.5742" gradientUnits="userSpaceOnUse">
<stop stop-color="#9D33C9"/>
<stop offset="0.27" stop-color="#8E2FCE"/>
<stop offset="0.69" stop-color="#7C2AD5"/>
<stop offset="1" stop-color="#7628D7"/>
</linearGradient>
</defs>
</svg>
