<svg width="168" height="30" viewBox="0 0 168 30" fill="none" xmlns="http://www.w3.org/2000/svg">
<path fill-rule="evenodd" clip-rule="evenodd" d="M53.8351 7.6309H46.6639V23.5529H41.9807V3.2886H58.5184V23.5529H53.8351V7.6309Z" fill="white"/>
<path fill-rule="evenodd" clip-rule="evenodd" d="M67.6349 19.8474C69.1278 19.8474 70.2693 18.8053 70.2693 17.0393C70.2693 15.3603 69.0982 14.2312 67.6349 14.2312C66.23 14.2312 65.0006 15.2733 65.0006 17.0393C65.0006 18.6891 66.1421 19.8474 67.6349 19.8474ZM67.6352 10.1785C72.1431 10.1785 74.9529 13.1313 74.9529 17.0393C74.9529 20.9473 72.1431 23.9001 67.6352 23.9001C63.1273 23.9001 60.3175 20.9473 60.3175 17.0393C60.3175 13.1313 63.1273 10.1785 67.6352 10.1785Z" fill="white"/>
<path fill-rule="evenodd" clip-rule="evenodd" d="M76.519 10.5256H80.9094V16.5475L84.4806 10.5256H89.9837L85.7101 16.7209L90.6273 23.5531H84.9487L80.9094 17.4734V23.5531H76.519V10.5256Z" fill="white"/>
<path fill-rule="evenodd" clip-rule="evenodd" d="M94.5059 15.5915H99.247C99.247 14.6942 98.5157 13.7969 97.1103 13.7969C95.6468 13.7969 94.9156 14.4338 94.5059 15.5915ZM102.379 22.4237C101.004 23.4367 99.1308 23.9002 97.2576 23.9002C92.9252 23.9002 90.1153 21.1499 90.1153 17.0393C90.1153 13.247 92.9252 10.178 97.2576 10.178C100.653 10.178 103.638 12.61 103.638 16.316C103.638 17.3289 103.55 17.9075 103.375 18.4871H94.6521C95.0618 19.7313 96.2909 20.2817 97.7254 20.2817C99.248 20.2817 100.477 19.7896 101.179 19.3553L102.379 22.4237Z" fill="white"/>
<path fill-rule="evenodd" clip-rule="evenodd" d="M109.708 15.3892V19.355C110.351 19.7315 110.82 19.8476 111.756 19.8476C113.658 19.8476 114.566 18.516 114.566 16.9234C114.566 15.4183 113.658 14.231 111.991 14.231C111.141 14.231 110.439 14.5783 109.708 15.3892ZM105.317 10.5256H109.708V11.5104C110.439 10.786 111.757 10.1782 113.366 10.1782C116.908 10.1782 119.25 12.9868 119.25 16.8365C119.25 20.8028 116.439 23.9004 112.166 23.9004C111.258 23.9004 110.322 23.7551 109.708 23.4947V29.3426H105.317V10.5256Z" fill="white"/>
<path fill-rule="evenodd" clip-rule="evenodd" d="M125.967 19.5H129.305V14.5786H127.344L127.285 15.0999C127.021 17.2711 126.494 18.6892 125.967 19.5ZM119.675 19.5001H121.372C122.367 18.1971 122.924 15.6207 123.07 13.334L123.246 10.5259H133.696V19.5001H135.89V26.4479H131.792V23.5528H123.772V26.4479H119.675V19.5001Z" fill="white"/>
<path fill-rule="evenodd" clip-rule="evenodd" d="M143.851 19.8474C145.344 19.8474 146.485 18.8053 146.485 17.0393C146.485 15.3603 145.314 14.2312 143.851 14.2312C142.447 14.2312 141.216 15.2733 141.216 17.0393C141.216 18.6891 142.358 19.8474 143.851 19.8474ZM143.851 10.1785C148.36 10.1785 151.169 13.1313 151.169 17.0393C151.169 20.9473 148.36 23.9001 143.851 23.9001C139.343 23.9001 136.534 20.9473 136.534 17.0393C136.534 13.1313 139.343 10.1785 143.851 10.1785Z" fill="white"/>
<path fill-rule="evenodd" clip-rule="evenodd" d="M152.604 10.5256H156.555L160.507 14.9549L164.165 10.5256H168V23.5531H163.609V17.1547L160.419 20.7737H160.331L156.994 17.1547V23.5531H152.604V10.5256Z" fill="white"/>
<path fill-rule="evenodd" clip-rule="evenodd" d="M0.39948 0C0.178704 0 0 0.1794 0 0.4V19.4792C0 25.2566 4.72194 29.9841 10.4931 29.9841C15.7794 29.9841 20.1824 26.017 20.8855 20.91C25.9863 20.2062 29.9483 15.7974 29.9483 10.5054C29.9483 4.7275 25.2268 0 19.4557 0H0.39948ZM5.78996 19.4792V5.9969C5.78996 5.8864 5.87931 5.7969 5.9898 5.7969H19.4556C21.8779 5.7969 24.1586 7.6956 24.1586 10.5054C24.1586 12.8931 22.3771 15.1671 19.4664 15.1671L15.5687 15.1897C15.3499 15.1907 15.1727 15.3681 15.1712 15.5871L15.1492 19.4895C15.1492 22.4041 12.8778 24.1872 10.493 24.1872C7.68699 24.1872 5.78996 21.9044 5.78996 19.4792ZM23.0608 26.544C23.0608 28.4524 24.6059 30 26.5127 30C28.4189 30 29.9646 28.4524 29.9646 26.544C29.9646 24.635 28.4189 23.0879 26.5127 23.0879C24.6059 23.0879 23.0608 24.635 23.0608 26.544Z" fill="url(#paint0_linear_8830_98633)"/>
<defs>
<linearGradient id="paint0_linear_8830_98633" x1="14.9824" y1="-15" x2="-15.0176" y2="14.9647" gradientUnits="userSpaceOnUse">
<stop stop-color="#2EFF71"/>
<stop offset="1" stop-color="#009148"/>
</linearGradient>
</defs>
</svg>
