<svg viewBox="0 0 192 33" class="svg-icon svg-fill hidden laptop:block w-[156px] h-[26px]" role="img"><path pid="0" fill-rule="evenodd" clip-rule="evenodd" d="M16.68 15.264h-1.583a.668.668 0 0 1-.496-.199.699.699 0 0 1-.205-.503V13.48c-.19-1.301-1.692-1.901-3.089-1.901a3.083 3.083 0 0 0-2.2.934 3.224 3.224 0 0 0-.912 2.249v4.733a3.22 3.22 0 0 0 .913 2.247c.584.596 1.375.93 2.2.93 1.444 0 2.988-.633 3.098-2.027V19.61a.711.711 0 0 1 .2-.492.68.68 0 0 1 .482-.204h1.573c.18 0 .354.073.482.204.128.13.2.308.2.492V20.744c-.1 2.3-1.693 4.074-4.076 4.708v1.613a.666.666 0 0 1-.189.465.637.637 0 0 1-.455.193h-2.617a.637.637 0 0 1-.455-.193.666.666 0 0 1-.188-.465v-1.696A6.063 6.063 0 0 1 6.4 23.113a6.28 6.28 0 0 1-1.129-3.594v-4.733a6.28 6.28 0 0 1 1.129-3.594 6.062 6.062 0 0 1 2.962-2.255V6.89c0-.174.067-.342.188-.465a.636.636 0 0 1 .455-.193h2.641c.17 0 .334.07.455.193.12.123.188.29.188.465v1.95c2.346.624 3.943 2.369 4.072 4.63v1.092a.711.711 0 0 1-.198.496.679.679 0 0 1-.484.206Zm49.048 0h-1.592a.675.675 0 0 1-.463-.199.705.705 0 0 1-.205-.469v-1.082c-.19-1.301-1.687-1.9-3.089-1.9a3.079 3.079 0 0 0-2.198.933 3.22 3.22 0 0 0-.91 2.249v4.733c0 .843.328 1.65.91 2.247.584.596 1.374.93 2.198.93 1.445 0 2.994-.633 3.099-2.027v-1.033a.71.71 0 0 1 .203-.493.679.679 0 0 1 .483-.204h1.569a.668.668 0 0 1 .485.202.697.697 0 0 1 .201.495v1.096c-.095 2.3-1.687 4.075-4.07 4.709v1.613a.671.671 0 0 1-.19.464.642.642 0 0 1-.454.194h-2.622a.641.641 0 0 1-.454-.194.67.67 0 0 1-.19-.464v-1.696a6.064 6.064 0 0 1-2.962-2.255 6.28 6.28 0 0 1-1.128-3.594v-4.733a6.28 6.28 0 0 1 1.129-3.594 6.063 6.063 0 0 1 2.961-2.255V6.89a.67.67 0 0 1 .19-.464.641.641 0 0 1 .454-.194h2.622c.17.001.333.071.453.194a.67.67 0 0 1 .19.464v1.95c2.346.624 3.938 2.369 4.066 4.63v1.092a.715.715 0 0 1-.2.496.686.686 0 0 1-.486.206Z" fill="#51CDCB"></path><path pid="1" fill-rule="evenodd" clip-rule="evenodd" d="M18.5 32.976H3.924A3.885 3.885 0 0 1 1.151 31.8 4.062 4.062 0 0 1 0 28.965v-24A4.062 4.062 0 0 1 1.15 2.13 3.885 3.885 0 0 1 3.924.953h14.578a3.885 3.885 0 0 1 2.773 1.177 4.063 4.063 0 0 1 1.15 2.835v24a4.062 4.062 0 0 1-1.15 2.835 3.885 3.885 0 0 1-2.773 1.176ZM3.924 3.098a1.81 1.81 0 0 0-1.29.548c-.341.35-.534.824-.535 1.319v24c0 .494.194.968.536 1.317s.806.545 1.29.545H18.5a1.8 1.8 0 0 0 1.287-.546c.342-.349.534-.822.534-1.316v-24c0-.494-.192-.969-.533-1.319a1.806 1.806 0 0 0-1.288-.548H3.923Zm63.974 29.878H53.315a3.88 3.88 0 0 1-2.771-1.176 4.058 4.058 0 0 1-1.148-2.835v-24c0-1.063.413-2.083 1.148-2.835a3.88 3.88 0 0 1 2.77-1.177h14.583a3.88 3.88 0 0 1 2.771 1.177 4.058 4.058 0 0 1 1.147 2.835v24a4.058 4.058 0 0 1-1.147 2.835 3.88 3.88 0 0 1-2.771 1.176ZM53.315 3.098a1.806 1.806 0 0 0-1.288.549c-.342.35-.533.824-.533 1.318v24c0 .493.193.966.534 1.315.342.349.804.546 1.287.547h14.582c.483 0 .946-.196 1.288-.546.341-.349.533-.822.533-1.316v-24c0-.494-.192-.968-.533-1.318a1.806 1.806 0 0 0-1.288-.549H53.315ZM28.598 32.976h14.6a3.88 3.88 0 0 0 2.76-1.183 4.058 4.058 0 0 0 1.14-2.828v-24a4.058 4.058 0 0 0-1.147-2.835A3.88 3.88 0 0 0 43.18.953H28.598a3.88 3.88 0 0 0-2.772 1.177 4.058 4.058 0 0 0-1.147 2.835v24c0 1.063.413 2.082 1.147 2.835a3.88 3.88 0 0 0 2.771 1.176Zm-1.27-29.33c.342-.35.805-.547 1.289-.548h14.582c.483.001.947.199 1.288.549.341.35.533.824.533 1.318v24c0 .494-.192.967-.533 1.316-.342.35-.805.546-1.288.546H28.617a1.806 1.806 0 0 1-1.287-.547 1.889 1.889 0 0 1-.534-1.315v-24c0-.494.191-.968.533-1.318Z" fill="#6D3DFF"></path><path pid="2" fill-rule="evenodd" clip-rule="evenodd" d="M95.26 12.788a8.972 8.972 0 0 1-.1 1.867c-.027.16-.062.32-.105.477a5.017 5.017 0 0 1-1.43 2.082A6.221 6.221 0 0 1 89.5 18.51c-3.813 0-5.959-2.193-5.959-5.849V7.753c0-3.631 2.146-5.849 5.96-5.849a6.513 6.513 0 0 1 3.699.975 4.763 4.763 0 0 1 2.074 3.997v.638a.691.691 0 0 1-.195.484.661.661 0 0 1-.473.198H93.32a.655.655 0 0 1-.472-.2.682.682 0 0 1-.196-.482v-.6a2.3 2.3 0 0 0-.433-1.247 2.699 2.699 0 0 0-.682-.644 3.747 3.747 0 0 0-2.036-.516c-2.15 0-3.337 1.12-3.337 3.183v4.956c0 2.062 1.192 3.208 3.337 3.208h.477a3.2 3.2 0 0 0 1.907-.8c.248-.236.451-.517.6-.828.15-.463.201-.953.153-1.438a.69.69 0 0 1 .195-.483.66.66 0 0 1 .472-.2h1.287a.66.66 0 0 1 .472.2.69.69 0 0 1 .196.483Zm62.262-6.346c0-2.69-1.602-4.192-4.29-4.192l-5.754.034c-.52 0-.729.2-.729.76v14.399c0 .56.209.76.729.76h5.897c2.812 0 4.686-1.628 4.686-4.387 0-2.061-.691-3.363-2.121-3.899v-.088c1.058-.672 1.582-1.793 1.582-3.387Zm-2.698.404c0 1.321-.634 1.974-1.907 1.974h-3.561V4.872h3.561c1.264 0 1.907.653 1.907 1.974Zm-5.468 4.528h3.938c1.311 0 1.978.746 1.978 2.11 0 1.366-.667 2.063-1.978 2.063h-3.938v-4.173Zm-18.687-6.838c0-.517-.166-.673-.643-.673l-1.125.01c-.482 0-.648.156-.648.673v2.018h-1.431c-.481 0-.624.156-.624.672V8.27c0 .511.148.692.624.692h1.431v4.596c0 1.906.371 3.246 1.082 3.948.71.702 1.94 1.038 3.689.975.501-.025.668-.18.668-.722v-1.028c0-.541-.191-.697-.668-.697-.901 0-1.52-.151-1.854-.487-.334-.337-.501-1.034-.501-2.087V8.953h2.384c.481 0 .648-.205.648-.692V7.227c0-.517-.171-.673-.648-.673h-2.384V4.536Zm-27.663 2.379c0-.541-.171-.697-.648-.697l-.663-.01c-1.319 0-2.63.227-3.875.672a1.093 1.093 0 0 0-.654.474 1.136 1.136 0 0 0-.161.803v9.305c0 .517.171.697.648.697h1.144c.481 0 .624-.18.624-.697v-8.34c0-.155.062-.268.21-.268a6.348 6.348 0 0 1 1.979-.268h.748c.481 0 .648-.18.648-.697v-.974Zm10.617.311c0-.516-.172-.672-.649-.672l-1.125-.04c-.477 0-.643.157-.643.673v8.028a8.37 8.37 0 0 1-2.15.312c-1.516 0-2.269-.755-2.269-2.218V7.187c0-.516-.148-.672-.625-.672h-1.144c-.481 0-.648.156-.648.672v6.21c0 2.895 1.439 4.509 4.357 4.509a10.99 10.99 0 0 0 2.479-.312v1.052c0 1.628-.73 2.438-2.212 2.438a2.286 2.286 0 0 1-1.252-.255 2.358 2.358 0 0 1-.932-.89c-.314-.474-.567-.537-1.044-.269l-.791.487c-.481.244-.562.634-.272 1.122.816 1.433 2.269 2.149 4.334 2.149 3.155 0 4.586-1.799 4.586-4.874V7.227Zm7.131-1.008c2.937 0 4.395 1.593 4.395 4.528v3.075c0 3.115-1.539 4.684-4.643 4.684a8.915 8.915 0 0 1-2.188-.404v4.308c0 .512-.148.692-.624.692h-1.149c-.477 0-.644-.18-.644-.692V8.148a1.136 1.136 0 0 1 .158-.805c.15-.238.384-.409.653-.477a11.257 11.257 0 0 1 4.042-.648Zm1.978 4.596c0-1.462-.772-2.218-2.331-2.218a6.794 6.794 0 0 0-1.878.244.298.298 0 0 0-.205.292v6.658c.657.2 1.336.314 2.021.337 1.602 0 2.384-.805 2.384-2.398l.009-2.915Zm12.228-.112c0-2.803 1.73-4.484 4.791-4.484 3.06 0 4.814 1.681 4.814 4.484v3.319c0 2.803-1.73 4.484-4.814 4.484-3.085 0-4.791-1.681-4.791-4.484v-3.32Zm7.188 0c0-1.37-.877-2.13-2.383-2.13s-2.384.76-2.384 2.13v3.319c0 1.345.854 2.13 2.384 2.13 1.53 0 2.383-.785 2.383-2.13v-3.32Zm17.543 0c0-2.803 1.731-4.484 4.796-4.484 3.065 0 4.81 1.681 4.81 4.484v3.319c0 2.803-1.731 4.484-4.81 4.484-3.08 0-4.796-1.681-4.796-4.484v-3.32Zm7.189 0c0-1.37-.872-2.13-2.384-2.13-1.511 0-2.383.76-2.383 2.13v3.319c0 1.345.853 2.13 2.383 2.13 1.531 0 2.384-.785 2.384-2.13v-3.32Zm13.057-2.086c-.73-1.59-2.226-2.398-4.457-2.398-2.813 0-4.291 1.389-4.295 3.611-.026.45.037.901.187 1.325.15.424.383.813.685 1.142.286.264.62.469.982.604a7.608 7.608 0 0 0 2.35.536c1.855.205 2.503.463 2.503 1.438 0 .872-.73 1.32-2.207 1.32-1.254 0-2.045-.404-2.355-1.232-.191-.517-.439-.605-.854-.424l-.953.312a.64.64 0 0 0-.493.655.66.66 0 0 0 .078.285c.644 1.818 2.207 2.715 4.643 2.715 2.899 0 4.5-1.482 4.5-3.743 0-2.515-1.415-3.32-4.247-3.612-1.816-.18-2.441-.414-2.441-1.389 0-.81.649-1.214 1.96-1.214 1.106 0 1.854.385 2.25 1.17.271.468.4.512.877.312l.953-.404a.65.65 0 0 0 .415-.419.672.672 0 0 0-.081-.59Zm6.04-2.398c2.231 0 3.732.809 4.462 2.398a.679.679 0 0 1-.078.85.647.647 0 0 1-.256.159l-.953.404c-.477.2-.606.156-.878-.312-.395-.785-1.144-1.17-2.25-1.17-1.311 0-1.954.405-1.954 1.214 0 .975.624 1.209 2.436 1.39 2.831.292 4.247 1.096 4.247 3.61 0 2.262-1.601 3.744-4.495 3.744-2.441 0-4.004-.897-4.648-2.715a.648.648 0 0 1 .415-.94l.953-.312c.415-.18.668-.093.854.424.314.828 1.105 1.233 2.354 1.233 1.478 0 2.208-.449 2.208-1.321 0-.975-.644-1.233-2.498-1.438a7.673 7.673 0 0 1-2.355-.536 2.92 2.92 0 0 1-.954-.604 3.341 3.341 0 0 1-.687-1.141 3.391 3.391 0 0 1-.19-1.326c-.024-2.222 1.454-3.611 4.267-3.611ZM89.067 28.57a1.076 1.076 0 0 0-.39-.661 1.033 1.033 0 0 0-.725-.221c-.748 0-1.258.672-1.258 1.691 0 1.019.52 1.687 1.267 1.687.258.025.515-.05.721-.208.206-.159.347-.39.395-.65h.677c-.055.44-.271.84-.605 1.123-.334.282-.76.425-1.192.398-1.178 0-1.964-.897-1.964-2.35 0-1.452.782-2.354 1.954-2.354.436-.024.865.122 1.2.409.334.287.55.693.602 1.136h-.681Zm7.656.473c-1.039.068-1.606.536-1.606 1.33a1.366 1.366 0 0 0 .434 1.022 1.304 1.304 0 0 0 1.039.334c.284.006.565-.07.81-.219.244-.15.443-.366.572-.625v.8h.658v-3.169c0-.906-.653-1.491-1.668-1.491a1.48 1.48 0 0 0-1.089.346 1.546 1.546 0 0 0-.537 1.029h.653a.918.918 0 0 1 .346-.54.881.881 0 0 1 .608-.172c.634 0 .982.317.982.892v.385l-1.202.078Zm1.202.517v.37a1.188 1.188 0 0 1-.354.835 1.136 1.136 0 0 1-.833.32c-.544 0-.887-.268-.887-.712 0-.443.31-.697.953-.74l1.12-.073Zm8.023-2.53a1.396 1.396 0 0 1 1.047.33 1.476 1.476 0 0 1 .511.991h-.662a.84.84 0 0 0-.319-.545.8.8 0 0 0-.601-.157c-.529 0-.887.268-.887.672 0 .313.234.522.725.654l.653.175c.867.234 1.177.56 1.177 1.233 0 .79-.701 1.346-1.692 1.346-.992 0-1.592-.541-1.659-1.34h.696c.071.487.424.725 1.011.725.586 0 .953-.263.953-.677 0-.327-.176-.488-.667-.634l-.754-.21c-.748-.214-1.115-.618-1.115-1.232-.005-.78.648-1.331 1.583-1.331Zm7.328-1.403a.447.447 0 0 0-.092.238.456.456 0 0 0 .439.487.431.431 0 0 0 .239-.073.446.446 0 0 0 .191-.449.442.442 0 0 0-.324-.36.432.432 0 0 0-.453.157Zm.695 1.457h-.692v4.615h.692v-4.615Zm5.868-.015h.653v.746c.129-.26.331-.474.58-.616.248-.141.533-.204.817-.179.953 0 1.53.653 1.53 1.701v2.959h-.691v-2.832c0-.75-.367-1.165-1.044-1.165a1.145 1.145 0 0 0-.873.39 1.188 1.188 0 0 0-.295.926v2.68h-.696l.019-4.61Zm11.178-.044c-1.206 0-1.978.916-1.978 2.354 0 1.428.772 2.35 1.978 2.35s1.974-.912 1.974-2.35c0-1.438-.768-2.354-1.974-2.354Zm0 .663c.797 0 1.273.629 1.273 1.691 0 1.058-.472 1.687-1.273 1.687-.8 0-1.277-.63-1.277-1.687 0-1.058.481-1.691 1.277-1.691Z" fill="#fff"></path><path pid="3" d="M41.674 20.503c0-2.09-.725-3.411-2.174-3.972v-.093c1.087-.692 1.62-1.837 1.62-3.465 0-2.559-1.396-4.065-3.813-4.27V6.671a.666.666 0 0 0-.189-.465.637.637 0 0 0-.455-.193h-2.621a.626.626 0 0 0-.454.193.656.656 0 0 0-.185.465v2.008h-2.58c-.533 0-.743.205-.743.78v14.74c0 .574.21.779.744.779h2.579v1.862c0 .173.067.34.187.462s.282.191.451.191h2.622c.17 0 .333-.069.454-.191a.666.666 0 0 0 .19-.462v-1.862c2.64-.17 4.367-1.789 4.367-4.475Zm-8.896-9.138h3.652c1.301 0 1.96.662 1.96 2.017s-.659 2.023-1.96 2.023h-3.652v-4.04Zm4.033 10.927h-4.033v-4.27h4.033c1.344 0 2.026.712 2.026 2.16 0 1.447-.682 2.12-2.026 2.12v-.01Z" fill="#EEC546"></path></svg>