<svg width="84" height="40" viewBox="0 0 84 40" fill="none" xmlns="http://www.w3.org/2000/svg">
<path d="M6.14576 28C5.28577 28 4.54648 27.6963 3.92789 27.0889C3.3093 26.4815 3 25.7556 3 24.9111V15.0889C3 14.2444 3.3093 13.5185 3.92789 12.9111C4.54648 12.3037 5.28577 12 6.14576 12H16.1262C17.0013 12 17.7482 12.3037 18.3667 12.9111C18.9853 13.5185 19.2946 14.2444 19.2946 15.0889V16.3333H16.2847V15.7333C16.2847 15.3185 16.2545 15.0889 16.1941 15.0444C16.1338 14.9852 15.8999 14.9556 15.4926 14.9556H6.77946C6.357 14.9556 6.1156 14.9852 6.05525 15.0444C6.00999 15.0889 5.98736 15.3185 5.98736 15.7333V24.2667C5.98736 24.6815 6.00999 24.9185 6.05525 24.9778C6.1156 25.0222 6.357 25.0444 6.77946 25.0444H15.4926C15.8999 25.0444 16.1338 25.0222 16.1941 24.9778C16.2545 24.9185 16.2847 24.6815 16.2847 24.2667V21.8889H12.5957V18.9333H19.2946V24.9111C19.2946 25.7556 18.9853 26.4815 18.3667 27.0889C17.7482 27.6963 17.0013 28 16.1262 28H6.14576ZM21.6953 28V12H24.6601V28H21.6953ZM26.5128 28V24.8L38.4396 14.9556H26.5128V12H42.8075V15.2L30.8806 25.0444H42.8075V28H26.5128ZM45.2809 28V12H57.7733C58.6334 12 59.3726 12.3037 59.9913 12.9111C60.6098 13.5185 60.9192 14.2444 60.9192 15.0889V18.2222C60.9192 18.4148 60.9041 18.6 60.8738 18.7778C60.8437 18.9556 60.791 19.1259 60.7154 19.2889C60.9719 19.6296 61.1756 19.9852 61.3264 20.3555C61.4925 20.7259 61.5756 21.0963 61.5756 21.4667V24.9111C61.5756 25.7556 61.2662 26.4815 60.6477 27.0889C60.029 27.6963 59.2822 28 58.4071 28H45.2809ZM49.0604 25.0444H57.7733C58.1807 25.0444 58.4146 25.0222 58.4751 24.9778C58.5353 24.9185 58.5654 24.6815 58.5654 24.2667V22.1111C58.5654 21.6963 58.5353 21.4667 58.4751 21.4222C58.4146 21.363 58.1807 21.3333 57.7733 21.3333H49.0604C48.6378 21.3333 48.3965 21.363 48.336 21.4222C48.2908 21.4667 48.2682 21.6963 48.2682 22.1111V24.2667C48.2682 24.6815 48.2908 24.9185 48.336 24.9778C48.3965 25.0222 48.6378 25.0444 49.0604 25.0444ZM49.0604 18.3778H57.1171C57.5394 18.3778 57.7733 18.3556 57.8187 18.3111C57.8638 18.2519 57.8864 18.0148 57.8864 17.6V15.7333C57.8864 15.3185 57.8638 15.0889 57.8187 15.0444C57.7733 14.9852 57.5394 14.9556 57.1171 14.9556H49.0604C48.6378 14.9556 48.3965 14.9852 48.336 15.0444C48.2908 15.0889 48.2682 15.3185 48.2682 15.7333V17.6C48.2682 18.0148 48.2908 18.2519 48.336 18.3111C48.3965 18.3556 48.6378 18.3778 49.0604 18.3778ZM67.1436 28C66.2834 28 65.5443 27.6963 64.9255 27.0889C64.307 26.4815 63.9976 25.7556 63.9976 24.9111V15.0889C63.9976 14.2444 64.307 13.5185 64.9255 12.9111C65.5443 12.3037 66.2834 12 67.1436 12H77.1466C78.0065 12 78.7459 12.3037 79.3644 12.9111C79.9832 13.5185 80.2923 14.2444 80.2923 15.0889V24.9111C80.2923 25.7556 79.9832 26.4815 79.3644 27.0889C78.7459 27.6963 78.0065 28 77.1466 28H67.1436ZM67.7771 25.0444H76.4903C76.8977 25.0444 77.1316 25.0222 77.1918 24.9778C77.2523 24.9185 77.2824 24.6815 77.2824 24.2667V15.7333C77.2824 15.3185 77.2523 15.0889 77.1918 15.0444C77.1316 14.9852 76.8977 14.9556 76.4903 14.9556H67.7771C67.3548 14.9556 67.1135 14.9852 67.053 15.0444C67.0078 15.0889 66.985 15.3185 66.985 15.7333V24.2667C66.985 24.6815 67.0078 24.9185 67.053 24.9778C67.1135 25.0222 67.3548 25.0444 67.7771 25.0444Z" fill="url(#paint0_linear_1165_111472)"/>
<defs>
<linearGradient id="paint0_linear_1165_111472" x1="1.72012" y1="19.4625" x2="81.5298" y2="19.4625" gradientUnits="userSpaceOnUse">
<stop stop-color="#5CC1ED"/>
<stop offset="0.511635" stop-color="#F3337A"/>
<stop offset="0.707405" stop-color="white"/>
</linearGradient>
</defs>
</svg>
