<svg width="124" height="40" viewBox="0 0 124 40" fill="none" xmlns="http://www.w3.org/2000/svg">
<path fill-rule="evenodd" clip-rule="evenodd" d="M76.1448 1.73145C77.1743 2.69096 78.2796 3.34678 79.497 3.83074C80.7228 4.28558 81.9654 4.42759 83.251 4.33986C83.251 4.33986 81.9023 6.50579 81.4692 8.056C81.0678 9.49311 81.0476 11.8536 81.0476 11.8536L80.9986 11.8196C79.7381 10.9459 78.7225 10.2418 77.618 9.89197C76.4288 9.51531 75.3333 9.49664 74.1405 9.4763C74.0062 9.47401 73.8706 9.4717 73.7336 9.46886C73.7336 9.46886 75.1526 7.33351 75.6292 5.83148C76.1216 4.27965 76.1448 1.73145 76.1448 1.73145ZM41.7235 36.9304C41.6975 36.6447 41.6846 36.3331 41.6846 35.9954V34.8267C41.6846 33.71 41.7105 32.3854 41.7624 30.8531C41.8143 29.2949 41.8922 27.6457 41.996 25.9056L42.3075 20.6075C42.4113 18.8155 42.5151 17.1014 42.619 15.4652C42.9877 10.8158 43.1445 9.03728 43.8745 4.47932C45.5778 3.74888 46.0969 3.57033 48.6146 3.15479C51.1582 2.73925 53.4552 2.53148 55.5057 2.53148C59.6844 2.53148 62.8769 3.3236 65.0831 4.90785C67.2893 6.4921 68.3924 8.79055 68.3924 11.8032C68.3924 13.5173 68.016 14.9587 67.2633 16.1274C66.5106 17.2702 65.4465 18.2181 64.0708 18.9713C67.445 20.6854 69.1321 23.4773 69.1321 27.347C69.1321 29.0611 68.8076 30.5025 68.1588 31.6712C67.5358 32.814 66.7312 33.7359 65.7449 34.4372C64.7586 35.1384 63.7075 35.6578 62.5914 35.9954C61.5013 36.359 60.4631 36.5928 59.4768 36.6967C58.5164 36.8265 57.7637 36.8914 57.2187 36.8914C55.869 36.8914 54.4285 36.7616 52.8972 36.5019C51.3658 36.2422 49.8734 35.8526 48.4199 35.3332V36.8135L41.7235 36.9304ZM55.6614 9.03728C54.727 9.03728 53.7407 9.08922 52.7025 9.1931C51.6903 9.27102 50.678 9.40088 49.6658 9.58267C49.51 11.4786 49.3543 13.6861 49.1986 16.2053C49.536 16.2313 49.8734 16.2443 50.2108 16.2443H51.3009C58.1531 16.2443 61.5791 14.8419 61.5791 12.037C61.5791 11.102 61.0471 10.3748 59.9829 9.85537C58.9447 9.30998 57.5042 9.03728 55.6614 9.03728ZM52.1964 22.3995H50.5223C49.9772 22.3995 49.4192 22.4125 48.8482 22.4384L48.6924 25.8667C48.6665 27.0094 48.6276 28.1391 48.5756 29.2559C50.0291 29.6974 51.4567 30.0221 52.8582 30.2298C54.2598 30.4116 55.4667 30.5025 56.479 30.5025C58.6332 30.5025 60.1776 30.2428 61.112 29.7234C62.0463 29.178 62.5135 28.295 62.5135 27.0743C62.5135 25.568 61.6181 24.4123 59.8272 23.6072C58.0622 22.802 55.5186 22.3995 52.1964 22.3995ZM101.057 34.1839L99.7091 29.2633C102.83 28.4768 117.47 17.9497 115.595 17.7228L114.651 17.6084C113.744 17.4986 112.627 17.44 111.299 17.4327C110.201 17.4077 108.901 17.4943 107.608 17.5805C107.37 17.5963 107.133 17.6121 106.897 17.6272C105.528 17.7149 103.267 18.0399 101.587 18.2815L101.587 18.2815L101.082 18.354L101.082 18.3562C100.173 18.451 99.2341 18.5923 98.2654 18.7801C97.3165 18.9368 96.3606 19.1217 95.3975 19.3348C94.8146 19.4638 94.2346 19.6055 93.6573 19.7598C94.2586 24.1693 95.0798 26.8542 96.1345 30.3029L96.1345 30.303C96.4932 31.4757 96.8789 32.7367 97.2921 34.1839C95.9116 34.3253 94.9528 34.4257 94.2154 34.5029L94.2149 34.503C92.4147 34.6914 91.9352 34.7416 89.8638 34.9143C88.5985 30.061 88.1637 27.0607 87.6345 23.4086L87.6344 23.4082C87.553 22.8464 87.4694 22.2692 87.3802 21.6674C85.5581 22.0706 83.2436 22.848 80.9491 23.7145C81.3712 28.5307 82.2242 32.9634 82.8413 35.6274L75.9435 36.0607C75.5706 33.5922 75.0954 30.0872 74.7207 26.2605C73.2576 26.8977 72.1578 27.4023 71.7167 27.6099C71.7167 27.6099 71.7548 26.2553 71.3707 24.4447C70.9362 22.3959 70.0134 21.3793 70.0134 21.3793C70.7396 21.004 72.2572 20.3992 74.2222 19.6646C74.0971 17.1685 74.057 14.7034 74.1525 12.4479C74.1525 12.4479 75.2271 12.163 76.4389 12.4479C77.8085 12.7698 78.8434 13.2671 80.0307 13.8376L80.0308 13.8376L80.0309 13.8376C80.2959 13.965 80.5686 14.096 80.8542 14.2295C80.7648 15.2403 80.7149 16.2747 80.6979 17.3191C81.5466 17.0169 82.4094 16.7107 83.2728 16.4042L83.2733 16.404C84.4014 16.0035 85.5306 15.6027 86.631 15.2101C86.5226 13.8776 86.4128 12.4788 86.3017 11.0139C86.185 9.52357 86.0769 7.95159 85.9773 6.29792L92.6418 5.42173C92.6291 6.80767 92.6544 8.1852 92.7177 9.55431C92.7755 10.8981 92.8501 12.1982 92.9417 13.4547C94.3609 13.1406 95.6998 12.8843 96.9584 12.6856C97.9766 12.5027 98.9375 12.3661 99.8413 12.276L99.8402 12.2707C103.003 11.6673 107.246 11.6357 109.619 11.6673C112.02 11.6767 114.266 11.808 116.357 12.0611C117.163 12.1587 118.016 12.2876 118.917 12.4478C119.842 12.611 120.706 12.869 121.506 13.2216C122.31 13.5491 122.943 14.0221 123.405 14.6406C123.87 15.234 124.045 16.0095 123.929 16.9672C121.191 22.6106 116.02 25.9595 111.944 28.5994C111.675 28.774 111.41 28.9454 111.151 29.1143C112.545 29.2064 113.923 29.3348 115.283 29.4995C117.222 29.7343 118.931 29.9795 120.408 30.235C121.884 30.4906 122.855 30.7103 123.318 30.8943L122.643 36.7965C115.316 35.3734 108.508 34.2085 101.057 34.1839Z" fill="white"/>
<path fill-rule="evenodd" clip-rule="evenodd" d="M0.692661 13.6692C0.47319 12.7198 0.262826 11.8099 0.0580241 10.9441L17.1247 3.84466C19.6868 2.77887 22.5748 4.08284 23.2698 6.76958C23.5056 7.68108 23.7459 8.64394 23.9972 9.6506L23.9975 9.65168L23.9976 9.65215C24.7895 12.8247 25.6899 16.4322 26.8982 20.2375C29.2737 27.719 30.573 29.9309 33.7467 31.6025L16.4444 38.374C14.1559 39.2696 11.4963 39.4482 9.48143 38.042C7.19598 36.4469 6.51704 34.4976 5.35068 30.9969C3.22022 24.6025 1.83343 18.6037 0.692661 13.6692ZM4.06762 12.644C4.2255 12.8707 4.41045 13.0422 4.624 13.1854C4.8404 13.3233 5.0729 13.402 5.32315 13.4384C5.32315 13.4384 4.97499 13.7979 4.82793 14.0773C4.69159 14.3363 4.59027 14.7882 4.59027 14.7882L4.58227 14.7797C4.37654 14.5599 4.21076 14.3829 4.01333 14.2701C3.80076 14.1486 3.59137 14.0997 3.3634 14.0465L3.36339 14.0465L3.28564 14.0282C3.28564 14.0282 3.64602 13.6774 3.79944 13.409C3.95796 13.1318 4.06762 12.644 4.06762 12.644ZM13.5436 17.6959C14.1158 18.4366 14.7704 18.9861 15.517 19.435C16.2724 19.8657 17.0724 20.093 17.9255 20.1741C17.9255 20.1741 16.8071 21.4498 16.3559 22.4203C15.9376 23.32 15.67 24.8667 15.67 24.8667L15.6415 24.8391C14.9086 24.1298 14.318 23.5582 13.631 23.2095C12.8913 22.8341 12.1744 22.7036 11.394 22.5616L11.394 22.5616C11.3061 22.5456 11.2174 22.5295 11.1277 22.5128C11.1277 22.5128 12.289 21.2648 12.7635 20.3306C13.2538 19.3654 13.5436 17.6959 13.5436 17.6959ZM26.9415 29.9771C26.7192 29.8813 26.5186 29.7544 26.3335 29.5718C26.3335 29.5718 26.3158 30.0421 26.2168 30.3259C26.1209 30.6006 25.8476 30.9872 25.8476 30.9872L25.9227 30.9907C26.1429 31.0008 26.3451 31.0101 26.5627 31.0859C26.7648 31.1563 26.9486 31.2917 27.1768 31.4597L27.1857 31.4662C27.1857 31.4662 27.2018 31.0306 27.2835 30.7675C27.3716 30.4836 27.632 30.091 27.632 30.091C27.3941 30.1004 27.1654 30.0676 26.9415 29.9771ZM33.1849 28.2912C32.2599 25.7647 31.5038 22.6201 31.3084 18.5243C31.1717 15.6574 31.1683 13.0925 31.1652 10.7828L31.1652 10.7827C31.1644 10.173 31.1636 9.58112 31.1604 9.00615C31.1573 8.45158 31.0553 7.92673 30.8721 7.44458C32.6377 8.24646 33.7946 10.0805 33.5302 12.1473C33.376 13.3531 33.1872 14.9 32.9552 17.2629C32.5181 21.7156 32.6863 25.4814 33.1849 28.2912ZM27.8911 16.4951C28.9864 22.4003 30.8068 26.3632 32.571 29.3363C31.2532 26.1613 30.0954 21.0229 29.7661 14.4689C29.6039 11.241 29.5606 9.3209 29.5267 7.81425L29.5243 7.70649C29.47 5.29799 27.5773 3.48374 25.2832 3.29736C25.7369 3.87812 26.0527 4.58435 26.1719 5.38436C26.2947 6.20913 26.4164 7.06695 26.543 7.95927C26.905 10.5113 27.307 13.3454 27.8911 16.4951Z" fill="#FF3939"/>
</svg>
