<svg xmlns="http://www.w3.org/2000/svg" width="71" height="28" fill="none"><path fill="#EF4136" d="M38.475 22.108c-.374.795-.993 1.456-1.798 1.808-2.238.98-4.875 1.66-7.685 1.66-5.414 0-10.372-3.012-9.105-9.903 1.315-7.148 8.37-13.43 17.027-13.43 4.346 0 7.254 1.675 8.54 3.562.095.141.04.35-.118.48l-4.372 3.561c-.17.139-.4.136-.523.001-1.088-1.188-2.692-2.059-4.968-2.059-4.572 0-8.359 3.494-9.119 7.628-.578 3.142 1.424 4.776 4.212 4.776 1.103 0 2.02-.195 2.796-.479a.893.893 0 0 0 .485-.447l1.308-2.696h-3.9c-.241 0-.376-.225-.273-.456l1.71-3.822a.463.463 0 0 1 .407-.273h9.635c.244 0 .379.231.27.464l-4.529 9.625Z"/><path fill="#EF4136" fill-rule="evenodd" d="M68.814 12.307c-1.256 6.827-8.07 13.206-15.948 13.206-6.452 0-10.027-4.36-8.978-10.065 1.256-6.826 8.07-13.205 15.948-13.205 6.452 0 10.027 4.36 8.978 10.064Zm-18.418 2.66c-.525 2.853.837 4.969 4.047 4.969 3.987 0 7.25-3.814 7.863-7.148.525-2.852-.837-4.968-4.047-4.968-3.955 0-7.25 3.814-7.863 7.148Z" clip-rule="evenodd"/><path fill="#fff" fill-rule="evenodd" d="M18.603 2.243c.078 0 .121.074.087.148L9.325 22.147c-.936 2.026-3.057 3.43-5.182 3.43H.365l8.064-16.96c.02-.042-.02-.077-.061-.055a.06.06 0 0 1-.014.005l-4.966 1.23a.402.402 0 0 1-.083.01c-.383.006-.224-.54-.058-.903l1.692-3.716c.142-.311.222-.748.554-.831l7.646-1.918c.409-.128.846-.196 1.313-.196h4.151Z" clip-rule="evenodd"/></svg>