<svg xmlns="http://www.w3.org/2000/svg" fill="none" viewBox="0 0 155 32"><g fill-rule="evenodd" clip-path="url(#a)" clip-rule="evenodd"><path fill="#fff" d="M54.5401 19.6699c-.2519-.3252-.5202-.6665-.8046-1.016-.2845-.3577-.569-.7234-.8535-1.1054.7234-.4308 1.3005-.9673 1.7313-1.6256.4308-.6584.6502-1.4062.6502-2.2434 0-1.4468-.512-2.6009-1.5443-3.4625-1.0323-.86158-2.5603-1.29237-4.6005-1.29237-.7477 0-1.4549.04064-2.1214.12192-.6665.08128-1.2436.21133-1.7475.39015-.2926.10566-.5283.24384-.699.4064-.1707.1707-.252.4064-.252.7153v10.4851c0 .6909.1545 1.1704.4552 1.4387.3007.2682.8453.3982 1.6256.3982.3576 0 .699-.0243 1.0404-.065.3414-.0406.5852-.0894.7478-.13v-4.316h1.1704l1.8776 3.0317c.13.2195.2763.4308.4226.6178.1463.195.3089.3576.4877.4876.1788.1301.382.2358.6177.3089.2358.0732.5121.1138.8372.1138.4877 0 .9266-.1382 1.3168-.4064.3901-.2763.6583-.6665.8046-1.1867-.13-.2194-.3007-.4714-.4958-.7559-.1869-.2845-.4145-.5852-.6665-.9103Zm-3.7795-4.6818c-.3983.2845-.9103.4308-1.5281.4308h-1.1054v-3.3162c.1626-.0325.317-.0488.4715-.065.1544-.0163.3169-.0244.4958-.0244.7802 0 1.3492.1463 1.715.4308.3576.2844.5445.7152.5445 1.2761.0082.5527-.195.9835-.5933 1.2679Zm17.776 1.2355c-.3089-1.081-.6178-2.1377-.9266-3.1537-.3089-1.016-.5934-1.9019-.8616-2.6578-.1626-.47147-.5283-.81284-1.0973-1.0323-.5689-.21133-1.2192-.31699-1.9588-.31699-.5121 0-1.0242.06502-1.5362.19507-.5121.13005-.886.27635-1.1379.42266-.1057.26822-.2439.65026-.4308 1.16226-.187.5121-.3902 1.0811-.6096 1.7232-.2195.6421-.4552 1.3167-.7072 2.032-.2519.7153-.4876 1.4143-.7071 2.1051-.2195.6828-.4227 1.3249-.6096 1.9264-.1869.5933-.3251 1.0973-.4308 1.4955-.0731.2764-.1382.5202-.1951.7316-.0569.2032-.0894.4145-.0894.6177 0 .4552.1788.8128.5446 1.0729.3576.2601.9185.3901 1.6663.3901.3251 0 .6014-.0244.829-.0812.2276-.0488.447-.1138.6502-.187.1057-.3983.2114-.8291.317-1.2842.1138-.4552.2358-.951.3902-1.4793h3.999l.3982 1.528c.1301.5202.3414.8941.6178 1.1298.2763.2358.7803.3577 1.5037.3577.4876 0 .9103-.065 1.2598-.187.3576-.1219.6177-.2926.7965-.4958-.2194-.8128-.4795-1.7475-.7721-2.796-.2926-1.0648-.5934-2.1296-.9022-3.2187Zm-6.2749.699c.2358-.8372.4796-1.6256.7316-2.3653.2519-.7396.4795-1.4061.6827-2.0157h.1301c.1625.5933.3495 1.2598.5608 1.9995.2113.7478.4227 1.5362.634 2.3815h-2.7392Zm24.8962 1.8451c-.0651-.7885-.1382-1.6094-.2114-2.4628-.0731-.8535-.1463-1.6663-.2194-2.4303-.0732-.764-.1463-1.4549-.2114-2.0645-.065-.6096-.13-1.0648-.1869-1.3574-.0732-.3983-.3414-.70714-.7965-.91847-.4552-.21132-1.0486-.31699-1.772-.31699-.4307 0-.8128.04064-1.1623.12192-.3495.08128-.6339.17882-.8534.30074-.2926.7803-.6177 1.7475-.9754 2.9098-.3576 1.1542-.7071 2.3572-1.0647 3.5926h-.1138c-.1219-.382-.252-.8128-.3983-1.2923-.1463-.4796-.3007-.9592-.4552-1.4468-.1544-.4877-.3088-.9591-.4633-1.4143-.1544-.4552-.3007-.8616-.4307-1.2192-.2032-.5446-.5284-.94286-.9754-1.1867-.4389-.24384-1.0567-.36576-1.8369-.36576-.7234 0-1.2843.11379-1.6825.33325-.3983.21946-.6584.43078-.7722.61771-.0569.9429-.1219 1.9751-.1951 3.0968-.0731 1.1217-.1463 2.2108-.2113 3.2756-.065 1.0648-.1219 2.032-.1626 2.9098-.0406.8778-.065 1.5443-.065 1.9995 0 .5446.1788.9185.5446 1.1298.3576.2032.8616.3089 1.5118.3089.3089 0 .6177-.0244.9266-.0813.3089-.0488.5608-.1138.7478-.187.0406-.8371.0813-1.6093.0975-2.3002.0244-.6909.0406-1.3818.0406-2.0564.0082-.6746.0244-1.3736.0407-2.0889.0244-.7152.0569-1.5118.0975-2.3815h.1138c.1463.6015.3576 1.3086.6177 2.1133.2683.8047.6015 1.8532 1.016 3.1537.1057.3251.3252.5527.6747.6827.3495.1301.7884.1951 1.3167.1951.3983 0 .7478-.0488 1.0485-.1463.3008-.0975.5527-.2276.7397-.3902.3982-1.3573.7396-2.4709 1.016-3.3406.2763-.8697.4958-1.5931.6421-2.1702h.1138c.0406.8697.0813 1.9508.0975 3.2269.0244 1.2842.0813 2.731.1626 4.3322.0325.5608.2357.9347.6177 1.1298.382.1951.8535.2845 1.4143.2845.4308 0 .7803-.0325 1.0485-.0976.2764-.065.5364-.1706.7884-.3169-.0162-.3577-.0406-.8616-.0894-1.5119-.0081-.6583-.065-1.3736-.13-2.1701Zm12.3708.9428h-5.6815v-2.3246h4.0478c.4145 0 .7396-.1219.9753-.3658.2357-.2438.3577-.6339.3577-1.1867 0-.3088-.0407-.5933-.122-.8371-.0812-.252-.1706-.4552-.2763-.6178h-4.9744v-2.0564h4.6655c.4146 0 .7397-.1219.9754-.3738.2357-.252.3576-.6503.3576-1.1949 0-.3088-.0406-.5933-.1219-.83715-.0813-.25197-.1707-.45517-.2764-.61773h-7.2908c-.634 0-1.1379.18694-1.5037.55271-.3657.36577-.5527.86967-.5527 1.50367v9.3554c0 .6339.187 1.1379.5527 1.5036.3658.3658.8697.5527 1.5037.5527h6.4537c.4145 0 .7396-.1219.9753-.3657.2357-.2439.3577-.634.3577-1.1867 0-.3089-.0407-.5934-.122-.8616-.1056-.2682-.195-.4795-.3007-.6421ZM114.127 9.4367c-.285-.2601-.805-.39015-1.561-.39015-.341 0-.675.02439-.992.06503-.325.04064-.569.08128-.731.11379v4.62483c0 .5771 0 1.1786.008 1.8044.008.6259.041 1.2924.098 1.9995l-.09.0244c-.203-.5283-.398-.9997-.577-1.4061-.179-.4064-.374-.8372-.593-1.2924l-2.211-4.4704c-.293-.60148-.691-.99162-1.187-1.16231-.496-.17069-1.016-.25197-1.56-.25197-.488 0-.943.07315-1.374.21946-.431.1463-.748.36576-.951.66649V21.1085c0 .6665.146 1.1217.431 1.3818.284.2601.804.3901 1.56.3901.342 0 .667-.0243.992-.065.325-.0406.569-.0813.732-.1138v-3.5194c0-.7234 0-1.4793-.009-2.2677-.008-.7884-.048-1.65-.122-2.5766l.155-.0406c.203.5283.398.9997.577 1.4061.179.4064.374.8372.593 1.2924l2.187 4.4704c.309.6177.707 1.0078 1.195 1.1704.487.1626.999.2438 1.544.2438.544 0 1.016-.0569 1.406-.1625.39-.1138.691-.2682.894-.4796V10.8185c.016-.6665-.122-1.12171-.414-1.3818Zm12.46 6.161c.666-.2682 1.178-.634 1.544-1.0972.366-.4633.553-1.0323.553-1.6907 0-1.3248-.512-2.3083-1.528-2.94232-1.016-.63398-2.471-.95098-4.357-.95098-.796 0-1.569.04064-2.324.12192-.748.08128-1.382.21133-1.878.39015-.293.10566-.528.24384-.699.4064-.171.17073-.252.40643-.252.71523v10.3307c0 .7641.406 1.3087 1.219 1.6175.293.1219.618.2113.976.2764.357.065.707.1219 1.073.1625.357.0407.707.0732 1.048.0894.341.0163.634.0244.886.0244 2.032 0 3.593-.3495 4.674-1.0485 1.081-.699 1.625-1.78 1.625-3.2431 0-1.5443-.853-2.6009-2.56-3.1618Zm-5.178-3.6738c.163-.0325.39-.0488.675-.0651.284-.0162.545-.0243.764-.0243.666 0 1.162.1219 1.496.3576.333.2357.495.5527.495.951 0 .4551-.146.8046-.43 1.0404-.285.2357-.748.3576-1.382.3576h-1.618v-2.6172Zm3.195 7.7947c-.391.2439-.878.3658-1.472.3658-.292 0-.601-.0081-.926-.0325-.325-.0244-.593-.065-.797-.1219v-2.6985h1.967c1.211 0 1.813.447 1.813 1.3492 0 .5202-.195.9022-.585 1.1379Zm16.394-.0081h-5.682v-2.3246h4.048c.415 0 .74-.1219.975-.3658.236-.2438.358-.6339.358-1.1867 0-.3088-.041-.5933-.122-.8371-.081-.252-.171-.4552-.276-.6178h-4.975v-2.0564h4.666c.414 0 .74-.1219.975-.3738.236-.252.358-.6503.358-1.1949 0-.3088-.041-.5933-.122-.83715-.081-.25197-.171-.45517-.276-.61773h-7.291c-.634 0-1.138.18694-1.504.55271-.366.36577-.553.86967-.553 1.50367v9.3554c0 .6339.187 1.1379.553 1.5036.366.3658.87.5527 1.504.5527h6.454c.414 0 .739-.1219.975-.3657.236-.2439.358-.634.358-1.1867 0-.3089-.041-.5934-.122-.8616-.106-.2682-.195-.4795-.301-.6421Zm13.183-9.77799c-.081-.26823-.17-.47956-.276-.64212H144.2c-.414 0-.739.12192-.983.37389s-.366.65842-.366 1.21922c0 .3088.041.5933.122.8616.081.2682.171.4795.276.6421h3.341v8.6482c0 .6909.154 1.1704.455 1.4386.301.2683.845.3983 1.626.3983.357 0 .699-.0244 1.04-.065.341-.0407.585-.0894.748-.1301v-10.29h2.495c.415 0 .74-.122.984-.3739.243-.252.365-.6584.365-1.2192 0-.3089-.04-.5934-.122-.86159Z"/><path fill="url(#b)" d="M31.6093 7.79469c-3.747-1.60934-7.3477-.03251-8.2499.63399 0 0 .4633 1.0729.829 1.77192 1.3249-1.06478 4.2835-1.73128 6.8194-.53646 2.7636 1.29236 3.5601 4.50296 3.6902 5.06376.894-.3414 1.7719-.9103 1.7637-.9103-.2438-.9429-1.1867-4.44607-4.8524-6.02291Z"/><path fill="#fff" d="M21.3933 2.47899c-.1057-.4633-.3658-1.04852-1.2273-.93472-.252.03251-3.934.77216-5.4621 1.18669-.2926-.63399-.5933-1.30049-.894-2.02388-.252-.585217-.5771-.869698-1.6175-.6339854C11.4283.251911 4.78776 1.81249.772519 3.178c-.585218.19507-.999746.65837-.6908818 1.6256C.349862 5.65704 1.85355 9.94051 5.07224 14.4841c2.16205.8778 3.38938 1.146 3.38125 1.1379C4.00747 10.0543 2.35748 5.12872 2.30871 4.99867c-.04876-.13005-.01625-.17881.10567-.21945C6.11263 3.60878 11.8998 2.23515 12.038 2.20263c.1381-.03251.1869-.00812.2519.14631 2.3571 5.42951 4.6167 8.63196 5.1207 9.31466.0081.0082.6502-.3901 1.9344-.8046-.6746-.98352-1.9913-2.77168-3.7632-6.29924.8372-.23571 3.812-.84531 3.8689-.86157.0569-.01626.1869.00813.2195.13005.0325.12192.6502 2.87732 2.3896 6.44556.8047-.122 2.1133-.0976 2.1133-.1057-1.0567-2.12142-2.1621-4.94997-2.7798-7.68911Z"/><path fill="url(#c)" d="M35.9421 1.22714c-.5609.6665-6.7381 8.20117-7.9167 9.63986.951.3088 1.9426.8209 1.9426.8209.9266-1.1135 6.8519-8.29058 7.6078-9.2253.9022-1.12979-.6096-2.45466048-1.6337-1.23546Zm2.2108 5.15316c-.699.56084-6.4699 5.2507-7.2014 5.844.9916.5934 1.8044 1.3005 1.8125 1.2924.569-.4877 5.6896-4.61671 6.8032-5.51892 1.3086-1.03226-.1707-2.60909-1.4143-1.61748Z"/><path fill="url(#d)" d="M22.3599 10.2171c-6.5512.6827-9.2497 4.9662-9.9244 6.1854 1.0567.1626 2.1458.2601 2.1458.2601 2.1133-2.983 5.015-4.2509 8.0305-4.5354 3.2837-.3089 7.0226.9591 9.5504 3.4463 0 0 1.3818-.3658 2.0564-.6584-.1219-.2113-4.6898-5.44578-11.8587-4.698Zm.6258 3.3406c-3.7795.2845-5.9009 2.6904-6.2911 3.2675 0 0 1.6581.0813 2.6985.0813.6178-.4715 1.6012-1.2436 3.7389-1.3981 2.219-.1625 3.9421.7803 4.2835.9754 1.2192-.1138 2.8123-.4389 2.8123-.4389-.2601-.2276-3.235-2.7879-7.2421-2.4872Z"/><path fill="url(#e)" d="M38.4379 11.9075c-.4632-.2926-1.3492-.7559-2.3246-1.1136-.0081 0-.6583.5284-.6583.5365.4389.6909.7234 1.5687.7234 1.5687.4714.2276.894.4633.8859.4633-1.6418 1.4224-6.7381 3.617-17.6215 3.5357-11.43615-.0894-15.90656-3.2187-16.14227-3.3569 0 0 .47956-.2438.8697-.3901 0 0-.23571-.3739-.49581-.7966-.26822-.4308-.52832-.8859-.52832-.8859-.55271.2194-1.35738.634-1.75565.8941-.487683.3169-.804675.6827-.796547 1.4305C.707695 24.2296 8.7463 31.9999 20.3775 31.9999c10.5502 0 18.8082-7.6322 19.1171-18.0767.0406-1.2679-.5121-1.6662-1.0567-2.0157Zm-2.796 8.892c-.0081.0163-6.0147 3.2269-15.3619 3.2269-6.5837 0-12.54157-1.5688-15.86593-3.2106-.00813-.0081-1.12167-1.9995-1.49555-4.9825 0-.0081 4.89306 3.2268 17.63778 3.2268 7.9736 0 13.6876-1.4711 16.6218-3.1861.0081 0-.2763 2.6903-1.5362 4.9255Z"/><path fill="url(#f)" d="M12.0863 7.94096c-.5771-.00813-.9185.28448-1.1298.6096-.0976-.1463-.2683-.42266-.3577-.58522-.1138-.19507-.0162-.30886.0569-.35763.3414-.24384.4633-.33325.6421-.52019.1951-.19508.1951-.58522 0-.82093-.2113-.25197-.6908-.33325-.9591-.07315-.83715.79654-1.66621.70713-2.36521.73152-.39015.01625-.67463.30073-.65837.64211.02438.47143.38201.63399.6096.65837.21133.02438.62585.01626.87782-.01626.34138-.04876.44704.06503.5202.17882.06502.09754.18694.3495.34137.56083-1.12166-.21945-1.8857.42266-1.98323 1.18667-.19508 1.5606 2.08077 2.7554 4.95812 2.7798.0812 0 .1219-.0244.1625-.0894.1788-.3251.5934-1.0241.8453-2.0483.2683-1.13789.2032-2.80413-1.5605-2.83664Z"/></g><defs><linearGradient id="b" x1="29.9124" x2="29.9124" y1="14.7331" y2="7.09556" gradientUnits="userSpaceOnUse"><stop offset=".00025764" stop-color="#F09F48"/><stop offset="1" stop-color="#FED57D"/></linearGradient><linearGradient id="c" x1="30.2994" x2="39.459" y1="12.9154" y2="2.74259" gradientUnits="userSpaceOnUse"><stop offset="2.1e-7" stop-color="#CB2509"/><stop offset="1" stop-color="#EA3112"/></linearGradient><linearGradient id="d" x1="23.3235" x2="23.3235" y1="16.9076" y2="10.1456" gradientUnits="userSpaceOnUse"><stop offset="2.9e-7" stop-color="#FABF63"/><stop offset="1" stop-color="#FFE09E"/></linearGradient><linearGradient id="e" x1="20.0499" x2="20.0499" y1="32" y2="10.7966" gradientUnits="userSpaceOnUse"><stop stop-color="#8D45DE"/><stop offset="1" stop-color="#B846D5"/></linearGradient><linearGradient id="f" x1="12.5059" x2="8.68529" y1="13.0341" y2="6.41662" gradientUnits="userSpaceOnUse"><stop offset="0" stop-color="#E54C0C"/><stop offset="1" stop-color="#F8882D"/></linearGradient><clipPath id="a"><path fill="#fff" d="M0 0h154.302v32H0z"/></clipPath></defs></svg>
