<?xml version="1.0" encoding="utf-8"?>
<!-- Generator: Adobe Illustrator 17.0.0, SVG Export Plug-In . SVG Version: 6.00 Build 0)  -->
<!DOCTYPE svg PUBLIC "-//W3C//DTD SVG 1.1//EN" "http://www.w3.org/Graphics/SVG/1.1/DTD/svg11.dtd">
<svg version="1.1" id="Layer_1" xmlns="http://www.w3.org/2000/svg" xmlns:xlink="http://www.w3.org/1999/xlink" x="0px" y="0px"
	 width="235px" height="80px" viewBox="0 0 235 80" enable-background="new 0 0 235 80" xml:space="preserve">
<g>
	<g>
		<circle fill="#3D2600" cx="39.874" cy="5.129" r="1.88"/>
		<path fill="#3D2600" d="M61.777,9.961C56.951,6.462,51.234,4.122,45.033,3.36l-0.341,3.986c5.342,0.688,10.261,2.712,14.458,5.69
			L61.777,9.961z"/>
		<path fill="#3D2600" d="M16.044,17.227c1.041,0,1.882-0.84,1.882-1.878c0-1.04-0.84-1.88-1.882-1.88
			c-0.488,0-0.93,0.19-1.262,0.495c-0.077,0.078-0.145,0.164-0.221,0.242c-0.243,0.318-0.395,0.71-0.395,1.143
			C14.167,16.386,15.007,17.227,16.044,17.227z"/>
		<path fill="#3D2600" d="M35.152,7.534L34.628,3.58c-5.933,0.99-11.371,3.443-15.956,6.956l2.445,3.107
			C25.159,10.568,29.939,8.418,35.152,7.534z"/>
		<path fill="#3D2600" d="M72.372,34.239l3.961-0.35c-0.936-6.268-3.467-12.021-7.196-16.81l-2.985,2.693
			C69.327,23.922,71.515,28.86,72.372,34.239z"/>
		<path fill="#3D2600" d="M14.437,20.481l-3.15-2.37c-3.306,4.576-5.571,9.952-6.438,15.781l3.894,0.441
			C9.538,29.222,11.535,24.504,14.437,20.481z"/>
		<circle fill="#3D2600" cx="64.31" cy="14.744" r="1.879"/>
		<path fill="#3D2600" d="M74.783,37.211c-1.038,0-1.878,0.839-1.878,1.879c0,1.039,0.84,1.879,1.878,1.879
			c1.041,0,1.882-0.84,1.882-1.879C76.665,38.052,75.825,37.211,74.783,37.211z"/>
		<path fill="#3D2600" d="M64.487,61.898c-1.038,0-1.879,0.839-1.879,1.879c0,1.039,0.842,1.879,1.879,1.879
			c0.49,0,0.932-0.191,1.266-0.496c0.042-0.041,0.082-0.082,0.122-0.123c0.304-0.333,0.494-0.772,0.494-1.26
			C66.369,62.738,65.529,61.898,64.487,61.898z"/>
		<path fill="#3D2600" d="M6.462,40.986c1.025,0,1.852-0.815,1.877-1.831c0-0.022,0.004-0.043,0.004-0.064
			c-0.01-1.033-0.845-1.863-1.88-1.863c-1.038,0-1.879,0.839-1.879,1.88C4.583,40.145,5.425,40.986,6.462,40.986z"/>
		<path fill="#3D2600" d="M44.865,71.21l0.172,3.871c6.245-0.771,12.007-3.113,16.851-6.658l-2.649-2.903
			C55.074,68.498,50.171,70.494,44.865,71.21z"/>
		<path fill="#3D2600" d="M66.25,58.67l3.01,2.545c3.748-4.878,6.289-10.731,7.154-17.113l-3.971-0.165
			C71.649,49.418,69.447,54.442,66.25,58.67z"/>
		<path fill="#3D2600" d="M39.874,71.575c-1.038,0-1.878,0.839-1.878,1.88c0,1.038,0.84,1.878,1.878,1.878
			c1.041,0,1.882-0.84,1.882-1.878C41.756,72.416,40.916,71.575,39.874,71.575z"/>
		<path fill="#3D2600" d="M18.43,67.752c4.673,3.641,10.257,6.165,16.352,7.156l0.329-3.856c-5.228-0.895-10.012-3.074-14.063-6.169
			L18.43,67.752z"/>
		<path fill="#3D2600" d="M8.695,44.058l-3.879,0.161c0.833,5.988,3.115,11.517,6.514,16.198l2.952-2.495
			C11.412,53.888,9.457,49.165,8.695,44.058z"/>
		<path fill="#3D2600" d="M16.022,61.085c-1.038,0-1.878,0.839-1.878,1.879c0,1.039,0.84,1.879,1.878,1.879
			c1.041,0,1.882-0.84,1.882-1.879C17.904,61.925,17.064,61.085,16.022,61.085z"/>
	</g>
	<path fill="#115417" d="M69.828,39.297c0-16.141-13.131-29.271-29.271-29.271c-16.139,0-29.27,13.131-29.27,29.271
		c0,16.139,13.131,29.27,29.27,29.27C56.698,68.567,69.828,55.436,69.828,39.297z"/>
	<path fill="#020202" d="M39.327,1.271C17.697,1.271,0.1,18.869,0.1,40.5c0,21.632,17.597,39.232,39.227,39.232
		c21.633,0,39.232-17.6,39.232-39.232C78.559,18.869,60.96,1.271,39.327,1.271z M67.865,18.35c3.73,4.789,6.261,10.541,7.196,16.81
		l-3.961,0.35c-0.856-5.378-3.045-10.317-6.221-14.466L67.865,18.35z M75.394,40.362c0,1.039-0.84,1.879-1.882,1.879
		c-1.038,0-1.878-0.84-1.878-1.879c0-1.04,0.84-1.879,1.878-1.879C74.554,38.482,75.394,39.323,75.394,40.362z M13.29,15.477
		c0.076-0.078,0.144-0.164,0.221-0.242c0.333-0.305,0.775-0.495,1.262-0.495c1.041,0,1.882,0.84,1.882,1.88
		c0,1.038-0.84,1.878-1.882,1.878c-1.038,0-1.878-0.84-1.878-1.878C12.896,16.186,13.047,15.794,13.29,15.477z M39.286,11.296
		c16.141,0,29.271,13.131,29.271,29.271c0,16.139-13.131,29.27-29.271,29.27c-16.139,0-29.27-13.131-29.27-29.27
		C10.016,24.427,23.147,11.296,39.286,11.296z M63.039,14.136c1.041,0,1.882,0.84,1.882,1.88c0,1.038-0.84,1.878-1.882,1.878
		c-1.038,0-1.879-0.84-1.879-1.878C61.16,14.975,62.001,14.136,63.039,14.136z M43.762,4.631c6.201,0.762,11.918,3.102,16.744,6.601
		l-2.628,3.075c-4.197-2.978-9.115-5.002-14.458-5.69L43.762,4.631z M38.603,4.52c1.041,0,1.882,0.842,1.882,1.88
		s-0.84,1.879-1.882,1.879c-1.038,0-1.878-0.84-1.878-1.879C36.725,5.361,37.566,4.52,38.603,4.52z M33.881,8.805
		c-5.213,0.884-9.993,3.033-14.034,6.108l-2.445-3.107c4.585-3.513,10.023-5.965,15.956-6.956L33.881,8.805z M10.016,19.383
		l3.15,2.37c-2.902,4.023-4.899,8.74-5.695,13.852l-3.894-0.441C4.445,29.335,6.709,23.959,10.016,19.383z M5.191,38.498
		c1.035,0,1.871,0.83,1.88,1.863c0,0.021-0.004,0.042-0.004,0.064c-0.025,1.015-0.851,1.831-1.877,1.831
		c-1.038,0-1.879-0.84-1.879-1.878C3.312,39.337,4.154,38.498,5.191,38.498z M10.059,61.688c-3.398-4.681-5.681-10.21-6.514-16.198
		l3.879-0.161c0.762,5.107,2.717,9.83,5.587,13.864L10.059,61.688z M14.751,66.114c-1.038,0-1.878-0.84-1.878-1.879
		c0-1.04,0.84-1.879,1.878-1.879c1.041,0,1.882,0.84,1.882,1.879C16.633,65.274,15.793,66.114,14.751,66.114z M33.511,76.179
		c-6.094-0.99-11.679-3.515-16.352-7.156l2.618-2.87c4.051,3.094,8.835,5.274,14.063,6.169L33.511,76.179z M38.603,76.605
		c-1.038,0-1.878-0.84-1.878-1.878c0-1.041,0.84-1.88,1.878-1.88c1.041,0,1.882,0.84,1.882,1.88
		C40.485,75.764,39.645,76.605,38.603,76.605z M43.767,76.353l-0.172-3.871c5.306-0.716,10.209-2.712,14.374-5.69l2.649,2.903
		C55.774,73.24,50.011,75.582,43.767,76.353z M64.604,66.308c-0.04,0.041-0.079,0.082-0.122,0.123
		c-0.334,0.305-0.776,0.496-1.266,0.496c-1.038,0-1.879-0.84-1.879-1.879c0-1.04,0.842-1.879,1.879-1.879
		c1.041,0,1.882,0.84,1.882,1.879C65.098,65.536,64.908,65.975,64.604,66.308z M67.989,62.486l-3.01-2.545
		c3.197-4.229,5.399-9.252,6.194-14.733l3.971,0.165C74.278,51.754,71.737,57.608,67.989,62.486z"/>
	<path fill="#D3B775" d="M40.598,0C18.968,0,1.371,17.598,1.371,39.229c0,21.632,17.597,39.232,39.227,39.232
		c21.633,0,39.232-17.6,39.232-39.232C79.83,17.598,62.231,0,40.598,0z M69.136,17.079c3.73,4.789,6.261,10.541,7.196,16.81
		l-3.961,0.35c-0.856-5.378-3.045-10.317-6.221-14.466L69.136,17.079z M76.665,39.091c0,1.039-0.84,1.879-1.882,1.879
		c-1.038,0-1.878-0.84-1.878-1.879c0-1.04,0.84-1.879,1.878-1.879C75.825,37.211,76.665,38.052,76.665,39.091z M14.561,14.206
		c0.076-0.078,0.144-0.164,0.221-0.242c0.333-0.305,0.775-0.495,1.262-0.495c1.041,0,1.882,0.84,1.882,1.88
		c0,1.038-0.84,1.878-1.882,1.878c-1.038,0-1.878-0.84-1.878-1.878C14.167,14.915,14.318,14.523,14.561,14.206z M40.557,10.025
		c16.141,0,29.271,13.131,29.271,29.271c0,16.139-13.131,29.27-29.271,29.27c-16.139,0-29.27-13.131-29.27-29.27
		C11.287,23.156,24.418,10.025,40.557,10.025z M64.31,12.865c1.041,0,1.882,0.84,1.882,1.88c0,1.038-0.84,1.878-1.882,1.878
		c-1.038,0-1.879-0.84-1.879-1.878C62.431,13.704,63.272,12.865,64.31,12.865z M45.033,3.36c6.201,0.762,11.918,3.102,16.744,6.601
		l-2.628,3.075c-4.197-2.978-9.115-5.002-14.458-5.69L45.033,3.36z M39.874,3.249c1.041,0,1.882,0.842,1.882,1.88
		s-0.84,1.879-1.882,1.879c-1.038,0-1.878-0.84-1.878-1.879C37.996,4.09,38.837,3.249,39.874,3.249z M35.152,7.534
		c-5.213,0.884-9.993,3.033-14.034,6.108l-2.445-3.107C23.257,7.023,28.695,4.57,34.628,3.58L35.152,7.534z M11.287,18.112
		l3.15,2.37c-2.902,4.023-4.899,8.74-5.695,13.852l-3.894-0.441C5.716,28.064,7.98,22.688,11.287,18.112z M6.462,37.227
		c1.035,0,1.871,0.83,1.88,1.863c0,0.021-0.004,0.042-0.004,0.064c-0.025,1.015-0.851,1.831-1.877,1.831
		c-1.038,0-1.879-0.84-1.879-1.878C4.583,38.066,5.425,37.227,6.462,37.227z M11.33,60.417c-3.398-4.681-5.681-10.21-6.514-16.198
		l3.879-0.161c0.762,5.107,2.717,9.83,5.587,13.864L11.33,60.417z M16.022,64.843c-1.038,0-1.878-0.84-1.878-1.879
		c0-1.04,0.84-1.879,1.878-1.879c1.041,0,1.882,0.84,1.882,1.879C17.904,64.003,17.064,64.843,16.022,64.843z M34.782,74.908
		c-6.094-0.99-11.679-3.515-16.352-7.156l2.618-2.87c4.051,3.094,8.835,5.274,14.063,6.169L34.782,74.908z M39.874,75.334
		c-1.038,0-1.878-0.84-1.878-1.878c0-1.041,0.84-1.88,1.878-1.88c1.041,0,1.882,0.84,1.882,1.88
		C41.756,74.493,40.916,75.334,39.874,75.334z M45.038,75.082l-0.172-3.871c5.306-0.716,10.209-2.712,14.374-5.69l2.649,2.903
		C57.045,71.969,51.282,74.311,45.038,75.082z M65.875,65.037c-0.04,0.041-0.079,0.082-0.122,0.123
		c-0.334,0.305-0.776,0.496-1.266,0.496c-1.038,0-1.879-0.84-1.879-1.879c0-1.04,0.842-1.879,1.879-1.879
		c1.041,0,1.882,0.84,1.882,1.879C66.369,64.265,66.179,64.704,65.875,65.037z M69.26,61.215l-3.01-2.545
		c3.197-4.229,5.399-9.252,6.194-14.733l3.971,0.165C75.549,50.483,73.008,56.337,69.26,61.215z"/>
	<polygon fill="#020202" points="64.341,39.124 63.282,40.554 62.261,40.306 	"/>
	<polygon fill="#020202" points="15.543,39.124 14.484,40.554 16.612,39.645 	"/>
	<path fill="#3D2600" d="M39.944,56.241L15.543,39.124l24.401-17.119l24.397,17.119L39.944,56.241z"/>
	<path fill="#020202" d="M38.885,57.671L14.484,40.554l24.401-17.119l24.397,17.119L38.885,57.671z M19.258,40.554l19.627,13.769
		l19.626-13.769l-19.626-13.77L19.258,40.554z"/>
	<path fill="#D3B775" d="M39.944,56.241L15.543,39.124l24.401-17.119l24.397,17.119L39.944,56.241z M20.317,39.124l19.627,13.769
		L59.57,39.124l-19.626-13.77L20.317,39.124z"/>
	<path fill="#020202" d="M38.747,45.31c-2.788,0-5.055-2.269-5.055-5.057c0-2.787,2.268-5.054,5.055-5.054
		c2.788,0,5.056,2.268,5.056,5.054C43.803,43.041,41.535,45.31,38.747,45.31z M38.747,37.94c-1.276,0-2.315,1.038-2.315,2.314
		c0,1.277,1.039,2.316,2.315,2.316s2.315-1.039,2.315-2.316C41.062,38.978,40.023,37.94,38.747,37.94z"/>
	<path fill="#D3B775" d="M40.018,44.039c-2.788,0-5.055-2.269-5.055-5.057c0-2.787,2.268-5.054,5.055-5.054
		c2.788,0,5.056,2.268,5.056,5.054C45.074,41.77,42.806,44.039,40.018,44.039z M40.018,36.669c-1.276,0-2.315,1.038-2.315,2.314
		c0,1.277,1.039,2.316,2.315,2.316s2.315-1.039,2.315-2.316C42.333,37.707,41.294,36.669,40.018,36.669z"/>
	<polygon fill="none" points="39.944,25.354 20.317,39.124 39.944,52.893 52.728,43.924 52.728,41.155 56.675,41.155 59.57,39.124 	
		"/>
	<path fill="#020202" d="M57.424,46.904c-0.475-0.601-1.013-1.072-1.557-1.432l-2.601,1.826c0.505,0.098,1.342,0.484,1.997,1.313
		c0.793,1.004,0.978,2.446,0.453,3.508c-1.086,2.186-3.356,2.691-4.619,2.353c-0.863-0.228-2.87-1.115-2.87-4.379
		c0-3.281-0.845-5.144-2.759-6.032c4.517-2.477,7.638-7.126,7.638-12.326c0-8.684-7.795-14.058-15.017-14.058
		c-5.099,0-10.308,2.929-13.015,7.224c-2.01-0.148-4.265,0.514-5.726,2.571c-1.182,1.658-1.585,3.626-1.136,5.541
		c0.297,1.27,0.742,2.167,1.656,3.084l2.311-1.621c-0.745-0.601-1.071-1.167-1.287-2.09c-0.187-0.803-0.22-2.029,0.699-3.319
		c1.478-2.079,4.193-1.471,5.09-0.859c0.695,0.475,1.745,1.194,1.745,3.575c0,1.753-0.052,7.003-0.097,11.618
		c-0.036,3.628-0.068,6.864-0.068,7.71c0,1.357-1.179,2.72-2.868,3.313c-1.287,0.45-3.613-0.202-4.476-2.3
		c-0.766-1.862,0.341-4.188,2.136-5.613l-2.311-1.621c-0.222,0.211-0.957,0.983-1.149,1.208c-1.755,2.044-2.242,4.592-1.221,7.074
		c1.118,2.718,3.817,4.132,6.195,4.131c0.612,0,1.203-0.093,1.74-0.282c2.815-0.989,4.708-3.365,4.708-5.909
		c0-0.813,0.03-3.849,0.063-7.309c2.449,1.439,4.785,2.152,7.086,2.152c1.492,0,2.939-0.225,4.311-0.633
		c2.074,0.433,3,1.917,3,4.774c0,4.228,2.539,6.408,4.914,7.039c0.469,0.125,0.976,0.19,1.499,0.19c2.297,0,4.931-1.237,6.293-3.98
		C59.179,51.33,58.875,48.743,57.424,46.904z M38.164,43.199c-2.198,0-4.513-0.876-7.054-2.652c0.036-3.75,0.07-7.368,0.07-8.765
		c0-3.833-2.063-5.243-2.96-5.857c-0.112-0.077-0.235-0.149-0.359-0.218c2.31-3.124,6.374-5.276,10.229-5.276
		c5.898,0,12.264,4.322,12.264,11.305C50.354,37.949,44.772,43.199,38.164,43.199z"/>
	<path fill="#D3B775" d="M59.303,45.182c-0.475-0.601-1.013-1.072-1.556-1.432l-2.602,1.826c0.505,0.098,1.342,0.484,1.997,1.313
		c0.793,1.004,0.978,2.446,0.453,3.508c-1.086,2.186-3.356,2.691-4.619,2.353c-0.863-0.228-2.87-1.115-2.87-4.379
		c0-3.28-0.845-5.144-2.759-6.032c4.517-2.477,7.638-7.126,7.638-12.326c0-8.684-7.795-14.058-15.017-14.058
		c-5.099,0-10.308,2.929-13.015,7.224c-2.009-0.148-4.265,0.514-5.726,2.571c-1.182,1.658-1.585,3.626-1.136,5.541
		c0.297,1.27,0.951,2.418,1.864,3.335l2.311-1.621c-0.745-0.601-1.28-1.417-1.496-2.341c-0.187-0.803-0.22-2.029,0.699-3.319
		c1.478-2.079,4.193-1.471,5.09-0.859c0.695,0.475,1.745,1.194,1.745,3.575c0,1.753-0.052,7.003-0.097,11.618
		c-0.036,3.628-0.068,6.864-0.068,7.71c0,1.357-1.179,2.72-2.868,3.313c-1.287,0.451-3.613-0.202-4.476-2.3
		c-0.766-1.862-0.186-3.634,1.609-5.059l-2.311-1.621c-2.252,2.139-2.975,4.975-1.843,7.728c1.118,2.718,3.817,4.132,6.195,4.131
		c0.612,0,1.203-0.093,1.74-0.282c2.815-0.989,4.708-3.365,4.708-5.909c0-0.813,0.03-3.849,0.063-7.309
		c2.449,1.439,4.785,2.152,7.086,2.152c1.492,0,2.939-0.225,4.311-0.633c2.074,0.433,3,1.916,3,4.774
		c0,4.228,2.539,6.408,4.914,7.039c0.469,0.125,0.976,0.19,1.499,0.19c2.297,0,4.931-1.237,6.293-3.98
		C61.058,49.608,60.754,47.022,59.303,45.182z M40.043,41.477c-2.198,0-4.513-0.876-7.054-2.652c0.036-3.75,0.07-7.368,0.07-8.765
		c0-3.833-2.063-5.243-2.96-5.857c-0.112-0.077-0.234-0.149-0.359-0.218c2.31-3.124,6.374-5.276,10.229-5.276
		c5.898,0,12.264,4.322,12.264,11.305C52.233,36.227,46.651,41.477,40.043,41.477z"/>
	<path fill="#D3B775" d="M27.971,44.49c0.338,0.238,1.132,0.794,1.132,0.794v3.376l-1.509-1.072L27.971,44.49z"/>
	<path fill="#D3B775" d="M28.361,33.488c0.421-0.281,0.802-0.521,0.802-0.521v-3.431l-1.003,0.742L28.361,33.488z"/>
	<path fill="#D3B775" d="M45.686,52.195c0.377-0.258,0.834-0.596,0.834-0.596s-0.199-0.775-0.278-1.668
		c-0.067-0.752-0.02-1.47-0.02-1.47s-0.775,0.576-1.092,0.794C44.812,49.474,45.686,52.195,45.686,52.195z"/>
	<path fill="#D3B775" d="M49.538,32.078c0.318,0.218,1.172,0.814,1.172,0.814s0.199-0.755,0.278-1.609s0.04-1.509,0.04-1.509
		l-1.231-0.854L49.538,32.078z"/>
	<path fill="#020202" d="M53.921,35.196c0.107-0.292,0.504-1.324,0.504-1.324l0.211,1.987L53.921,35.196z"/>
	<path fill="#020202" d="M50.161,49.256c-0.053-0.583-0.079-1.96-0.079-1.96l0.662,1.404L50.161,49.256z"/>
	<path fill="#020202" d="M32.58,51.162c0.053-0.238,0.238-0.69,0.238-1.219s0.076-0.556,0.076-0.556l0.427,2.252L32.58,51.162z"/>
	<path fill="#020202" d="M33.056,30.243c-0.027-0.503-0.053-1.615-0.053-1.615l0.609,1.35L33.056,30.243z"/>
</g>
<g>
	<g opacity="0.88">
		<g>
			<defs>
				<rect id="SVGID_1_" x="90.442" y="25.35" width="143.508" height="28.417"/>
			</defs>
			<clipPath id="SVGID_2_">
				<use xlink:href="#SVGID_1_"  overflow="visible"/>
			</clipPath>
		</g>
		<g>
			<defs>
				<rect id="SVGID_3_" x="90.442" y="25.35" width="143.508" height="28.417"/>
			</defs>
			<clipPath id="SVGID_4_">
				<use xlink:href="#SVGID_3_"  overflow="visible"/>
			</clipPath>
			<path clip-path="url(#SVGID_4_)" d="M90.442,51.884V27.233c0-0.26,0.047-0.507,0.142-0.738c0.095-0.23,0.229-0.433,0.4-0.603
				c0.17-0.171,0.37-0.305,0.595-0.4c0.223-0.095,0.473-0.142,0.746-0.142h6.855c1.196,0,2.324,0.23,3.384,0.692
				c1.059,0.461,1.982,1.09,2.77,1.882c0.789,0.792,1.412,1.72,1.875,2.78c0.461,1.059,0.692,2.186,0.692,3.383
				c0,0.782-0.097,1.543-0.294,2.282c-0.195,0.739-0.486,1.438-0.869,2.095c-0.385,0.657-0.865,1.268-1.439,1.83
				c-0.574,0.561-1.241,1.056-1.998,1.482l5.665,9.075c0.203,0.331,0.303,0.676,0.303,1.03c0,0.273-0.047,0.522-0.143,0.747
				c-0.095,0.225-0.227,0.424-0.399,0.595s-0.373,0.304-0.604,0.399c-0.231,0.096-0.477,0.143-0.737,0.143
				c-0.664,0-1.202-0.309-1.617-0.924L99.5,42.809h-5.292v9.075c0,0.522-0.184,0.967-0.551,1.333s-0.811,0.551-1.332,0.551
				c-0.522,0-0.965-0.184-1.333-0.551C90.625,52.851,90.442,52.407,90.442,51.884 M94.207,29.115v9.929h4.973
				c0.686,0,1.333-0.131,1.936-0.391c0.604-0.26,1.129-0.62,1.572-1.074c0.444-0.456,0.798-0.983,1.057-1.581
				c0.26-0.598,0.391-1.234,0.391-1.91c0-0.686-0.131-1.332-0.391-1.936c-0.26-0.604-0.616-1.13-1.067-1.581
				c-0.449-0.449-0.976-0.805-1.58-1.065c-0.604-0.26-1.243-0.391-1.919-0.391H94.207z"/>
			<path clip-path="url(#SVGID_4_)" d="M120.418,51.885c0,0.521-0.184,0.965-0.551,1.332c-0.366,0.368-0.811,0.551-1.332,0.551
				c-0.522,0-0.965-0.183-1.333-0.551c-0.366-0.366-0.55-0.811-0.55-1.332V27.232c0-0.521,0.183-0.965,0.55-1.332
				c0.368-0.366,0.811-0.551,1.333-0.551c0.521,0,0.965,0.184,1.332,0.551c0.366,0.366,0.551,0.811,0.551,1.332V51.885z"/>
			<path clip-path="url(#SVGID_4_)" d="M156.061,39.559c0,3.919-1.393,7.271-4.174,10.052c-2.771,2.771-6.116,4.157-10.035,4.157
				c-3.931,0-7.281-1.386-10.052-4.157c-2.771-2.77-4.157-6.12-4.157-10.052c0-3.918,1.386-7.264,4.157-10.034
				c2.781-2.783,6.133-4.174,10.052-4.174c3.908,0,7.253,1.391,10.035,4.174c1.397,1.397,2.441,2.924,3.135,4.582
				C155.714,35.764,156.061,37.581,156.061,39.559 M141.852,29.115c-1.468,0-2.809,0.255-4.023,0.764
				c-1.213,0.509-2.336,1.278-3.365,2.308c-1.03,1.03-1.797,2.15-2.301,3.357c-0.504,1.208-0.755,2.546-0.755,4.014
				c0,2.889,1.018,5.352,3.055,7.389c2.036,2.036,4.499,3.054,7.388,3.054s5.352-1.018,7.388-3.054
				c2.037-2.037,3.055-4.5,3.055-7.389c0-2.877-1.018-5.334-3.055-7.371C147.191,30.139,144.729,29.115,141.852,29.115"/>
			<path clip-path="url(#SVGID_4_)" d="M169.805,25.35c1.007,0,1.956,0.192,2.851,0.577c0.894,0.385,1.676,0.912,2.344,1.581
				c0.669,0.669,1.196,1.45,1.581,2.345c0.385,0.894,0.578,1.845,0.578,2.85c0,1.801-0.557,3.369-1.671,4.707
				c0.722,0.426,1.356,0.917,1.901,1.474c0.544,0.557,1.004,1.164,1.377,1.82c0.373,0.657,0.655,1.35,0.843,2.079
				c0.19,0.727,0.285,1.477,0.285,2.246c0,1.196-0.231,2.325-0.692,3.384c-0.462,1.059-1.086,1.986-1.875,2.78
				c-0.787,0.792-1.711,1.42-2.77,1.882c-1.06,0.461-2.188,0.692-3.384,0.692h-6.855c-0.26,0-0.504-0.051-0.729-0.151
				s-0.424-0.234-0.595-0.4s-0.308-0.364-0.408-0.595c-0.1-0.231-0.151-0.477-0.151-0.737V27.232c0-0.26,0.051-0.505,0.151-0.737
				c0.1-0.231,0.236-0.429,0.408-0.595c0.171-0.166,0.37-0.3,0.595-0.4c0.225-0.1,0.469-0.151,0.729-0.151H169.805z M166.2,29.115
				v7.194h3.605c0.498,0,0.963-0.096,1.395-0.285c0.433-0.19,0.811-0.451,1.137-0.782c0.326-0.331,0.583-0.713,0.772-1.146
				c0.19-0.433,0.285-0.896,0.285-1.394c0-0.486-0.095-0.943-0.285-1.376c-0.188-0.433-0.449-0.815-0.781-1.146
				c-0.331-0.331-0.713-0.592-1.146-0.782c-0.433-0.188-0.891-0.284-1.377-0.284H166.2z M166.2,40.074v9.929h4.973
				c0.686,0,1.333-0.131,1.936-0.391c0.604-0.26,1.128-0.616,1.572-1.067c0.444-0.449,0.798-0.976,1.057-1.58
				c0.26-0.604,0.391-1.25,0.391-1.937c0-0.674-0.131-1.313-0.391-1.917c-0.26-0.604-0.616-1.13-1.067-1.581
				c-0.449-0.451-0.976-0.805-1.58-1.065c-0.604-0.26-1.243-0.391-1.919-0.391H166.2z"/>
			<path clip-path="url(#SVGID_4_)" d="M204.311,50.002c0.521,0,0.965,0.184,1.332,0.551c0.368,0.366,0.551,0.811,0.551,1.332
				c0,0.522-0.183,0.965-0.551,1.333c-0.366,0.366-0.811,0.55-1.332,0.55h-16.428c-0.273,0-0.522-0.047-0.747-0.142
				c-0.225-0.095-0.424-0.229-0.595-0.4c-0.171-0.17-0.304-0.37-0.399-0.595c-0.096-0.223-0.143-0.473-0.143-0.746V27.233
				c0-0.261,0.047-0.507,0.143-0.738c0.095-0.23,0.227-0.433,0.399-0.604c0.171-0.17,0.37-0.304,0.595-0.399
				s0.474-0.143,0.747-0.143h16.428c0.521,0,0.965,0.184,1.332,0.551c0.368,0.368,0.551,0.811,0.551,1.333
				c0,0.521-0.183,0.965-0.551,1.332c-0.366,0.366-0.811,0.551-1.332,0.551h-14.546v8.561h10.443c0.521,0,0.965,0.183,1.332,0.551
				c0.366,0.366,0.551,0.811,0.551,1.332c0,0.521-0.184,0.965-0.551,1.332c-0.366,0.368-0.811,0.551-1.332,0.551h-10.443v8.561
				H204.311z"/>
			<path clip-path="url(#SVGID_4_)" d="M232.067,29.115h-7.015v22.769c0,0.522-0.184,0.967-0.551,1.333s-0.811,0.551-1.333,0.551
				c-0.521,0-0.965-0.184-1.332-0.551s-0.551-0.811-0.551-1.333V29.115h-7.015c-0.521,0-0.965-0.184-1.333-0.551
				c-0.366-0.366-0.549-0.811-0.549-1.332s0.183-0.965,0.549-1.333c0.368-0.366,0.812-0.55,1.333-0.55h17.796
				c0.521,0,0.965,0.183,1.332,0.55c0.368,0.368,0.551,0.812,0.551,1.333s-0.183,0.965-0.551,1.332
				C233.032,28.931,232.588,29.115,232.067,29.115"/>
		</g>
		<g>
			<defs>
				<rect id="SVGID_5_" x="90.442" y="25.35" width="143.508" height="28.417"/>
			</defs>
			<clipPath id="SVGID_6_">
				<use xlink:href="#SVGID_5_"  overflow="visible"/>
			</clipPath>
		</g>
	</g>
	<g>
		<g>
			<defs>
				<rect id="SVGID_7_" x="91.442" y="24.35" width="143.508" height="28.417"/>
			</defs>
			<clipPath id="SVGID_8_">
				<use xlink:href="#SVGID_7_"  overflow="visible"/>
			</clipPath>
		</g>
		<g>
			<defs>
				<rect id="SVGID_9_" x="91.442" y="24.35" width="143.508" height="28.417"/>
			</defs>
			<clipPath id="SVGID_10_">
				<use xlink:href="#SVGID_9_"  overflow="visible"/>
			</clipPath>
			<path clip-path="url(#SVGID_10_)" fill="#D2B77F" d="M91.442,50.884V26.233c0-0.26,0.047-0.507,0.142-0.738
				c0.095-0.23,0.229-0.433,0.4-0.603c0.17-0.171,0.37-0.305,0.595-0.4c0.223-0.095,0.473-0.142,0.746-0.142h6.855
				c1.196,0,2.324,0.23,3.384,0.692c1.059,0.461,1.982,1.09,2.77,1.882c0.789,0.792,1.412,1.72,1.875,2.78
				c0.461,1.059,0.692,2.186,0.692,3.383c0,0.782-0.097,1.543-0.294,2.282c-0.195,0.739-0.486,1.438-0.869,2.095
				c-0.385,0.657-0.865,1.268-1.439,1.83c-0.574,0.561-1.241,1.056-1.998,1.482l5.665,9.075c0.203,0.331,0.303,0.676,0.303,1.03
				c0,0.273-0.047,0.522-0.143,0.747c-0.095,0.225-0.227,0.424-0.399,0.595s-0.373,0.304-0.604,0.399
				c-0.231,0.096-0.477,0.143-0.737,0.143c-0.664,0-1.202-0.309-1.617-0.924L100.5,41.809h-5.292v9.075
				c0,0.522-0.184,0.967-0.551,1.333s-0.811,0.551-1.332,0.551c-0.522,0-0.965-0.184-1.333-0.551
				C91.625,51.851,91.442,51.407,91.442,50.884 M95.207,28.115v9.929h4.973c0.686,0,1.333-0.131,1.936-0.391
				c0.604-0.26,1.129-0.62,1.572-1.074c0.444-0.456,0.798-0.983,1.057-1.581c0.26-0.598,0.391-1.234,0.391-1.91
				c0-0.686-0.131-1.332-0.391-1.936c-0.26-0.604-0.616-1.13-1.067-1.581c-0.449-0.449-0.976-0.805-1.58-1.065
				c-0.604-0.26-1.243-0.391-1.919-0.391H95.207z"/>
			<path clip-path="url(#SVGID_10_)" fill="#D2B77F" d="M121.418,50.885c0,0.521-0.184,0.965-0.551,1.332
				c-0.366,0.368-0.811,0.551-1.332,0.551c-0.522,0-0.965-0.183-1.333-0.551c-0.366-0.366-0.55-0.811-0.55-1.332V26.232
				c0-0.521,0.183-0.965,0.55-1.332c0.368-0.366,0.811-0.551,1.333-0.551c0.521,0,0.965,0.184,1.332,0.551
				c0.366,0.366,0.551,0.811,0.551,1.332V50.885z"/>
			<path clip-path="url(#SVGID_10_)" fill="#D2B77F" d="M157.061,38.559c0,3.919-1.393,7.271-4.174,10.052
				c-2.771,2.771-6.116,4.157-10.035,4.157c-3.931,0-7.281-1.386-10.052-4.157c-2.771-2.77-4.157-6.12-4.157-10.052
				c0-3.918,1.386-7.264,4.157-10.034c2.781-2.783,6.133-4.174,10.052-4.174c3.908,0,7.253,1.391,10.035,4.174
				c1.397,1.397,2.441,2.924,3.135,4.582C156.714,34.764,157.061,36.581,157.061,38.559 M142.852,28.115
				c-1.468,0-2.809,0.255-4.023,0.764c-1.213,0.509-2.336,1.278-3.365,2.308c-1.03,1.03-1.797,2.15-2.301,3.357
				c-0.504,1.208-0.755,2.546-0.755,4.014c0,2.889,1.018,5.352,3.055,7.389c2.036,2.036,4.499,3.054,7.388,3.054
				s5.352-1.018,7.388-3.054c2.037-2.037,3.055-4.5,3.055-7.389c0-2.877-1.018-5.334-3.055-7.371
				C148.191,29.139,145.729,28.115,142.852,28.115"/>
			<path clip-path="url(#SVGID_10_)" fill="#D2B77F" d="M170.805,24.35c1.007,0,1.956,0.192,2.851,0.577
				c0.894,0.385,1.676,0.912,2.344,1.581c0.669,0.669,1.196,1.45,1.581,2.345c0.385,0.894,0.578,1.845,0.578,2.85
				c0,1.801-0.557,3.369-1.671,4.707c0.722,0.426,1.356,0.917,1.901,1.474c0.544,0.557,1.004,1.164,1.377,1.82
				c0.373,0.657,0.655,1.35,0.843,2.079c0.19,0.727,0.285,1.477,0.285,2.246c0,1.196-0.231,2.325-0.692,3.384
				c-0.462,1.059-1.086,1.986-1.875,2.78c-0.787,0.792-1.711,1.42-2.77,1.882c-1.06,0.461-2.188,0.692-3.384,0.692h-6.855
				c-0.26,0-0.504-0.051-0.729-0.151s-0.424-0.234-0.595-0.4s-0.308-0.364-0.408-0.595c-0.1-0.231-0.151-0.477-0.151-0.737V26.232
				c0-0.26,0.051-0.505,0.151-0.737c0.1-0.231,0.236-0.429,0.408-0.595c0.171-0.166,0.37-0.3,0.595-0.4
				c0.225-0.1,0.469-0.151,0.729-0.151H170.805z M167.2,28.115v7.194h3.605c0.498,0,0.963-0.096,1.395-0.285
				c0.433-0.19,0.811-0.451,1.137-0.782c0.326-0.331,0.583-0.713,0.772-1.146c0.19-0.433,0.285-0.896,0.285-1.394
				c0-0.486-0.095-0.943-0.285-1.376c-0.188-0.433-0.449-0.815-0.781-1.146c-0.331-0.331-0.713-0.592-1.146-0.782
				c-0.433-0.188-0.891-0.284-1.377-0.284H167.2z M167.2,39.074v9.929h4.973c0.686,0,1.333-0.131,1.936-0.391
				c0.604-0.26,1.128-0.616,1.572-1.067c0.444-0.449,0.798-0.976,1.057-1.58c0.26-0.604,0.391-1.25,0.391-1.937
				c0-0.674-0.131-1.313-0.391-1.917c-0.26-0.604-0.616-1.13-1.067-1.581c-0.449-0.451-0.976-0.805-1.58-1.065
				c-0.604-0.26-1.243-0.391-1.919-0.391H167.2z"/>
			<path clip-path="url(#SVGID_10_)" fill="#D2B77F" d="M205.311,49.002c0.521,0,0.965,0.184,1.332,0.551
				c0.368,0.366,0.551,0.811,0.551,1.332c0,0.522-0.183,0.965-0.551,1.333c-0.366,0.366-0.811,0.55-1.332,0.55h-16.428
				c-0.273,0-0.522-0.047-0.747-0.142c-0.225-0.095-0.424-0.229-0.595-0.4c-0.171-0.17-0.304-0.37-0.399-0.595
				c-0.096-0.223-0.143-0.473-0.143-0.746V26.233c0-0.261,0.047-0.507,0.143-0.738c0.095-0.23,0.227-0.433,0.399-0.604
				c0.171-0.17,0.37-0.304,0.595-0.399s0.474-0.143,0.747-0.143h16.428c0.521,0,0.965,0.184,1.332,0.551
				c0.368,0.368,0.551,0.811,0.551,1.333c0,0.521-0.183,0.965-0.551,1.332c-0.366,0.366-0.811,0.551-1.332,0.551h-14.546v8.561
				h10.443c0.521,0,0.965,0.183,1.332,0.551c0.366,0.366,0.551,0.811,0.551,1.332c0,0.521-0.184,0.965-0.551,1.332
				c-0.366,0.368-0.811,0.551-1.332,0.551h-10.443v8.561H205.311z"/>
			<path clip-path="url(#SVGID_10_)" fill="#D2B77F" d="M233.067,28.115h-7.015v22.769c0,0.522-0.184,0.967-0.551,1.333
				s-0.811,0.551-1.333,0.551c-0.521,0-0.965-0.184-1.332-0.551s-0.551-0.811-0.551-1.333V28.115h-7.015
				c-0.521,0-0.965-0.184-1.333-0.551c-0.366-0.366-0.549-0.811-0.549-1.332s0.183-0.965,0.549-1.333
				c0.368-0.366,0.812-0.55,1.333-0.55h17.796c0.521,0,0.965,0.183,1.332,0.55c0.368,0.368,0.551,0.812,0.551,1.333
				s-0.183,0.965-0.551,1.332C234.032,27.931,233.588,28.115,233.067,28.115"/>
		</g>
		<g>
			<defs>
				<rect id="SVGID_11_" x="91.442" y="24.35" width="143.508" height="28.417"/>
			</defs>
			<clipPath id="SVGID_12_">
				<use xlink:href="#SVGID_11_"  overflow="visible"/>
			</clipPath>
		</g>
	</g>
</g>
</svg>
