<?xml version="1.0" standalone="no"?>
<!DOCTYPE svg PUBLIC "-//W3C//DTD SVG 20010904//EN"
 "http://www.w3.org/TR/2001/REC-SVG-20010904/DTD/svg10.dtd">
<svg version="1.0" xmlns="http://www.w3.org/2000/svg"
 width="908.000000pt" height="908.000000pt" viewBox="0 0 908.000000 908.000000"
 preserveAspectRatio="xMidYMid meet">
<metadata>
Created by potrace 1.11, written by Peter Selinger 2001-2013
</metadata>
<g transform="translate(0.000000,908.000000) scale(0.100000,-0.100000)"
fill="#000000" stroke="none">
<path d="M4258 9075 c-2 -1 -46 -6 -98 -9 -52 -4 -108 -9 -125 -11 -16 -2 -57
-7 -90 -10 -32 -4 -62 -8 -65 -10 -3 -2 -32 -6 -65 -9 -33 -4 -67 -9 -75 -11
-8 -2 -33 -6 -55 -10 -22 -3 -47 -7 -55 -10 -8 -2 -28 -7 -45 -9 -33 -6 -107
-23 -170 -39 -22 -6 -44 -11 -50 -13 -134 -28 -446 -133 -640 -214 -139 -58
-427 -201 -535 -266 -50 -30 -94 -54 -99 -54 -4 0 -16 -9 -26 -20 -10 -11 -22
-20 -27 -20 -18 0 -444 -301 -468 -330 -3 -3 -32 -28 -65 -56 -315 -259 -465
-475 -505 -724 -17 -111 -2 -259 37 -360 4 -8 7 -17 8 -20 10 -28 27 -68 35
-80 5 -8 16 -30 24 -48 26 -56 132 -209 203 -292 60 -70 177 -193 271 -285
178 -173 374 -368 408 -406 144 -162 272 -345 362 -519 53 -102 107 -234 117
-283 2 -9 6 -21 9 -25 3 -5 7 -19 9 -33 3 -13 9 -42 15 -64 21 -80 27 -143 27
-290 0 -132 -9 -257 -20 -275 -2 -4 -6 -17 -9 -31 -12 -58 -16 -75 -32 -123
-32 -104 -99 -251 -166 -369 -39 -67 -73 -124 -77 -127 -4 -3 -29 -36 -55 -74
-117 -165 -218 -273 -597 -641 -228 -221 -384 -411 -458 -557 -22 -43 -43 -83
-48 -90 -4 -7 -8 -15 -8 -18 -1 -3 -11 -34 -23 -70 -12 -36 -23 -79 -25 -95
-2 -17 -6 -35 -9 -41 -9 -14 -6 -204 3 -204 4 0 6 -8 5 -17 -3 -18 17 -98 33
-138 33 -79 78 -162 116 -210 8 -11 26 -35 39 -54 62 -84 225 -238 411 -386
55 -44 101 -83 103 -87 2 -5 9 -8 17 -8 7 0 18 -7 25 -15 14 -17 354 -245 365
-245 4 0 19 -8 33 -18 104 -73 631 -328 689 -334 4 -1 31 -11 58 -23 28 -12
97 -36 155 -55 58 -18 114 -37 125 -42 11 -5 29 -10 40 -13 11 -2 83 -21 160
-40 77 -20 149 -37 160 -39 12 -1 26 -6 33 -10 7 -4 12 -5 12 -3 0 2 19 0 43
-5 23 -5 56 -11 72 -13 17 -3 55 -9 85 -15 70 -12 134 -21 185 -26 22 -2 56
-6 75 -9 174 -26 774 -26 965 0 17 2 55 7 85 10 30 3 66 7 80 9 14 3 48 7 75
11 28 3 59 8 70 10 46 10 81 17 95 17 8 0 35 5 60 10 25 5 56 12 70 14 14 3
33 7 42 10 10 3 30 8 45 10 129 23 475 128 640 194 243 98 454 202 651 324 46
28 92 55 103 61 10 5 19 13 19 17 0 5 5 8 11 8 5 0 30 15 54 33 24 17 77 57
119 87 42 30 76 58 76 62 0 4 7 8 15 8 7 0 18 6 22 13 4 7 18 20 30 28 64 44
360 327 443 425 85 99 185 228 212 273 12 20 28 42 35 49 7 7 13 18 13 24 0 9
-14 -1 -70 -50 -257 -221 -619 -449 -955 -599 -169 -76 -179 -80 -220 -94 -22
-8 -42 -16 -45 -19 -3 -3 -9 -6 -15 -8 -5 -1 -86 -28 -180 -60 -147 -50 -250
-82 -313 -97 -9 -3 -35 -9 -57 -15 -73 -20 -120 -32 -145 -36 -14 -3 -33 -7
-42 -10 -10 -3 -30 -7 -45 -10 -16 -3 -36 -7 -46 -10 -10 -3 -30 -7 -45 -9
-15 -2 -49 -9 -77 -15 -27 -5 -63 -12 -80 -15 -16 -3 -46 -7 -65 -11 -42 -7
-59 -9 -130 -19 -30 -4 -64 -8 -75 -10 -65 -9 -136 -17 -180 -20 -27 -2 -50
-4 -50 -5 0 -1 -25 -3 -55 -5 -30 -2 -98 -7 -150 -10 -185 -13 -580 -7 -725
10 -27 3 -70 8 -95 11 -51 6 -85 12 -85 15 0 1 -11 2 -25 4 -50 4 -321 68
-342 81 -5 3 -16 7 -27 9 -30 6 -222 86 -281 118 -55 30 -147 88 -185 117 -11
8 -56 51 -101 95 -100 99 -203 256 -255 390 -5 11 -15 37 -23 58 -8 20 -13 37
-11 37 3 0 0 11 -5 26 -38 100 -43 344 -10 474 5 19 11 46 14 60 12 65 116
332 135 350 3 3 21 34 40 70 32 62 99 169 111 180 3 3 19 23 36 44 16 22 43
56 59 75 53 63 328 336 400 397 39 32 72 62 75 65 3 3 39 34 80 68 41 34 85
71 98 82 12 10 26 19 30 19 4 0 14 9 22 20 8 11 18 20 23 20 4 0 18 10 31 22
13 13 67 55 120 93 53 39 96 73 96 78 0 4 7 7 15 7 7 0 19 8 24 18 6 9 11 13
11 7 0 -6 3 -5 8 1 6 11 134 96 354 239 91 58 122 82 160 118 10 9 21 17 24
17 5 0 146 142 171 173 6 8 26 40 43 71 129 227 35 451 -292 695 -51 39 -101
77 -110 85 -10 9 -21 16 -24 16 -8 0 -202 120 -217 134 -24 22 -106 76 -115
76 -5 0 -12 7 -16 15 -3 8 -12 15 -20 15 -8 0 -16 4 -18 9 -1 4 -50 44 -108
87 -103 77 -201 154 -250 197 -14 12 -46 38 -70 57 -25 19 -54 43 -65 55 -11
11 -33 30 -50 43 -38 30 -229 207 -267 248 -15 17 -54 57 -86 90 -53 55 -184
216 -207 255 -5 9 -29 49 -53 88 -44 73 -127 242 -147 301 -1 3 -4 12 -8 20
-20 50 -44 136 -63 225 -22 103 -21 282 1 396 17 90 82 250 143 354 122 209
318 371 592 489 113 48 362 118 500 140 19 3 44 7 55 10 51 10 164 22 300 32
76 6 510 6 595 0 67 -5 104 -8 259 -21 46 -4 112 -12 146 -19 11 -2 52 -7 90
-12 39 -4 72 -8 75 -9 3 0 26 -4 51 -8 76 -13 103 -17 129 -22 60 -12 77 -16
105 -21 17 -3 71 -14 120 -25 50 -12 98 -22 107 -24 96 -20 421 -118 568 -172
266 -97 643 -276 805 -382 22 -15 52 -33 68 -40 15 -8 27 -18 27 -23 0 -4 7
-8 15 -8 8 0 15 -4 15 -10 0 -5 5 -10 10 -10 10 0 129 -77 140 -90 3 -4 32
-26 64 -50 73 -53 80 -59 173 -139 l74 -64 -33 54 c-29 49 -146 207 -172 235
-6 6 -31 36 -56 65 -49 59 -258 270 -330 334 -100 90 -283 234 -356 282 -11 7
-45 31 -77 53 -32 22 -62 40 -67 40 -4 0 -10 4 -12 8 -10 24 -526 299 -575
306 -7 1 -19 8 -25 14 -7 7 -17 12 -22 12 -6 0 -58 18 -116 41 -171 66 -471
158 -604 183 -11 2 -42 9 -69 15 -26 6 -64 14 -83 17 -20 3 -45 8 -55 10 -11
2 -27 6 -36 8 -10 2 -38 7 -63 10 -25 3 -56 8 -70 11 -14 3 -43 7 -65 10 -22
2 -85 9 -140 15 -55 7 -125 14 -155 17 -63 5 -637 13 -642 8z"/>
</g>
</svg>
