<svg version="1" xmlns="http://www.w3.org/2000/svg" width="533.333" height="533.333" viewBox="0 0 400.000000 400.000000"><path d="M38 1.6C28.9 4 21.9 8.1 15 15c-3.6 3.6-7.7 9-9.2 12C-.3 39.5 0 29.7 0 200s-.3 160.5 5.8 173c3.5 7 14.2 17.7 21.2 21.2 12.5 6.1 2.7 5.8 173 5.8s160.5.3 173-5.8c7-3.5 17.7-14.2 21.2-21.2 6.1-12.5 5.8-2.7 5.8-173s.3-160.5-5.8-173C390.7 20 380 9.3 373 5.8 360.5-.3 370.4 0 199.5.1 65.5.1 42.7.3 38 1.6zm100.2 32.9c7.2 10.8 26.6 48.3 29.9 57.7.7 2.1 1.6 3.8 1.9 3.8.4 0 .7-3.1.8-6.9.3-15.7 6.3-30.8 16.7-41.7 6.4-6.8 6.5-6.8 5-3-7.3 18.7-8.5 46.5-2.9 67.3.6 2 .3 2.3-2.3 2.3-11.7 0-37.4 7.2-50.1 14.1-4.1 2.1-7.7 3.9-8 3.9-.4 0-1.7-2.8-3-6.3-1.2-3.4-4.4-10-7.2-14.5-8.3-14.1-15.8-22.3-30.6-34L85.5 75l4.4.6c6.8 1 14.9 4 22.2 8.4 6.6 3.9 19.1 16.1 21.1 20.6 2.3 4.9 2.5 2.1.6-7.9-4.5-24.2-5.9-36.8-6.5-56.7-.7-24.3-1.3-23.9 10.9-5.5zm82.1 96c53.3 9.4 95 51.4 103.9 104.9 1.8 10.4 1.5 32.5-.6 42.8-8.7 45-41.2 82.3-84.4 96.9-32.5 11-68.9 8-99.2-8.3-34.2-18.3-58-51-65.5-89.9-2.1-10.9-2.1-31.6 0-43.4 8.4-47.3 45-87.7 91-100.2 16.6-4.5 38.5-5.6 54.8-2.8z"/><path d="M177.2 143.1c-41 8.6-74.2 38.3-86.6 77.7-7.4 23.5-7.2 47.2.5 70.2 5.8 17.5 14.7 31.8 27.9 45 51.1 51.2 135.1 42.5 175.2-18 11.6-17.5 17.6-36.2 18.5-57.7.7-15.4-.4-24.3-4.9-38.8-12.3-40.5-47.6-71.7-89.2-79-12.1-2.1-29.8-1.8-41.4.6zm-41.7 84c13.6 3.8 18 23.4 7.7 34.2-4.1 4.3-8.7 5.8-19.9 6.4l-10.3.6V294h-11v-68h14.8c8.1 0 16.5.5 18.7 1.1zM168 256v30h24v8h-35v-68h11v30zm99.9-14.3l7.9 15.8 7.5-15.8 7.6-15.7h6c3.4 0 6.1.3 6.1.6 0 .4-4.9 10.2-11 21.9l-11 21.2V294h-11V269.7l-10.7-20.6c-6-11.3-10.9-21.2-11.1-21.9-.3-.8 1.4-1.2 5.7-1.2h6.1l7.9 15.7zm-21.5 17.6c6.6 17.7 12.1 32.8 12.4 33.4.3 1-1.2 1.3-5.5 1.3h-5.8l-2.6-7.3-2.6-7.2H213.6l-2.6 7-2.5 7-5.8.3c-3.1.2-5.7 0-5.7-.4 0-.5 5.5-15.6 12.2-33.6l12.2-32.8h13.1l11.9 32.3z"/><path d="M113.2 246.7c.3 13.6-.2 13.1 11.6 11.8 8.9-.9 12.4-4.1 12.5-11 .1-9.5-4-12.5-16.8-12.5h-7.6l.3 11.7zM222.2 254.8c-2.8 8.2-5.2 15.1-5.2 15.5 0 .4 5 .7 11 .7 6.1 0 11-.2 11-.4 0-1.1-10.2-29.2-10.8-29.8-.4-.4-3.1 5.9-6 14z"/></svg>