<?xml version="1.0" encoding="UTF-8"?>
<svg version="1.1" xmlns="http://www.w3.org/2000/svg" width="1536" height="247">
<path d="M0 0 C44.92125 -1.36125 44.92125 -1.36125 90.75 -2.75 C100.11213867 -3.15057617 109.47427734 -3.55115234 119.12011719 -3.96386719 C187.35716442 -5.68568169 187.35716442 -5.68568169 209.03511047 14.08818054 C223.39356491 27.93913748 236.22179096 46.61098451 237.17721558 67.11985779 C237.22383665 70.82556961 237.01884461 74.48735168 236.72590637 78.18025589 C236.55831212 80.49535012 236.47313023 82.80226309 236.40490723 85.12228394 C235.50414072 110.84484392 226.99976245 129.35304062 208.26068115 146.89874268 C195.21106393 158.71660202 181.91944526 165.22768067 164.12463379 164.95870972 C156.62611864 164.58543568 149.33562969 163.5754987 142 162 C142 162.99 142 163.98 142 165 C143.64585083 164.64651489 143.64585083 164.64651489 145.32495117 164.28588867 C161.24034743 161.19357441 178.33148276 159.69347492 192.50048828 168.8203125 C208.27185902 180.24438159 229.65606636 198.73137218 233.47645569 218.55703735 C234.75575016 228.60293567 232.8561904 236.64658241 231 247 C208.56 247 186.12 247 163 247 C163 240.73 163 234.46 163 228 C160.34582031 228.52207031 157.69164062 229.04414063 154.95703125 229.58203125 C138.36793632 232.08840078 123.34736724 231.97759466 109.2645874 221.93795776 C92.34329628 208.92219459 72.03087953 189.26935506 68.68701172 167.39599609 C67.32331162 150.56131067 75.61624501 137.48471951 86.17428303 125.00291729 C98.24269167 111.14509489 112.0475642 97.13922406 131.1640625 95.23828125 C142.30224768 94.57824417 153.05978211 96.01269437 164 98 C164 85.79 164 73.58 164 61 C129.02 61 94.04 61 58 61 C58.12517863 69.36116501 58.12517863 69.36116501 61.04125977 72.58447266 C62.35308228 73.61386963 62.35308228 73.61386963 63.69140625 74.6640625 C81.22237667 89.46150123 81.22237667 89.46150123 82.46585083 99.44831848 C82.73742845 104.65581277 82.14594892 109.21558418 80 114 C77.61997745 116.17450322 75.08351756 117.78741577 72.39115906 119.55696106 C65.73452371 124.26276305 60.34728921 129.6209457 58.3213501 137.7095108 C55.56074139 154.30526017 56.6424752 171.61658494 57.09448242 188.36090088 C57.27771858 196.14519133 57.30177532 203.93169266 57.3532486 211.71775055 C57.4484969 223.48440103 57.74267517 235.2307751 58 247 C38.86 247 19.72 247 0 247 C0 165.49 0 83.98 0 0 Z " fill="#1DB3F3" transform="translate(261,0)"/>
<path d="M0 0 C29.638125 -0.886875 59.27625 -1.77375 89.8125 -2.6875 C99.07932861 -3.07897217 108.34615723 -3.47044434 117.89379883 -3.8737793 C187.2926596 -5.66930617 187.2926596 -5.66930617 209.44465828 13.98950768 C230.61169456 34.98670866 233.6805781 62.83161736 233.94151306 91.30680847 C233.96673073 99.33293619 233.75824113 107.35021094 233.52853245 115.37237042 C233.36592721 121.70206421 233.42474119 128.00290805 233.60595703 134.33154297 C235.56860185 205.15383199 235.56860185 205.15383199 212.11328125 230.36328125 C191.05289368 251.25468923 162.76981338 251.19908565 134.8245182 251.21993446 C119.79848163 251.08479594 104.83403883 250.32207679 89.8125 249.6875 C60.174375 248.800625 30.53625 247.91375 0 247 C0 165.49 0 83.98 0 0 Z M67 67 C67 103.96 67 140.92 67 179 C98.02 179 129.04 179 161 179 C161 142.04 161 105.08 161 67 C129.98 67 98.96 67 67 67 Z " fill="#57AEFB" transform="translate(1046,0)"/>
<path d="M0 0 C5.55537947 0.16648359 11.07637117 0.10623985 16.63048768 -0.07921863 C47.77641299 -1.08481381 80.45620644 -0.64598085 104.92589784 21.4852345 C125.45255962 41.56601799 126.5345567 67.70799902 126.90256715 94.9970181 C127.0142216 111.09247458 126.48164717 127.16028761 125.79826188 143.2388556 C125.29895503 155.19054434 125.06267515 167.1435663 124.84326148 179.10314536 C124.3875481 203.63537265 123.58348137 228.13887182 122.62902284 252.6571095 C100.18902284 252.6571095 77.74902284 252.6571095 54.62902284 252.6571095 C54.62902284 228.2371095 54.62902284 203.8171095 54.62902284 178.6571095 C22.94902284 178.6571095 -8.73097716 178.6571095 -41.37097716 178.6571095 C-41.37097716 203.0771095 -41.37097716 227.4971095 -41.37097716 252.6571095 C-63.48097716 252.6571095 -85.59097716 252.6571095 -108.37097716 252.6571095 C-109.37177136 226.94859611 -110.17878841 201.25628057 -110.65071273 175.53310513 C-110.87585245 163.58398447 -111.18279814 151.64812469 -111.6903131 139.70740247 C-115.48843026 48.29060977 -115.48843026 48.29060977 -93.43203521 24.18937421 C-67.82711789 -0.85935541 -33.57258038 -1.1210279 0 0 Z M-41.37097716 66.6571095 C-41.37097716 83.4871095 -41.37097716 100.3171095 -41.37097716 117.6571095 C-9.69097716 117.6571095 21.98902284 117.6571095 54.62902284 117.6571095 C54.62902284 100.8271095 54.62902284 83.9971095 54.62902284 66.6571095 C22.94902284 66.6571095 -8.73097716 66.6571095 -41.37097716 66.6571095 Z " fill="#44B0F8" transform="translate(892.3709771633148,-5.657109498977661)"/>
<path d="M0 0 C5.51301286 0.16648841 10.99137569 0.10624261 16.50311589 -0.07921863 C47.54393304 -1.08912827 79.95575669 -0.55375154 104.34002995 21.4852345 C124.89049501 41.57078793 125.98216078 67.68662142 126.34817243 94.9970181 C126.45875907 111.09250021 125.92703249 127.16025209 125.24364352 143.2388556 C124.74433828 155.19054441 124.50805726 167.14356628 124.2886436 179.10314536 C123.83293022 203.63537265 123.02886349 228.13887182 122.07440495 252.6571095 C99.96440495 252.6571095 77.85440495 252.6571095 55.07440495 252.6571095 C55.07440495 228.2371095 55.07440495 203.8171095 55.07440495 178.6571095 C23.39440495 178.6571095 -8.28559505 178.6571095 -40.92559505 178.6571095 C-40.92559505 203.0771095 -40.92559505 227.4971095 -40.92559505 252.6571095 C-63.03559505 252.6571095 -85.14559505 252.6571095 -107.92559505 252.6571095 C-108.92638925 226.94859611 -109.73340629 201.25628057 -110.20533061 175.53310513 C-110.43047033 163.58398451 -110.73741441 151.6481246 -111.24493098 139.70740247 C-115.04306546 48.29287257 -115.04306546 48.29287257 -92.95795131 24.18937421 C-67.43497378 -0.75619892 -33.46533425 -1.1260549 0 0 Z M-40.92559505 66.6571095 C-40.92559505 83.4871095 -40.92559505 100.3171095 -40.92559505 117.6571095 C-9.24559505 117.6571095 22.43440495 117.6571095 55.07440495 117.6571095 C55.07440495 100.8271095 55.07440495 83.9971095 55.07440495 66.6571095 C23.39440495 66.6571095 -8.28559505 66.6571095 -40.92559505 66.6571095 Z " fill="#6BACFD" transform="translate(1413.9255950450897,-5.657109498977661)"/>
<path d="M0 0 C5.51301286 0.16648841 10.99137569 0.10624261 16.50311589 -0.07921863 C47.54393304 -1.08912827 79.95575669 -0.55375154 104.34002995 21.4852345 C124.89049501 41.57078793 125.98216078 67.68662142 126.34817243 94.9970181 C126.45875907 111.09250021 125.92703249 127.16025209 125.24364352 143.2388556 C124.74433828 155.19054441 124.50805726 167.14356628 124.2886436 179.10314536 C123.83293022 203.63537265 123.02886349 228.13887182 122.07440495 252.6571095 C99.96440495 252.6571095 77.85440495 252.6571095 55.07440495 252.6571095 C55.07440495 228.2371095 55.07440495 203.8171095 55.07440495 178.6571095 C23.39440495 178.6571095 -8.28559505 178.6571095 -40.92559505 178.6571095 C-40.92559505 203.0771095 -40.92559505 227.4971095 -40.92559505 252.6571095 C-63.03559505 252.6571095 -85.14559505 252.6571095 -107.92559505 252.6571095 C-108.92638925 226.94859611 -109.73340629 201.25628057 -110.20533061 175.53310513 C-110.43047033 163.58398451 -110.73741441 151.6481246 -111.24493098 139.70740247 C-115.04306546 48.29287257 -115.04306546 48.29287257 -92.95795131 24.18937421 C-67.43497378 -0.75619892 -33.46533425 -1.1260549 0 0 Z M-40.92559505 66.6571095 C-40.92559505 83.4871095 -40.92559505 100.3171095 -40.92559505 117.6571095 C-9.24559505 117.6571095 22.43440495 117.6571095 55.07440495 117.6571095 C55.07440495 100.8271095 55.07440495 83.9971095 55.07440495 66.6571095 C23.39440495 66.6571095 -8.28559505 66.6571095 -40.92559505 66.6571095 Z " fill="#0AB5F0" transform="translate(107.92559504508972,-5.657109498977661)"/>
<path d="M0 0 C22.44 0 44.88 0 68 0 C68 30.03 68 60.06 68 91 C73.61 91 79.22 91 85 91 C84.78005371 89.73559082 84.56010742 88.47118164 84.33349609 87.16845703 C81.0266233 66.16707392 80.65222518 44.81599997 92.67282104 26.4223938 C102.93367188 12.44556792 115.33527452 1.72729126 132.7600708 -1.04376221 C164.79498467 -5.14844002 197.96399986 -2.24668053 230 0 C230 22.11 230 44.22 230 67 C204.26 67 178.52 67 152 67 C152 74.92 152 82.84 152 91 C153.86011719 90.47792969 155.72023438 89.95585938 157.63671875 89.41796875 C173.51989625 86.37910328 186.91003706 90.24981958 200.32455444 99.19296265 C215.2862267 110.17298146 228.03581507 123.23268607 231.18139648 142.19995117 C235.72722385 176.63930917 232.40044295 212.55808892 230 247 C208.88 247 187.76 247 166 247 C166 217.63 166 188.26 166 158 C133.66 158 101.32 158 68 158 C68 187.37 68 216.74 68 247 C45.56 247 23.12 247 0 247 C0 165.49 0 83.98 0 0 Z " fill="#30B1F5" transform="translate(523,0)"/>
</svg>
