<svg width="362" height="133" viewBox="0 0 362 133" fill="none" xmlns="http://www.w3.org/2000/svg">
<g clip-path="url(#clip0_89_254)">
<path d="M77.1096 86.7285C72.9431 78.1888 70.588 69.952 70.588 59.777C70.588 36.8231 82.6044 18.1088 100.659 6.78321L97.0965 0.121029C87.9785 5.26887 77.4719 8.1762 66.3009 8.1762C55.1904 8.1762 44.6838 5.26887 35.6262 0.242059L32.0635 6.90424C50.0579 18.2298 62.0138 36.9441 62.0138 59.8377C62.0138 69.2251 59.9608 76.7959 56.3378 84.8507C42.0873 111.136 7.97057 123.249 7.97057 123.249L13.4052 132.879C27.2328 119.857 45.831 111.863 66.3009 111.863C86.7708 111.863 105.369 119.857 119.197 132.879L124.812 123.309C124.752 123.309 93.7754 111.741 77.1096 86.7285Z" fill="#FF00FF"/>
<path d="M196.552 76.5538C191.419 76.5538 186.528 75.5242 181.879 73.4648C177.29 71.4056 173.244 68.6803 169.742 65.1675C166.24 61.6547 163.522 57.5971 161.469 52.9941C159.416 48.391 158.39 43.4856 158.39 38.2767C158.39 33.1289 159.416 28.2231 161.469 23.5597C163.522 18.8963 166.24 14.8991 169.742 11.3863C173.244 7.87346 177.29 5.14817 181.879 3.0887C186.468 1.02957 191.359 0 196.552 0C201.02 0 205.126 0.66615 208.81 1.99879C212.493 3.33109 215.754 5.08749 218.532 7.26765C221.309 9.44815 223.604 11.9917 225.476 14.8384C227.348 17.685 228.736 20.6527 229.582 23.6204L214.063 25.6188C213.339 24.1652 212.433 22.7118 211.286 21.3189C210.199 19.9259 208.87 18.6539 207.421 17.6244C205.972 16.5341 204.281 15.6862 202.409 15.0808C200.537 14.4143 198.424 14.1115 196.009 14.1115C193.11 14.1115 190.332 14.7174 187.675 15.989C185.019 17.2609 182.664 18.9567 180.611 21.1371C178.558 23.3173 176.927 25.8612 175.72 28.7682C174.512 31.6752 173.908 34.8246 173.908 38.2767C173.908 41.6685 174.512 44.8786 175.72 47.7856C176.927 50.6926 178.558 53.2365 180.611 55.4166C182.664 57.5971 185.019 59.2928 187.675 60.5645C190.332 61.8364 193.11 62.4422 196.009 62.4422C198.605 62.4422 200.96 62.0788 203.073 61.4127C205.187 60.6858 207.059 59.7773 208.689 58.566C210.319 57.3548 211.769 55.9618 212.976 54.3871C214.184 52.8124 215.21 51.177 216.056 49.4206L231.574 51.4194C230.729 54.5688 229.28 57.6575 227.287 60.6858C225.295 63.7139 222.819 66.3788 219.86 68.741C216.901 71.1029 213.399 72.9803 209.474 74.434C205.609 75.827 201.262 76.5538 196.552 76.5538Z" fill="black"/>
<path d="M252.222 3.15005H287.849L304.875 73.5865H288.813L285.313 58.9905H254.697L251.195 73.5865H235.133L252.222 3.15005ZM258.2 44.8789H281.749L275.227 17.2009H264.72L258.2 44.8789Z" fill="black"/>
<path d="M302.339 17.2009V3.08937H362V17.2009H339.958V73.5261H324.441V17.2009H302.339Z" fill="black"/>
<path d="M177.588 132.879C174.991 132.879 172.516 132.334 170.16 131.304C167.806 130.275 165.753 128.882 164.001 127.125C162.25 125.369 160.861 123.31 159.835 120.948C158.808 118.586 158.265 116.102 158.265 113.498C158.265 110.894 158.808 108.411 159.835 106.049C160.861 103.687 162.25 101.628 164.001 99.8711C165.753 98.115 167.806 96.722 170.16 95.6921C172.516 94.6626 174.991 94.1175 177.588 94.1175C179.882 94.1175 181.935 94.4809 183.807 95.1474C185.679 95.8135 187.31 96.7221 188.758 97.812C190.147 98.9022 191.355 100.174 192.321 101.628C193.287 103.081 193.951 104.535 194.435 106.11L186.524 107.139C186.162 106.412 185.679 105.685 185.136 104.959C184.592 104.232 183.928 103.626 183.203 103.081C182.479 102.536 181.633 102.112 180.667 101.809C179.701 101.506 178.614 101.325 177.407 101.325C175.957 101.325 174.568 101.628 173.18 102.294C171.851 102.899 170.644 103.808 169.617 104.898C168.59 105.988 167.745 107.321 167.141 108.774C166.537 110.228 166.236 111.863 166.236 113.62C166.236 115.376 166.537 116.95 167.141 118.465C167.745 119.918 168.59 121.251 169.617 122.341C170.644 123.431 171.851 124.339 173.18 124.945C174.508 125.551 175.957 125.914 177.407 125.914C178.735 125.914 179.943 125.732 180.969 125.369C182.056 125.006 182.962 124.521 183.807 123.915C184.653 123.31 185.377 122.583 185.981 121.796C186.585 121.008 187.128 120.16 187.551 119.252L195.461 120.281C195.038 121.856 194.314 123.431 193.287 124.945C192.261 126.459 191.053 127.852 189.544 129.003C188.034 130.214 186.283 131.183 184.29 131.91C182.177 132.516 180.003 132.879 177.588 132.879Z" fill="black"/>
<path d="M205.787 95.6932H223.842L232.476 131.366H224.325L222.573 123.977H207.055L205.304 131.366H197.152L205.787 95.6932ZM208.866 116.83H220.822L217.501 102.779H212.188L208.866 116.83Z" fill="black"/>
<path d="M257.415 121.19C257.415 120.1 256.932 119.252 255.905 118.586C254.879 117.92 253.611 117.374 252.101 116.829C250.591 116.345 248.901 115.8 247.15 115.315C245.399 114.831 243.708 114.104 242.198 113.256C240.689 112.408 239.42 111.318 238.394 110.046C237.367 108.713 236.884 107.018 236.884 104.898C236.884 103.566 237.186 102.294 237.85 100.961C238.515 99.6894 239.42 98.5388 240.568 97.5092C241.776 96.4797 243.164 95.6922 244.916 95.0867C246.606 94.4809 248.538 94.1782 250.591 94.1782C252.644 94.1782 254.577 94.4809 256.207 95.026C257.837 95.5711 259.287 96.3583 260.555 97.3879C261.762 98.4178 262.789 99.5684 263.574 100.901C264.357 102.233 264.962 103.626 265.325 105.201L257.415 106.231C256.932 104.838 256.086 103.687 255 102.778C253.913 101.87 252.403 101.385 250.531 101.385C248.72 101.385 247.331 101.809 246.365 102.657C245.399 103.505 244.916 104.413 244.916 105.443C244.916 106.473 245.398 107.26 246.425 107.866C247.451 108.471 248.72 109.017 250.229 109.44C251.739 109.925 253.43 110.41 255.181 110.894C256.932 111.439 258.623 112.105 260.132 113.014C261.641 113.922 262.91 115.012 263.936 116.405C264.962 117.798 265.444 119.555 265.444 121.795C265.444 123.188 265.082 124.581 264.42 125.914C263.755 127.246 262.789 128.458 261.521 129.487C260.253 130.517 258.683 131.365 256.871 132.031C255.06 132.697 253.007 133 250.712 133C248.418 133 246.364 132.697 244.614 132.091C242.863 131.486 241.293 130.638 239.964 129.608C238.636 128.579 237.549 127.246 236.703 125.793C235.858 124.339 235.194 122.704 234.771 121.008L242.681 119.979C243.164 121.674 244.07 123.067 245.398 124.158C246.727 125.248 248.478 125.853 250.833 125.853C253.188 125.853 254.818 125.429 255.845 124.521C256.871 123.552 257.415 122.462 257.415 121.19Z" fill="black"/>
<path d="M278.731 131.366H270.819V95.6932H278.731V131.366Z" fill="black"/>
<path d="M308.498 118.102H308.984V95.6932H316.892V131.366H308.259L294.55 108.957H294.068V131.366H286.157V95.6932H294.793L308.498 118.102Z" fill="black"/>
<path d="M361.877 113.498C361.877 116.163 361.395 118.707 360.368 121.069C359.341 123.431 357.951 125.49 356.203 127.186C354.451 128.942 352.397 130.335 349.983 131.365C347.626 132.395 345.03 132.879 342.315 132.879C339.595 132.879 336.999 132.395 334.646 131.365C332.289 130.335 330.175 128.942 328.426 127.186C326.675 125.43 325.285 123.37 324.258 121.069C323.231 118.707 322.749 116.224 322.749 113.498C322.749 110.834 323.231 108.29 324.258 105.928C325.285 103.566 326.675 101.506 328.426 99.8108C330.175 98.0544 332.229 96.6614 334.646 95.6318C336.999 94.6022 339.595 94.1175 342.315 94.1175C345.03 94.1175 347.626 94.6022 349.983 95.6318C352.337 96.6614 354.451 98.0544 356.203 99.8108C357.951 101.567 359.341 103.626 360.368 105.928C361.395 108.229 361.877 110.834 361.877 113.498ZM330.6 113.498C330.6 115.255 330.899 116.829 331.564 118.343C332.169 119.797 333.014 121.129 334.101 122.22C335.188 123.31 336.398 124.218 337.784 124.824C339.173 125.43 340.682 125.793 342.315 125.793C343.884 125.793 345.393 125.49 346.842 124.824C348.231 124.218 349.498 123.31 350.525 122.22C351.612 121.129 352.456 119.797 353.061 118.343C353.666 116.89 354.029 115.255 354.029 113.498C354.029 111.742 353.726 110.167 353.061 108.653C352.397 107.139 351.612 105.867 350.525 104.777C349.438 103.687 348.231 102.778 346.842 102.173C345.453 101.567 343.943 101.204 342.315 101.204C340.742 101.204 339.233 101.506 337.784 102.173C336.398 102.778 335.128 103.687 334.101 104.777C333.014 105.867 332.169 107.199 331.564 108.653C330.963 110.107 330.6 111.802 330.6 113.498Z" fill="black"/>
<path d="M30.9615 74.7374L2.19059 89.4737L3.97564 92.9795L32.7466 78.2432L30.9615 74.7374Z" fill="black"/>
<path d="M28.8633 58.7484H0V62.685H28.8633V58.7484Z" fill="black"/>
<path d="M4.77875 29.9632L3.11304 33.5276L30.9984 46.6366L32.6641 43.0718L4.77875 29.9632Z" fill="black"/>
<path d="M123.92 29.9732L96.8406 43.0902L98.5475 46.6353L125.626 33.5183L123.92 29.9732Z" fill="black"/>
<path d="M128.556 58.6274H100.659V62.5643H128.556V58.6274Z" fill="black"/>
<path d="M98.5169 76.3384L96.8512 79.9032L124.737 93.0119L126.402 89.4474L98.5169 76.3384Z" fill="black"/>
</g>
<defs>
<clipPath id="clip0_89_254">
<rect width="362" height="133" fill="white"/>
</clipPath>
</defs>
</svg>
