<svg width="362" height="135" viewBox="0 0 362 135" fill="none" xmlns="http://www.w3.org/2000/svg">
<g clip-path="url(#clip0_89_216)">
<path d="M50.3671 33.0152C45.7111 28.2368 38.8703 25.2345 30.6508 25.2345C9.17404 25.2345 0 40.2462 0 60.2583C0 80.2705 9.17404 95.4619 30.6508 95.4619C38.8703 95.4619 45.7111 92.4596 50.3671 87.5437V95.4619H68.153V0H50.3671V33.0152ZM34.0765 77.7544C22.7177 77.7544 17.786 74.3503 17.786 60.2901C17.786 46.2298 22.7177 42.9737 34.0765 42.9737C45.4353 42.9737 50.3671 46.3778 50.3671 60.2583C50.3671 74.1389 45.4353 77.7544 34.0765 77.7544Z" fill="black"/>
<path d="M135.752 58.3352C135.753 53.984 134.892 49.6755 133.22 45.6562C131.548 41.6369 129.097 37.9857 126.008 34.9114C122.919 31.8371 119.252 29.4001 115.217 27.7398C111.182 26.0795 106.858 25.2284 102.493 25.2354H82.3416V42.9746H104.911C106.619 42.9732 108.31 43.3075 109.888 43.9584C111.467 44.6092 112.901 45.5638 114.108 46.7676C115.316 47.9714 116.274 49.4008 116.927 50.9739C117.58 52.547 117.915 54.233 117.914 55.9354C114.488 52.2459 109.153 49.1062 98.8867 49.1062C82.1931 49.1062 74.3872 59.7518 74.3872 72.3003C74.3872 84.8489 82.1931 95.4945 98.8867 95.4945C109.153 95.4945 114.488 92.2173 117.914 88.6652V95.4945H144.598V77.7553H135.752V58.3352ZM105.049 79.3939C95.7367 79.3939 92.1838 77.7553 92.1838 72.3003C92.1838 66.8454 95.7367 65.2068 105.049 65.2068C114.361 65.2068 117.914 66.8454 117.914 72.3003C117.914 77.7553 114.35 79.3939 105.049 79.3939Z" fill="black"/>
<path d="M197.086 87.5754V95.4936H214.883V0H197.086V33.0152C192.43 28.2368 185.589 25.2345 177.381 25.2345C155.893 25.2345 146.73 40.2462 146.73 60.2901C146.73 80.3339 155.893 95.4936 177.381 95.4936C185.6 95.4936 192.43 92.4913 197.086 87.5754ZM164.516 60.2583C164.516 46.3461 169.447 42.942 180.806 42.942C192.165 42.942 197.086 46.3778 197.086 60.2583C197.086 74.1389 192.165 77.7227 180.806 77.7227C169.447 77.7227 164.516 74.3503 164.516 60.2583Z" fill="url(#paint0_linear_89_216)"/>
<path d="M269.62 33.0152C264.964 28.2368 258.123 25.2345 249.914 25.2345C228.427 25.2345 219.263 40.2462 219.263 60.2901C219.263 80.3339 228.427 95.4936 249.914 95.4936C258.123 95.4936 264.964 92.4913 269.62 87.5754V95.4936H287.416V0H269.62V33.0152ZM253.34 77.7544C241.981 77.7544 237.049 74.3503 237.049 60.2901C237.049 46.2298 241.981 42.9737 253.34 42.9737C264.699 42.9737 269.62 46.3778 269.62 60.2583C269.62 74.1389 264.699 77.7544 253.34 77.7544Z" fill="url(#paint1_linear_89_216)"/>
<path d="M344.214 25.2354V56.612C344.214 67.5219 339.282 70.9365 328.613 70.9365C317.943 70.9365 313.012 67.5219 313.012 56.612V25.2354H295.215V57.2991C295.215 75.9792 303.7 88.6652 325.187 88.6652C333.396 88.6652 340.109 85.6734 344.214 81.1699C344.214 86.0541 342.267 90.7382 338.803 94.1918C335.338 97.6455 330.639 99.5857 325.739 99.5857H304.527V117.346H326.078C330.798 117.347 335.473 116.421 339.834 114.62C344.195 112.819 348.157 110.179 351.493 106.851C354.829 103.522 357.475 99.5705 359.277 95.222C361.08 90.8735 362.006 86.2134 362 81.5082V25.2354H344.214Z" fill="black"/>
<path d="M161.887 101.614V120.146C181.345 129.61 202.711 134.529 224.361 134.529C246.011 134.529 267.377 129.61 286.835 120.146V101.614C267.717 112.176 246.219 117.717 224.361 117.717C202.503 117.717 181.005 112.176 161.887 101.614Z" fill="url(#paint2_linear_89_216)"/>
</g>
<defs>
<linearGradient id="paint0_linear_89_216" x1="146.73" y1="47.7415" x2="214.883" y2="47.7415" gradientUnits="userSpaceOnUse">
<stop stop-color="#9D33C9"/>
<stop offset="0.45" stop-color="#9331CC"/>
<stop offset="1" stop-color="#8D2FCE"/>
</linearGradient>
<linearGradient id="paint1_linear_89_216" x1="219.263" y1="47.7415" x2="287.416" y2="47.7415" gradientUnits="userSpaceOnUse">
<stop stop-color="#892DD0"/>
<stop offset="0.52" stop-color="#7B2AD5"/>
<stop offset="1" stop-color="#7529D7"/>
</linearGradient>
<linearGradient id="paint2_linear_89_216" x1="161.887" y1="118.074" x2="286.835" y2="118.074" gradientUnits="userSpaceOnUse">
<stop stop-color="#9D33C9"/>
<stop offset="0.27" stop-color="#8E2FCE"/>
<stop offset="0.69" stop-color="#7C2AD5"/>
<stop offset="1" stop-color="#7628D7"/>
</linearGradient>
<clipPath id="clip0_89_216">
<rect width="362" height="135" fill="white"/>
</clipPath>
</defs>
</svg>
