<svg width="362" height="90" viewBox="0 0 362 90" fill="none" xmlns="http://www.w3.org/2000/svg">
<g clip-path="url(#clip0_89_240)">
<mask id="mask0_89_240" style="mask-type:luminance" maskUnits="userSpaceOnUse" x="0" y="0" width="362" height="90">
<path d="M362 0H0V89.8867H362V0Z" fill="white"/>
</mask>
<g mask="url(#mask0_89_240)">
<path d="M44.3439 44.9166H44.3278L30.9109 0H15.0049L28.4215 44.9166H28.4326L28.4269 44.9432L28.4326 44.9701H28.4215L15.0049 89.8867H30.9109L44.3278 44.9701H44.3439L44.3385 44.9432L44.3439 44.9166Z" fill="#FF7A00"/>
<path d="M76.4051 44.9166H76.3887L62.9718 0H54.3598H41.0521H38.4482L51.8649 44.9166H51.8813L51.8702 44.9432L51.8813 44.9701H51.8649L38.4482 89.8867H41.0521H54.3598H62.9718L76.3887 44.9701H76.4051L76.3994 44.9432L76.4051 44.9166Z" fill="#735CFC"/>
<path d="M20.3293 44.9701L20.3239 44.9432L20.3293 44.9166H20.3129L6.89627 0H0L13.4221 44.9432L0 89.8867H6.89627L20.3129 44.9701H20.3293Z" fill="#DAFE31"/>
<path d="M118.003 15.8306C136.628 15.8306 148.143 24.377 149.173 35.9679H133.038C132.084 32.0098 127.536 28.4899 118.074 28.4899C104.434 28.4899 100.779 36.3204 100.779 43.3767C100.779 50.4327 104.227 58.4023 119.921 58.4023C127.035 58.4023 131.507 57.2538 136.35 55.2401V50.3474H117.785V40.6418H149.173V62.5741C138.393 68.4496 129.443 70.0521 119.104 70.0521C98.4965 70.0521 84.8564 60.4908 84.8564 42.8691C84.8564 25.3972 98.2731 15.8306 118.003 15.8306Z" fill="black"/>
<path d="M210.407 48.9684V68.6145H197.687V63.6362C190.383 67.4489 182.234 69.4411 173.959 69.4372C163.015 69.4372 155.699 65.9491 155.699 56.9006C155.699 46.5595 167.166 43.6485 178.703 43.6485C185.102 43.7008 191.473 44.4823 197.687 45.9771C197.29 39.2523 190.061 38.0292 183.579 38.0292C177.097 38.0292 170.505 38.8677 161.37 41.1966L158.93 32.4206C167.302 30.3534 175.936 28.9272 185.692 28.9272C202.17 28.9272 210.271 34.1832 210.407 48.9684ZM197.687 57.1089V53.8132C191.982 52.561 186.157 51.911 180.31 51.8742C172.864 51.8742 169.105 53.1029 169.105 56.2704C169.105 59.4378 172.047 60.3566 178.24 60.3566C183.514 60.3566 192.349 58.5298 197.687 57.1089Z" fill="black"/>
<path d="M301.564 47.4783V68.6145H288.908V49.2249C288.908 42.281 285.743 39.4019 278.363 39.4019C271.903 39.4019 265.834 42.5053 265.834 50.0847V68.6358H253.186V49.2249C253.186 42.281 250.021 39.4019 242.64 39.4019C236.103 39.4019 230.111 42.5053 230.111 50.0847V68.6358H217.392V30.2199H230.116V37.3346C234.398 32.0947 240.134 28.9272 248.043 28.9272C255.626 28.9272 261.885 31.9025 264.521 39.0759C268.939 32.805 275.002 28.9272 283.766 28.9272C293.854 28.9272 301.499 34.1832 301.564 47.4783Z" fill="black"/>
<path d="M362.003 48.9684V68.6145H349.285V63.6362C341.977 67.4495 333.826 69.4416 325.548 69.4372C314.612 69.4372 307.296 65.9491 307.296 56.9006C307.296 46.5595 318.735 43.6485 330.3 43.6485C336.697 43.7008 343.069 44.4823 349.285 45.9771C348.886 39.2523 341.657 38.0292 335.175 38.0292C328.693 38.0292 322.101 38.8677 312.96 41.1966L310.525 32.4206C319.259 30.1551 328.249 28.9812 337.282 28.9272C353.762 28.9272 361.873 34.1832 362.003 48.9684ZM349.285 57.1089V53.8132C343.561 52.5571 337.718 51.9071 331.852 51.8742C324.406 51.8742 320.647 53.1029 320.647 56.2703C320.647 59.4378 323.642 60.3566 329.836 60.3566C335.11 60.3566 343.94 58.5298 349.285 57.1089Z" fill="black"/>
</g>
</g>
<defs>
<clipPath id="clip0_89_240">
<rect width="362" height="90" fill="white"/>
</clipPath>
</defs>
</svg>
