<svg xmlns="http://www.w3.org/2000/svg" width="362" height="72" fill="none" viewBox="0 0 362 72"><path fill="url(#svg-6139db)" d="M10 41.861v19.886h10.753v-8.899l10.983-8.88 17.092 17.779h15.387L40.671 36.61 72.531 10 10 41.861Z"></path><path fill="url(#svg-2debae)" d="m10 33.256 11.365-4.758V15.749H10v17.507Z"></path><path fill="url(#svg-136400)" fill-rule="evenodd" d="m312.909 15.085-21.623 45.997h12.823l3.754-7.995h27.212l3.754 7.995h12.823l-21.624-45.997h-17.119Zm8.347 8.276-9.093 19.607h18.612l-9.093-19.607h-.426Z" clip-rule="evenodd"></path><path fill="url(#svg-14c8e3)" fill-rule="evenodd" d="M113.067 19.491c-3.94-3.38-10.444-5.059-19.513-5.059H89.94c-9.069 0-15.573 1.678-19.513 5.059-3.952 3.369-5.922 8.976-5.922 16.82v3.544c0 7.845 1.97 13.452 5.922 16.833 3.94 3.368 10.444 5.058 19.513 5.058h3.614c9.069 0 15.573-1.69 19.513-5.059 3.952-3.38 5.922-8.987 5.922-16.832v-3.543c0-7.845-1.97-13.452-5.922-16.821Zm-5.642 19.642c0 3.205-.361 5.688-1.084 7.46-.723 1.772-2.168 3.17-4.313 4.173-2.145 1.014-5.234 1.539-9.267 1.574h-1.97c-3.066 0-5.572-.245-7.519-.747-1.946-.512-3.45-1.34-4.499-2.506a9.037 9.037 0 0 1-2.145-4.033c-.373-1.539-.548-3.509-.548-5.922v-2.028c0-4.872.968-8.3 2.914-10.293 1.959-1.993 5.887-2.984 11.797-2.984h1.97c3.03 0 5.502.245 7.425.758 1.935.501 3.427 1.329 4.476 2.494a9.482 9.482 0 0 1 2.169 4.045c.396 1.527.594 3.52.594 5.98v2.029Z" clip-rule="evenodd"></path><path fill="url(#svg-42530c)" d="M160.65 46.628h.454l14.525-31.543h18.732v45.997h-11.307V24.608h-.455l-16.89 36.474h-10.841l-16.692-36.474h-.467v36.474h-11.295V15.085h19.84l14.396 31.543Z"></path><path fill="url(#svg-354651)" d="M245.813 61.082h-42.908V15.085h42.908v9.069H214.27v9.395h31.543v9.01H214.27v9.454h31.543v9.07Z"></path><path fill="url(#svg-8b8853)" d="M250.476 15.085h47.256v9.663h-17.94v36.334h-11.435V24.748h-17.881v-9.663Z"></path><defs><linearGradient id="svg-6139db" x1="351.652" x2="10" y1="10" y2="61.747" gradientUnits="userSpaceOnUse"><stop stop-color="#75E6FF"></stop><stop offset="0" stop-color="#75E6FF"></stop><stop offset="1" stop-color="#878BFF"></stop></linearGradient><linearGradient id="svg-2debae" x1="351.652" x2="10" y1="10" y2="61.747" gradientUnits="userSpaceOnUse"><stop stop-color="#75E6FF"></stop><stop offset="0" stop-color="#75E6FF"></stop><stop offset="1" stop-color="#878BFF"></stop></linearGradient><linearGradient id="svg-136400" x1="351.652" x2="10" y1="10" y2="61.747" gradientUnits="userSpaceOnUse"><stop stop-color="#75E6FF"></stop><stop offset="0" stop-color="#75E6FF"></stop><stop offset="1" stop-color="#878BFF"></stop></linearGradient><linearGradient id="svg-14c8e3" x1="351.652" x2="10" y1="10" y2="61.747" gradientUnits="userSpaceOnUse"><stop stop-color="#75E6FF"></stop><stop offset="0" stop-color="#75E6FF"></stop><stop offset="1" stop-color="#878BFF"></stop></linearGradient><linearGradient id="svg-42530c" x1="351.652" x2="10" y1="10" y2="61.747" gradientUnits="userSpaceOnUse"><stop stop-color="#75E6FF"></stop><stop offset="0" stop-color="#75E6FF"></stop><stop offset="1" stop-color="#878BFF"></stop></linearGradient><linearGradient id="svg-354651" x1="351.652" x2="10" y1="10" y2="61.747" gradientUnits="userSpaceOnUse"><stop stop-color="#75E6FF"></stop><stop offset="0" stop-color="#75E6FF"></stop><stop offset="1" stop-color="#878BFF"></stop></linearGradient><linearGradient id="svg-8b8853" x1="351.652" x2="10" y1="10" y2="61.747" gradientUnits="userSpaceOnUse"><stop stop-color="#75E6FF"></stop><stop offset="0" stop-color="#75E6FF"></stop><stop offset="1" stop-color="#878BFF"></stop></linearGradient></defs></svg>