<?xml version="1.0" encoding="UTF-8" standalone="no"?>
<!DOCTYPE svg PUBLIC "-//W3C//DTD SVG 1.1//EN" "http://www.w3.org/Graphics/SVG/1.1/DTD/svg11.dtd">
<svg xmlns="http://www.w3.org/2000/svg" version="1.1" viewBox="0.00 0.00 280.00 72.00">
<path fill="#dafe31" d="
  M 10.96 35.89
  L 0.90 1.48
  A 0.40 0.40 0.0 0 1 1.28 0.97
  L 5.78 0.95
  A 0.40 0.40 0.0 0 1 6.16 1.24
  L 16.31 35.89
  A 0.40 0.40 0.0 0 1 16.31 36.11
  L 6.16 70.76
  A 0.40 0.40 0.0 0 1 5.78 71.05
  L 1.28 71.02
  A 0.40 0.40 0.0 0 1 0.90 70.51
  L 10.96 36.11
  A 0.40 0.40 0.0 0 0 10.96 35.89
  Z"
/>
<path fill="#ff7a00" d="
  M 22.51 35.91
  L 12.39 1.37
  A 0.33 0.33 0.0 0 1 12.71 0.95
  L 24.31 0.96
  A 0.33 0.33 0.0 0 1 24.63 1.20
  L 34.79 35.91
  A 0.33 0.33 0.0 0 1 34.79 36.09
  L 24.63 70.80
  A 0.33 0.33 0.0 0 1 24.31 71.04
  L 12.71 71.05
  A 0.33 0.33 0.0 0 1 12.39 70.63
  L 22.51 36.09
  A 0.33 0.33 0.0 0 0 22.51 35.91
  Z"
/>
<path fill="#735cfc" d="
  M 40.55 35.91
  L 30.44 1.38
  A 0.33 0.33 0.0 0 1 30.76 0.96
  L 48.99 0.96
  A 0.33 0.33 0.0 0 1 49.31 1.20
  L 59.47 35.91
  A 0.33 0.33 0.0 0 1 59.47 36.09
  L 49.30 70.80
  A 0.33 0.33 0.0 0 1 48.98 71.04
  L 30.76 71.04
  A 0.33 0.33 0.0 0 1 30.44 70.62
  L 40.55 36.09
  A 0.33 0.33 0.0 0 0 40.55 35.91
  Z"
/>
<path fill="#ffffff" d="
  M 105.69 43.50
  L 105.64 40.82
  Q 105.63 40.25 105.07 40.25
  L 91.53 40.24
  Q 91.32 40.24 91.32 40.03
  L 91.33 32.75
  Q 91.33 32.58 91.50 32.58
  L 115.04 32.58
  Q 115.50 32.58 115.50 33.04
  L 115.50 49.44
  Q 115.50 49.85 115.14 50.05
  C 103.10 56.61 82.41 59.24 71.60 48.90
  C 67.09 44.58 65.44 37.85 66.19 31.63
  C 68.17 15.09 85.39 11.18 99.37 13.89
  C 107.28 15.42 113.96 19.96 115.51 28.41
  A 0.50 0.50 0.0 0 1 115.02 29.00
  L 103.55 29.00
  Q 103.14 29.00 102.99 28.62
  C 99.64 20.32 82.80 21.64 79.35 29.45
  C 76.35 36.22 79.19 44.25 87.02 45.86
  Q 96.35 47.79 105.18 44.27
  Q 105.70 44.06 105.69 43.50
  Z"
/>
<path fill="#ffffff" d="
  M 151.71 36.54
  Q 153.85 37.03 152.58 35.23
  L 151.29 33.39
  Q 150.02 31.59 147.86 31.22
  C 140.22 29.89 132.12 31.09 125.14 33.06
  Q 124.89 33.12 124.83 32.88
  L 123.08 26.48
  A 0.29 0.28 75.7 0 1 123.28 26.13
  C 132.76 23.62 155.66 19.38 161.18 31.25
  C 163.57 36.39 162.77 47.11 162.71 53.38
  Q 162.70 54.60 161.48 54.61
  L 153.97 54.64
  Q 152.80 54.64 152.82 53.47
  L 152.86 51.46
  Q 152.87 50.68 152.17 51.03
  Q 142.91 55.69 132.51 55.19
  C 126.30 54.89 119.52 51.91 120.54 44.49
  C 122.24 31.96 143.98 34.74 151.71 36.54
  Z
  M 131.49 46.70
  C 135.75 49.96 147.82 46.87 152.27 45.66
  A 0.74 0.73 85.1 0 0 152.82 45.00
  L 152.90 43.74
  Q 152.94 43.14 152.35 43.00
  C 148.38 42.00 129.70 38.70 131.02 45.93
  Q 131.11 46.40 131.49 46.70
  Z"
/>
<path fill="#ffffff" d="
  M 178.20 29.42
  C 184.34 22.72 196.86 20.34 202.92 28.60
  C 203.27 29.07 203.65 30.14 204.12 30.76
  Q 204.48 31.25 204.82 30.75
  C 211.92 20.51 231.80 19.94 232.45 35.51
  Q 232.86 45.16 232.74 54.35
  Q 232.74 54.61 232.48 54.61
  L 223.27 54.63
  A 0.27 0.27 0.0 0 1 223.00 54.36
  Q 223.01 46.36 222.74 38.02
  Q 222.56 32.42 217.01 31.77
  C 209.38 30.88 205.36 34.15 205.28 41.85
  Q 205.22 48.23 205.28 54.22
  A 0.38 0.38 0.0 0 1 204.90 54.61
  L 195.87 54.63
  A 0.38 0.38 0.0 0 1 195.49 54.25
  Q 195.54 47.23 195.47 39.95
  Q 195.44 36.24 194.55 34.74
  C 192.30 30.91 186.33 31.21 182.79 32.62
  Q 178.17 34.47 177.99 39.51
  Q 177.73 47.18 177.79 54.31
  Q 177.79 54.61 177.50 54.61
  L 168.38 54.63
  A 0.37 0.37 0.0 0 1 168.00 54.26
  L 168.00 25.74
  Q 168.00 24.49 169.26 24.49
  L 177.00 24.49
  Q 177.77 24.49 177.77 25.25
  L 177.76 29.24
  Q 177.76 29.90 178.20 29.42
  Z"
/>
<path fill="#ffffff" d="
  M 268.87 51.04
  C 261.30 54.81 251.22 56.81 243.04 53.87
  C 235.95 51.32 235.15 41.84 241.24 37.94
  C 248.14 33.50 260.85 34.77 268.43 36.56
  A 0.84 0.84 0.0 0 0 269.31 35.26
  L 268.00 33.40
  Q 266.72 31.59 264.54 31.21
  C 256.83 29.88 248.79 31.09 241.81 33.07
  Q 241.59 33.13 241.53 32.91
  L 239.76 26.47
  Q 239.68 26.21 239.94 26.14
  C 249.43 23.60 271.62 19.59 277.58 30.66
  Q 278.89 33.09 279.02 38.32
  Q 279.23 46.19 279.15 53.55
  Q 279.13 54.61 278.08 54.61
  L 270.18 54.62
  Q 269.49 54.62 269.50 53.94
  L 269.52 51.44
  Q 269.52 50.71 268.87 51.04
  Z
  M 269.05 42.90
  C 263.86 41.69 253.17 40.22 248.79 42.71
  A 2.58 2.57 -23.5 0 0 247.60 45.72
  C 249.11 50.51 264.91 46.77 268.95 45.67
  Q 269.48 45.52 269.49 44.98
  L 269.53 43.52
  A 0.61 0.61 0.0 0 0 269.05 42.90
  Z"
/>
</svg>
