<svg width="117" height="28" viewBox="0 0 117 28" fill="none" xmlns="http://www.w3.org/2000/svg">
<path d="M19.2026 13.9423C23.4325 16.9882 24.0592 22.8907 22.9749 27.7698C22.9419 27.9233 22.8471 28 22.6904 28H17.4298C17.2346 28 17.1577 27.9054 17.1989 27.7164C18.176 23.3552 17.4504 18.5789 12.6185 17.1156C11.291 16.7128 9.69686 16.584 7.83612 16.7292C7.71519 16.7374 7.64511 16.8005 7.62587 16.9183L5.70878 27.815C5.70094 27.8662 5.67506 27.913 5.63577 27.9469C5.59648 27.9808 5.54636 27.9996 5.4944 28H0.188419C0.160826 27.9997 0.133603 27.9936 0.108652 27.982C0.0837 27.9704 0.0616226 27.9537 0.0439568 27.9329C0.026291 27.9122 0.0134672 27.8879 0.00637541 27.8619C-0.000716354 27.8358 -0.00191196 27.8086 0.00289029 27.7821L4.83889 0.283432C4.86637 0.127236 4.95982 0.0491349 5.11923 0.0491349L10.4005 0.0532493C10.4244 0.0534777 10.4481 0.0589061 10.4697 0.0691676C10.4914 0.0794291 10.5105 0.0942683 10.5258 0.112658C10.5411 0.131047 10.5522 0.152551 10.5583 0.175654C10.5645 0.198757 10.5655 0.222913 10.5613 0.246439L8.65243 11.0527C8.61945 11.2308 8.69366 11.3268 8.87507 11.3405C14.7239 11.7049 18.6432 9.23182 20.6332 3.92115C21.0592 2.77572 21.3478 1.56314 21.4989 0.283432C21.5061 0.219853 21.5365 0.161156 21.5845 0.118654C21.6325 0.0761513 21.6945 0.0528533 21.7587 0.0532493L27.0894 0.0491349C27.2488 0.0491349 27.3175 0.127236 27.2955 0.283432C26.5617 5.44201 23.82 11.1185 19.2191 13.667C19.0706 13.7519 19.0651 13.8437 19.2026 13.9423Z" fill="#FF0068"/>
<path d="M38.7321 2.70446L45.2048 0.0121455C45.2258 0.00348481 45.2484 -0.000630399 45.2712 7.8173e-05C45.2939 0.000786745 45.3163 0.00630698 45.3367 0.0162599L50.8653 2.70036C50.8858 2.71032 50.9081 2.71582 50.9308 2.71653C50.9536 2.71724 50.9762 2.71313 50.9972 2.70446L57.3463 0.0614685C57.3731 0.0497193 57.4026 0.0454987 57.4317 0.0492632C57.4607 0.0530277 57.4882 0.0646367 57.5111 0.082831C57.534 0.101025 57.5516 0.125115 57.5617 0.1525C57.5719 0.179886 57.5744 0.209521 57.5689 0.238214L56.3321 7.21359C56.3253 7.25095 56.3054 7.28469 56.2759 7.30878C56.2465 7.33287 56.2094 7.34575 56.1713 7.34513H31.8553C31.8319 7.34491 31.8088 7.33959 31.7876 7.32954C31.7665 7.31948 31.7478 7.30494 31.7329 7.28693C31.7179 7.26892 31.7071 7.24787 31.7012 7.22526C31.6953 7.20265 31.6944 7.17904 31.6986 7.15605L32.9272 0.180674C32.9316 0.156049 32.9417 0.132789 32.9567 0.112748C32.9717 0.0927078 32.9912 0.076441 33.0136 0.0652568C33.0361 0.0540726 33.0608 0.0482787 33.0859 0.0483349C33.111 0.0483912 33.1357 0.0542983 33.1581 0.065583L38.6001 2.70036C38.6206 2.71032 38.6429 2.71582 38.6656 2.71653C38.6884 2.71724 38.711 2.71313 38.7321 2.70446Z" fill="#FF0068"/>
<path d="M81.6458 0.0491333H87.1744C87.1931 0.0488893 87.2116 0.0527251 87.2286 0.0603727C87.2456 0.0680203 87.2608 0.079296 87.2729 0.093401C87.2851 0.107506 87.2941 0.124104 87.2991 0.142022C87.3042 0.159939 87.3052 0.178732 87.3022 0.197102L82.425 27.8931C82.4202 27.9225 82.4052 27.9493 82.3826 27.9689C82.36 27.9884 82.3312 27.9994 82.3013 28H76.7768C76.7582 28.0002 76.7397 27.9964 76.7226 27.9887C76.7056 27.9811 76.6905 27.9698 76.6783 27.9557C76.6661 27.9416 76.6572 27.925 76.6521 27.9071C76.6471 27.8892 76.646 27.8704 76.649 27.852L77.4942 23.0839C77.4971 23.0667 77.4964 23.049 77.4921 23.032C77.4879 23.0151 77.4802 22.9991 77.4695 22.9853L67.1131 9.00574C67.0985 8.98495 67.0779 8.96899 67.0541 8.95992C67.0304 8.95084 67.0044 8.94907 66.9796 8.95481C66.9548 8.96055 66.9322 8.97356 66.9149 8.99215C66.8975 9.01075 66.8862 9.03409 66.8822 9.05918L63.5675 27.8931C63.5626 27.9232 63.547 27.9506 63.5235 27.9702C63.5001 27.9898 63.4703 28.0004 63.4397 28L57.9152 27.9959C57.8966 27.9961 57.8781 27.9923 57.861 27.9846C57.844 27.977 57.8289 27.9657 57.8167 27.9516C57.8045 27.9375 57.7956 27.9209 57.7905 27.903C57.7855 27.8851 57.7844 27.8663 57.7874 27.8479L62.6646 0.156008C62.6695 0.126582 62.6845 0.0997696 62.7071 0.0802424C62.7297 0.0607152 62.7584 0.0497056 62.7883 0.0491333H67.8717C67.8919 0.0492888 67.9117 0.0542079 67.9296 0.0634961C67.9476 0.0727843 67.963 0.0861792 67.9748 0.102571L78.7599 14.6822C78.7749 14.7017 78.7952 14.7164 78.8184 14.7246C78.8416 14.7328 78.8666 14.7342 78.8906 14.7285C78.9145 14.7229 78.9363 14.7105 78.9533 14.6928C78.9704 14.6751 78.9819 14.6529 78.9866 14.6288L81.5221 0.156008C81.5269 0.126582 81.5419 0.0997696 81.5645 0.0802424C81.5871 0.0607152 81.6159 0.0497056 81.6458 0.0491333Z" fill="#FF0068"/>
<path d="M100.524 5.5982H91.6105C91.5901 5.59793 91.5701 5.59324 91.5518 5.58447C91.5334 5.5757 91.5172 5.56305 91.5043 5.5474C91.4913 5.53176 91.482 5.5135 91.4768 5.49388C91.4717 5.47426 91.4708 5.45375 91.4744 5.43379L92.3979 0.164231C92.4038 0.131583 92.4211 0.102086 92.4468 0.0810012C92.4725 0.0599166 92.5048 0.0486197 92.5381 0.0491395H116.528C116.549 0.0494173 116.569 0.0541021 116.587 0.0628752C116.605 0.0716482 116.622 0.0842986 116.635 0.0999427C116.648 0.115587 116.657 0.133849 116.662 0.153468C116.667 0.173087 116.668 0.193591 116.664 0.213554L115.741 5.48311C115.735 5.51576 115.718 5.54526 115.692 5.56634C115.666 5.58743 115.634 5.59872 115.601 5.5982H106.593C106.559 5.59768 106.527 5.60898 106.501 5.63007C106.476 5.65115 106.458 5.68065 106.452 5.7133L102.552 27.8849C102.546 27.9175 102.529 27.947 102.503 27.9681C102.478 27.9892 102.445 28.0005 102.412 28H96.9124C96.892 27.9997 96.872 27.995 96.8536 27.9862C96.8353 27.9775 96.8191 27.9648 96.8061 27.9492C96.7932 27.9335 96.7838 27.9153 96.7787 27.8957C96.7735 27.876 96.7727 27.8555 96.7763 27.8356L100.66 5.76262C100.664 5.74266 100.663 5.72215 100.658 5.70253C100.652 5.68291 100.643 5.66465 100.63 5.64901C100.617 5.63336 100.601 5.62071 100.583 5.61194C100.564 5.60317 100.544 5.59848 100.524 5.5982Z" fill="#FF0068"/>
<path d="M34.8773 22.4509H53.5039C53.5226 22.4507 53.541 22.4545 53.5581 22.4622C53.5751 22.4698 53.5902 22.4811 53.6024 22.4952C53.6146 22.5093 53.6235 22.5259 53.6286 22.5438C53.6336 22.5617 53.6347 22.5805 53.6317 22.5989L52.6999 27.8931C52.695 27.9232 52.6794 27.9506 52.6559 27.9702C52.6325 27.9898 52.6028 28.0004 52.5721 28H28.1819C28.1633 28.0002 28.1448 27.9964 28.1277 27.9887C28.1107 27.9811 28.0956 27.9698 28.0834 27.9557C28.0712 27.9416 28.0623 27.925 28.0572 27.9071C28.0522 27.8892 28.0511 27.8704 28.0541 27.852L30.9607 11.3569C30.9656 11.3268 30.9812 11.2994 31.0047 11.2798C31.0281 11.2602 31.0579 11.2496 31.0885 11.25H54.1718C54.1904 11.2498 54.2089 11.2536 54.226 11.2613C54.243 11.2689 54.2581 11.2802 54.2703 11.2943C54.2825 11.3084 54.2914 11.325 54.2965 11.3429C54.3015 11.3608 54.3026 11.3796 54.2996 11.398L53.3596 16.6922C53.3547 16.7223 53.339 16.7497 53.3156 16.7693C53.2921 16.7889 53.2624 16.7995 53.2318 16.7991H35.8131C35.7832 16.7997 35.7545 16.8107 35.7319 16.8302C35.7093 16.8497 35.6943 16.8765 35.6895 16.906L34.7495 22.3029C34.7465 22.3213 34.7475 22.3401 34.7526 22.358C34.7576 22.3759 34.7666 22.3925 34.7788 22.4066C34.7909 22.4208 34.8061 22.432 34.8231 22.4397C34.8401 22.4473 34.8586 22.4512 34.8773 22.4509Z" fill="#FF0068"/>
</svg>
